<?xml version="1.0" encoding="utf-8"?>
<!-- Generator: Adobe Illustrator 15.0.0, SVG Export Plug-In . SVG Version: 6.00 Build 0)  -->
<!DOCTYPE svg PUBLIC "-//W3C//DTD SVG 1.0//EN" "http://www.w3.org/TR/2001/REC-SVG-20010904/DTD/svg10.dtd">
<svg version="1.0" id="Layer_1" xmlns="http://www.w3.org/2000/svg" xmlns:xlink="http://www.w3.org/1999/xlink" x="0px" y="0px"
	 width="500px" height="500px" viewBox="0 0 500 500" enable-background="new 0 0 500 500" xml:space="preserve">
<g>
	<g>
		<linearGradient id="SVGID_1_" gradientUnits="userSpaceOnUse" x1="243.0483" y1="20.1934" x2="449.9492" y2="20.1934">
			<stop  offset="0" style="stop-color:#009EE2"/>
			<stop  offset="1" style="stop-color:#1D70B7"/>
		</linearGradient>
		<rect x="243.048" y="7.117" fill="url(#SVGID_1_)" width="206.901" height="26.154"/>
		<linearGradient id="SVGID_2_" gradientUnits="userSpaceOnUse" x1="243.0483" y1="74.376" x2="449.9492" y2="74.376">
			<stop  offset="0" style="stop-color:#009EE2"/>
			<stop  offset="1" style="stop-color:#1D70B7"/>
		</linearGradient>
		<rect x="243.048" y="61.298" fill="url(#SVGID_2_)" width="206.901" height="26.155"/>
		<linearGradient id="SVGID_3_" gradientUnits="userSpaceOnUse" x1="243.0483" y1="128.5586" x2="449.9492" y2="128.5586">
			<stop  offset="0" style="stop-color:#009EE2"/>
			<stop  offset="1" style="stop-color:#1D70B7"/>
		</linearGradient>
		<rect x="243.048" y="115.482" fill="url(#SVGID_3_)" width="206.901" height="26.154"/>
		<linearGradient id="SVGID_4_" gradientUnits="userSpaceOnUse" x1="243.0483" y1="182.7402" x2="449.9492" y2="182.7402">
			<stop  offset="0" style="stop-color:#009EE2"/>
			<stop  offset="1" style="stop-color:#1D70B7"/>
		</linearGradient>
		<rect x="243.048" y="169.664" fill="url(#SVGID_4_)" width="206.901" height="26.154"/>
		<linearGradient id="SVGID_5_" gradientUnits="userSpaceOnUse" x1="243.0483" y1="236.9233" x2="388.1162" y2="236.9233">
			<stop  offset="0" style="stop-color:#009EE2"/>
			<stop  offset="1" style="stop-color:#1D70B7"/>
		</linearGradient>
		<rect x="243.048" y="223.846" fill="url(#SVGID_5_)" width="145.068" height="26.155"/>
	</g>
	<linearGradient id="SVGID_6_" gradientUnits="userSpaceOnUse" x1="50.0508" y1="250" x2="202.7993" y2="250">
		<stop  offset="0" style="stop-color:#009EE2"/>
		<stop  offset="1" style="stop-color:#1D70B7"/>
	</linearGradient>
	<path fill-rule="evenodd" clip-rule="evenodd" fill="url(#SVGID_6_)" d="M140.048,65.603c2.888,1.181,5.576,5.041,7.886,7.057
		c3.739,3.258,9.258,2.829,13.905,3.794c9.045,1.869,18.187,3.584,26.352,8.081c8.382,4.615,8.233,21.604,9.421,30.027
		c1.128,8.056,2.058,16.125,3.029,24.203c2.153,17.544,2.295,35.032,2.089,52.699c-0.103,8.868-0.656,17.709-1.096,26.57
		c-0.096,1.919-1.319,24.384-1.135,24.348c0.479-0.085,0.826-0.741,1.135-1.073c0.44-0.146-2.713,5.771-1.585,5.858
		c-0.042,0,1.752-0.89,1.451-0.708c-0.078-0.665-2.32,5.486-1.557,5.031c0.142-0.099,1.401-1.113,1.156-0.939
		c0.021,0.379-1.458,10.795-0.702,10.578c-0.653,0.195-2.345-0.748-2.82-0.996c-0.841-0.469-0.507,1.224-1.04,1.291
		c-0.663,0.1-4.522-0.511-4.469,0.109c0.497,4.889-1.199,14.327-5.25,17.584c-1.568,1.228-9.081,9.198-10.489,6.747
		c-0.603-1.022-1.174,0.663-1.621,0.89c-0.635,1.629-2.011-0.174-2.508,0.809c0,1.927,0.163,3.863,0.27,5.782
		c1.724,26.505-0.039,53.023,3.704,79.369c3.391,23.83,7.236,49.206,6.466,73.32c-0.23,6.828-2.352,12.763-3.31,19.375
		c-0.709,4.895,0.976,8.262,2.178,13.345c3.047,12.979-5.612,22.39-18.736,21.134c-10.237-0.976-10.578-5.069-10.291-13.887
		c0.255-7.779,3.469-14.622-1.653-21.802c-6.992-9.794-4.949-21.021-2.306-32.229c1.032-4.353,2.306-7.527,0.603-11.706
		c-2.015-4.934-3.764-9.903-5.278-15.016c-5.687-19.183-8.12-38.93-11.866-58.518c-1.046-5.477-7.759-42.429-10.154-42.283
		c-2.085,11.695,1.341,23.49-0.071,35.412c-1.078,9.138-2.465,18.219-3.7,27.342c-1.692,12.717-1.302,25.979-2.249,38.81
		c-0.738,9.972-0.567,20.081-1.313,30.077c-0.383,5.232-0.337,10.609-3.189,15.242c-1.622,2.678-1.636,10.163-1.122,12.858
		c1.76,7.79-3.629,12.686-11.667,12.476c-3.387-0.1-3.976-1.678-6.796,0.653c-2.355,1.954-3.948,4.575-6.172,6.533
		c-2.87,3.82-12.788,4.839-17.154,5.063c-2.242,0.109-14.065,0.734-14.703-2.238c-0.858-3.952,3.59-9.06,6.183-11.649
		c2.355-3.544,7.169-4.657,10.202-7.435c0.139-0.152,5.222-6.442,4.519-6.602c-0.439-0.093-1.337,0.152-1.795,0.237
		c1.274-0.099,3.225-3.66,4.03-6.179c1.486-4.59,0.784-10.476,4.757-13.951c1.546-1.348-0.997-8.297-1.295-10.209
		c-0.773-4.959-1.578-9.972-1.937-14.987c-1.17-16.388-0.784-33.01-0.354-49.419c0.447-16.591-1.792-32.092-3.849-48.477
		c-1.1-8.786-2.11-17.587-2.873-26.419c-0.199-2.327-3.225-27.726-3.742-27.672c-1.798,0.152-1.756,4.735-4.086,4.601
		c-2.043-0.117-3.256-4.289-3.952-5.878c-1.777-4.008-3.629-8.006-5.168-12.111c-1.848-4.927-3.863-9.634-4.231-14.93
		c-0.422-6.089,1.961-9.578,4.934-14.636c1.291-2.212,0.887-5.048,2.688-7.391c1.433-1.868,0.703-2.694,0.057-4.865
		c-1.458-4.909-2.019-9.875-2.458-14.955c-0.628-3.479-1.217-12.997,0.887-15.884c3.274-4.478,1.905-12.222,2.686-17.906
		c1.362-9.666,2.94-19.329,4.604-28.945c1.667-9.624,2.352-20.2,5.59-29.461c2.167-7.895,14.047-11.011,20.794-14.088
		c2.636-1.22,8.378-2.728,9.989-5.047c0.518-0.756-0.617-4.136,0.827-4.597c0.788-0.245,5.313,0.968,5.594,0.076
		c-0.404-0.289-0.745-0.637-1.025-1.04c4.913-8.433-0.568-9.377-4.668-16.923c-0.156-0.288-1.018-2.928-1.465-3.138
		c-1.238-0.55-2.313,0.277-2.862-1.965c-0.873-3.661-3.076-6.509-4.271-10.01c-0.919-2.707-0.713-4.597-0.674-7.204
		c-0.745-4.008-1.217-9.368-1.316-13.479c-0.191-8.302,5.247-14.88,10.982-19.953c5.743-5.097,16.247-4.789,23.455-2.992
		c4.051,1.009,6.518,4.865,10.576,5.582c3.742,0.66,5.98,4.952,6.995,8.19c1.085,3.49,0.195,10.748,2.089,13.394
		c1.263,1.798-0.755,3.739-0.046,5.332c0.943,2.086,1.529,3.388,1.819,5.704c0.472,3.58-1.139,7.643-2.972,10.792
		c-0.749,1.286-3.271,2.641-2.721,4.372c0.092,0.319,1.88,3.927,2.029,3.799C141.552,58.877,141.205,66.069,140.048,65.603"/>
</g>
</svg>
