<?xml version="1.0" encoding="utf-8"?>
<!-- Generator: Adobe Illustrator 15.0.0, SVG Export Plug-In . SVG Version: 6.00 Build 0)  -->
<!DOCTYPE svg PUBLIC "-//W3C//DTD SVG 1.0//EN" "http://www.w3.org/TR/2001/REC-SVG-20010904/DTD/svg10.dtd">
<svg version="1.0" id="Layer_1" xmlns="http://www.w3.org/2000/svg" xmlns:xlink="http://www.w3.org/1999/xlink" x="0px" y="0px"
	 width="500px" height="500px" viewBox="0 0 500 500" enable-background="new 0 0 500 500" xml:space="preserve">
<g>
	<polyline fill="#FFFFFF" points="135.629,482.116 290.375,482.116 290.375,327.371 445.117,327.371 445.117,172.63 290.375,172.63 
		290.375,17.885 135.629,17.885 	"/>
	<linearGradient id="SVGID_1_" gradientUnits="userSpaceOnUse" x1="135.6294" y1="23.2617" x2="164.7983" y2="23.2617">
		<stop  offset="0" style="stop-color:#009EE2"/>
		<stop  offset="1" style="stop-color:#1D70B7"/>
	</linearGradient>
	<path fill="url(#SVGID_1_)" d="M162.319,22.424c-2.451,0.102-4.59-0.462-3.667-0.716c-4.995,0.683-5.102-0.094-5.747,1.231
		c-3.206,0.649-6.625-0.25-2.979-0.787l-9.241,0.811l5.527,0.205c-1.508,1.102-8.833-0.328-10.582,0.955l10.003-0.107l-0.5,0.367
		c2.277-0.396,6.701-0.23,8.244-0.076c-0.245,0.181-0.088,0.476-1.852,0.507c12.075,0.085,3.253-1.926,13.274-2.291
		C164.17,22.549,163.394,22.533,162.319,22.424z"/>
	<linearGradient id="SVGID_2_" gradientUnits="userSpaceOnUse" x1="163.1738" y1="24.1328" x2="190.1279" y2="24.1328">
		<stop  offset="0" style="stop-color:#009EE2"/>
		<stop  offset="1" style="stop-color:#1D70B7"/>
	</linearGradient>
	<path fill="url(#SVGID_2_)" d="M172.577,25.121l4.215-1.382l7.066,0.357c0.081-0.477,5.229-0.862,1.742-1.283
		c-0.682,0.075-2.03,0.217-3.114,0.174c0.787-1.03,9.396-0.514,7.321-1.557c-5.59,0.273-6.449,0.046-9.889,0.883
		c-5.123-0.096-8.854-0.333-11.249-0.71c-1.522,0.156-1.734,0.788-3.667,0.915l1.312-0.041l0.209,1.55
		c1.61-0.327,3.136-0.172,4.924-0.204l-8.272,1.809c2.667,1.451,10.798,0.599,14.043,1.202
		C173.191,25.533,180.424,26.187,172.577,25.121z"/>
	<linearGradient id="SVGID_3_" gradientUnits="userSpaceOnUse" x1="164.7983" y1="22.5205" x2="165.001" y2="22.5205">
		<stop  offset="0" style="stop-color:#009EE2"/>
		<stop  offset="1" style="stop-color:#1D70B7"/>
	</linearGradient>
	<path fill="url(#SVGID_3_)" d="M165.001,22.519l-0.203,0.004L165.001,22.519z"/>
	<linearGradient id="SVGID_4_" gradientUnits="userSpaceOnUse" x1="407.4219" y1="331.3223" x2="435.1865" y2="331.3223">
		<stop  offset="0" style="stop-color:#009EE2"/>
		<stop  offset="1" style="stop-color:#1D70B7"/>
	</linearGradient>
	<path fill="url(#SVGID_4_)" d="M416.584,331.756c-1.759,0.027-2.276,0.394-2.533,0.579l21.136-0.031
		c-1.015-0.405-8.224-0.91-3.438-1.151c-0.524-0.114-1.376-0.174-2.207-0.193c-0.736-0.018-1.567,0.005-2.365,0.06
		c-1.604,0.107-3.086,0.343-3.458,0.617l1.433-0.62c-4.563,0.793-7.679-0.77-4.703-1.236l-0.387,0.008l-12.639,3.061
		C412.065,333.024,410.998,331.793,416.584,331.756z"/>
	<linearGradient id="SVGID_5_" gradientUnits="userSpaceOnUse" x1="164.5708" y1="484.7227" x2="167.2495" y2="484.7227">
		<stop  offset="0" style="stop-color:#009EE2"/>
		<stop  offset="1" style="stop-color:#1D70B7"/>
	</linearGradient>
	<path fill="url(#SVGID_5_)" d="M164.571,484.942c2.565-0.142,2.881-0.29,2.59-0.439
		C166.242,484.616,165.369,484.748,164.571,484.942z"/>
	<linearGradient id="SVGID_6_" gradientUnits="userSpaceOnUse" x1="400.5117" y1="334.042" x2="404.4707" y2="334.042">
		<stop  offset="0" style="stop-color:#009EE2"/>
		<stop  offset="1" style="stop-color:#1D70B7"/>
	</linearGradient>
	<path fill="url(#SVGID_6_)" d="M404.471,333.563l-3.959,0.959C402.098,334.264,403.488,333.92,404.471,333.563z"/>
	<linearGradient id="SVGID_7_" gradientUnits="userSpaceOnUse" x1="429.876" y1="319.0801" x2="430.7061" y2="319.0801">
		<stop  offset="0" style="stop-color:#009EE2"/>
		<stop  offset="1" style="stop-color:#1D70B7"/>
	</linearGradient>
	<path fill="url(#SVGID_7_)" d="M430.706,319.001c-0.005-0.052,0.007-0.096-0.05-0.166c-0.242,0.164-0.5,0.326-0.78,0.49h0.021
		C430.208,319.217,430.471,319.107,430.706,319.001z"/>
	<linearGradient id="SVGID_8_" gradientUnits="userSpaceOnUse" x1="313.3037" y1="337.1953" x2="314.6055" y2="337.1953">
		<stop  offset="0" style="stop-color:#009EE2"/>
		<stop  offset="1" style="stop-color:#1D70B7"/>
	</linearGradient>
	<path fill="url(#SVGID_8_)" d="M314.605,337.162l-1.302,0.066C313.779,337.22,314.205,337.195,314.605,337.162z"/>
	<linearGradient id="SVGID_9_" gradientUnits="userSpaceOnUse" x1="431.2695" y1="297.2998" x2="434.874" y2="297.2998">
		<stop  offset="0" style="stop-color:#009EE2"/>
		<stop  offset="1" style="stop-color:#1D70B7"/>
	</linearGradient>
	<path fill="url(#SVGID_9_)" d="M431.27,286.941l0.923,8.806c-0.437-1.173-0.305,3.073-0.813,1.219
		c0.066,0.67,0.241,3.815,0.464,2.959l-0.027-1.796c1.271,4.644,1.759,1.83,2.728,9.529c0.753-4.78,0.063-6.877-0.515-9.406
		c-0.089-0.858-0.128-1.577-0.177-2.306l-1.773-7.32L431.27,286.941z"/>
	<linearGradient id="SVGID_10_" gradientUnits="userSpaceOnUse" x1="283.7383" y1="477.6777" x2="283.7695" y2="477.6777">
		<stop  offset="0" style="stop-color:#009EE2"/>
		<stop  offset="1" style="stop-color:#1D70B7"/>
	</linearGradient>
	<path fill="url(#SVGID_10_)" d="M283.77,477.727l-0.012-0.097C283.724,477.664,283.737,477.698,283.77,477.727z"/>
	<linearGradient id="SVGID_11_" gradientUnits="userSpaceOnUse" x1="283.6914" y1="477.4268" x2="284.334" y2="477.4268">
		<stop  offset="0" style="stop-color:#009EE2"/>
		<stop  offset="1" style="stop-color:#1D70B7"/>
	</linearGradient>
	<path fill="url(#SVGID_11_)" d="M283.691,477.224l0.066,0.406C283.939,477.427,284.996,477.23,283.691,477.224z"/>
	<linearGradient id="SVGID_12_" gradientUnits="userSpaceOnUse" x1="404.4707" y1="333.1523" x2="407.4219" y2="333.1523">
		<stop  offset="0" style="stop-color:#009EE2"/>
		<stop  offset="1" style="stop-color:#1D70B7"/>
	</linearGradient>
	<path fill="url(#SVGID_12_)" d="M405.924,332.742c-0.12,0.236-0.626,0.525-1.453,0.82l2.951-0.715
		C407.003,332.833,406.449,332.782,405.924,332.742z"/>
	<linearGradient id="SVGID_13_" gradientUnits="userSpaceOnUse" x1="412.6426" y1="329.5469" x2="422.7949" y2="329.5469">
		<stop  offset="0" style="stop-color:#009EE2"/>
		<stop  offset="1" style="stop-color:#1D70B7"/>
	</linearGradient>
	<path fill="url(#SVGID_13_)" d="M412.643,329.966l7.418-0.179l2.734-0.66C419.957,329.375,416.638,329.546,412.643,329.966z"/>
	<linearGradient id="SVGID_14_" gradientUnits="userSpaceOnUse" x1="301.9922" y1="337.2793" x2="400.5117" y2="337.2793">
		<stop  offset="0" style="stop-color:#009EE2"/>
		<stop  offset="1" style="stop-color:#1D70B7"/>
	</linearGradient>
	<path fill="url(#SVGID_14_)" d="M326.321,337.908c-15.366,0.196,3.774-1.494-3.288-1.854c-4.263,0.175-5.771,0.886-8.428,1.108
		c12.185-0.607-1.653,2.336,10.637,1.961c-1.747,1.283-8.863,1.4-13.035,1.052c-4.718-1.238,4.126-0.905,5.197-2.119
		c-4.935,0.201-4.066,0.427-6.157,1.118c-0.969-0.036-1.944-0.039-2.921-0.021l-1.465,0.042l-0.73,0.033l-0.347,0.018l-0.083,0.018
		c-0.443,0.103-0.826,0.248-1.155,0.348c-0.685,0.201-1.104,0.226-2.509-0.632l-0.045,0.01c0.278,1.567,0.861,1.9,1.504,2.732
		c1.035,0.51,0.879-0.096,1.256,0.029c0.17,0.107,0.351,0.253,0.56,0.483c-0.107-0.111-0.358-0.336-0.518-0.522
		c0.198,0.093,0.368,0.187,0.506,0.279c-0.258-0.23-0.553-0.563-0.634-0.849c-0.093-0.287,0.05-0.528,0.212-0.579
		c0.242-0.027,0.771-0.088,0.728,0.279c-0.105,0.094-0.195,0.189-0.265,0.284c0.12,0.104,0.201,0.099,0.297,0.037
		c0.047-0.029,0.096-0.071,0.149-0.12l1.444-0.152c1.946-0.205,3.92-0.37,5.756-0.014c0.195,0.299-1.198,0.437-1.408,0.623
		c4.123-0.903,8.102-0.854,14.207-1.491l-3.54,1.313c4.885-1.454,15.941-1.04,23.607-0.274c-0.852-0.221-2.38-0.378-1.462-0.632
		c4.501-0.313,7.9,0.588,5.816,1.279c4.396-1.089,16.755,0.916,22.75-0.498l27.554-6.676c-1.032,0.168-2.136,0.304-3.278,0.359
		c-2.503-1.15-3.852-1.012,0.536-2.099c-4.31,0.61-2.659,1.537-9.137,1.586c2.539-0.581,3.182-1.903-3.02-2.042
		c-15.505,1.152-25.782,4.43-40.261,6.105c-0.536-0.889-11.905-0.641-17.428-0.848c2.107-0.954,6.208-1.226,10.465-1.419
		l-10.681-0.128L326.321,337.908z"/>
	<linearGradient id="SVGID_15_" gradientUnits="userSpaceOnUse" x1="361.123" y1="334.8398" x2="362.3223" y2="334.8398">
		<stop  offset="0" style="stop-color:#009EE2"/>
		<stop  offset="1" style="stop-color:#1D70B7"/>
	</linearGradient>
	<path fill="url(#SVGID_15_)" d="M362.322,334.923c-0.387-0.078-0.787-0.124-1.199-0.166
		C361.341,334.832,361.697,334.889,362.322,334.923z"/>
	<linearGradient id="SVGID_16_" gradientUnits="userSpaceOnUse" x1="338.3896" y1="336.1436" x2="339.7412" y2="336.1436">
		<stop  offset="0" style="stop-color:#009EE2"/>
		<stop  offset="1" style="stop-color:#1D70B7"/>
	</linearGradient>
	<path fill="url(#SVGID_16_)" d="M339.688,336.191c0.054-0.031,0.033-0.059,0.054-0.096l-1.352,0.069L339.688,336.191z"/>
	<linearGradient id="SVGID_17_" gradientUnits="userSpaceOnUse" x1="402.1113" y1="330.4453" x2="404.8105" y2="330.4453">
		<stop  offset="0" style="stop-color:#009EE2"/>
		<stop  offset="1" style="stop-color:#1D70B7"/>
	</linearGradient>
	<path fill="url(#SVGID_17_)" d="M402.293,330.735c0.918-0.252,1.6-0.323,2.518-0.58c-0.567,0.088-1.276,0.156-1.961,0.234
		C402.197,330.508,401.889,330.628,402.293,330.735z"/>
	<linearGradient id="SVGID_18_" gradientUnits="userSpaceOnUse" x1="404.9004" y1="332.5205" x2="405.96" y2="332.5205">
		<stop  offset="0" style="stop-color:#009EE2"/>
		<stop  offset="1" style="stop-color:#1D70B7"/>
	</linearGradient>
	<path fill="url(#SVGID_18_)" d="M405.394,332.299l-0.493,0.365l1.023,0.078C406.031,332.546,405.914,332.38,405.394,332.299z"/>
	<linearGradient id="SVGID_19_" gradientUnits="userSpaceOnUse" x1="292.8779" y1="350.8809" x2="293.0693" y2="350.8809">
		<stop  offset="0" style="stop-color:#009EE2"/>
		<stop  offset="1" style="stop-color:#1D70B7"/>
	</linearGradient>
	<path fill="url(#SVGID_19_)" d="M292.878,350.144l0.191,1.474C293.057,350.729,292.978,350.347,292.878,350.144z"/>
	<linearGradient id="SVGID_20_" gradientUnits="userSpaceOnUse" x1="302.4609" y1="334.6729" x2="362.083" y2="334.6729">
		<stop  offset="0" style="stop-color:#009EE2"/>
		<stop  offset="1" style="stop-color:#1D70B7"/>
	</linearGradient>
	<path fill="url(#SVGID_20_)" d="M309.202,336.399c5.347-0.086,0.64-1.324,8.202-1.332l-2.222-0.081
		c5.425-0.566,14.957-0.306,21.401-0.354c-0.727,0.531,3.908,0.643,3.157,1.464c4.402-0.193,8.765-0.373,11.035-1.222
		c2.73,0.279,6.874-0.466,10.347-0.117c-1.465-0.496,4.938-1.678-3.505-1.07c0.682-0.068,0.253-0.182,0.927-0.25
		c-5.438-0.693-7.619,0.48-12.306,0.496c-2.802-0.489,4.579-0.792,1.938-0.986c-5.854,0.456-18.36-0.589-17.974,1.253
		c-4.262,0.131-4.847-0.276-6.116-0.612c-3.369,0.98-9.619,0.77-15.02,0.628l-3.589-0.074c-0.663-0.008-1.271,0.01-1.756,0.069
		c-0.986,0.12-1.47,0.416-1.178,1.042l2.234-0.127l0.664-0.06l0.344-0.042l0.685-0.051c0.922-0.069,1.848-0.167,2.752-0.303
		L309.202,336.399z"/>
	<linearGradient id="SVGID_21_" gradientUnits="userSpaceOnUse" x1="392.2783" y1="330.8516" x2="393.3184" y2="330.8516">
		<stop  offset="0" style="stop-color:#009EE2"/>
		<stop  offset="1" style="stop-color:#1D70B7"/>
	</linearGradient>
	<path fill="url(#SVGID_21_)" d="M393.318,330.864c-0.331-0.011-0.771-0.001-1.04-0.025L393.318,330.864z"/>
	<linearGradient id="SVGID_22_" gradientUnits="userSpaceOnUse" x1="395.4658" y1="325.8379" x2="457.6826" y2="325.8379">
		<stop  offset="0" style="stop-color:#009EE2"/>
		<stop  offset="1" style="stop-color:#1D70B7"/>
	</linearGradient>
	<path fill="url(#SVGID_22_)" d="M455.88,311.74c0.14,0.131,0.274,0.474,0.412,0.805l0.407,0.989l0.824,2.064
		c0.174,10.207,0.18,17.622,0.138,24.318c-8.561-0.052-16.141-0.181-27.307-0.143c-1.528-0.225,0.894-0.369,2.093-0.44
		l-14.604,0.088c-4.617,0.032-8.968,0.135-11.812,0.513c-2.491-0.015-9.024-0.534-6.549-1.019c-1.212,0.146-2.596,0.287-3.989,0.235
		c-0.37-0.59,3.116-0.169,3.196-0.654c-1.104-0.039-1.533-0.152-1.788,0.032c1.857-0.505-1.926-2,6.735-1.962
		c3.356,1.378-6.009,0.159-4.026,1.68c2.874,0.01,2.54-0.577,2.784-0.764c3.661,0.035,3.565,0.417,3.37,0.764
		c1.405-0.472,6.01,0.185,7.949-0.532c7.119-0.117-0.39,1.143,4.264,1.125l2.679-1.539l7.736,0.289
		c1.079-0.068,3.25-0.16,4.371-0.272c1.212-0.108,1.95-0.24,2.387-0.385c0.865-0.288,0.524-0.631,0.287-0.983
		c-0.518-0.705-0.472-1.455,8.436-1.89c-1.501,0.62,3.047,1.567,10.042,2.112c0.164-1.723,0.29-3.706,0.361-5.816
		c0.019,1.71,0.12,3.922,0.242,6.42c-5.218,0.284-11.997,0.682-17.4,0.362c5.541,0.604,1.92,0.638-2.497,0.697l-3.287,0.057
		l-1.491,0.047c-0.389,0.021-0.556,0.044-0.801,0.073c-0.868,0.113-1.199,0.306-0.359,0.65l0.625-0.116
		c0.203-0.036,0.409-0.071,0.87-0.103l2.482-0.167c1.728-0.096,3.576-0.155,5.48-0.187c3.807-0.059,7.835,0.007,11.528,0.184
		l-2.234,0.143c3.113,0.066,5.721-0.157,8.322-0.406c-0.37-4.629-0.796-9.219-0.431-15.086c-0.049-5.056,0.388-4.019,0.745-2.993
		l-0.309-5.843c-0.032-0.76-0.042-1.383-0.027-1.817C455.753,311.782,455.795,311.785,455.88,311.74z M456.202,322.966l-0.152,6.888
		C456.307,328.376,456.295,325.729,456.202,322.966z"/>
	<linearGradient id="SVGID_23_" gradientUnits="userSpaceOnUse" x1="228.2085" y1="24.8579" x2="229.4424" y2="24.8579">
		<stop  offset="0" style="stop-color:#009EE2"/>
		<stop  offset="1" style="stop-color:#1D70B7"/>
	</linearGradient>
	<path fill="url(#SVGID_23_)" d="M229.442,24.92l-1.234-0.124C228.478,24.867,228.946,24.899,229.442,24.92z"/>
	<linearGradient id="SVGID_24_" gradientUnits="userSpaceOnUse" x1="431.4902" y1="180.2324" x2="432.668" y2="180.2324">
		<stop  offset="0" style="stop-color:#009EE2"/>
		<stop  offset="1" style="stop-color:#1D70B7"/>
	</linearGradient>
	<path fill="url(#SVGID_24_)" d="M432.668,180.257l-1.178-0.052C431.944,180.258,432.319,180.265,432.668,180.257z"/>
	<linearGradient id="SVGID_25_" gradientUnits="userSpaceOnUse" x1="379.2744" y1="185.5205" x2="382.7158" y2="185.5205">
		<stop  offset="0" style="stop-color:#009EE2"/>
		<stop  offset="1" style="stop-color:#1D70B7"/>
	</linearGradient>
	<path fill="url(#SVGID_25_)" d="M382.716,185.341l-3.441,0.359C380.634,185.677,381.696,185.535,382.716,185.341z"/>
	<linearGradient id="SVGID_26_" gradientUnits="userSpaceOnUse" x1="257.5234" y1="24.9966" x2="258.1836" y2="24.9966">
		<stop  offset="0" style="stop-color:#009EE2"/>
		<stop  offset="1" style="stop-color:#1D70B7"/>
	</linearGradient>
	<polygon fill="url(#SVGID_26_)" points="257.523,25.027 257.641,25.038 258.184,24.956 	"/>
	<linearGradient id="SVGID_27_" gradientUnits="userSpaceOnUse" x1="281.2656" y1="158.5151" x2="281.6045" y2="158.5151">
		<stop  offset="0" style="stop-color:#009EE2"/>
		<stop  offset="1" style="stop-color:#1D70B7"/>
	</linearGradient>
	<path fill="url(#SVGID_27_)" d="M281.266,159.989c0.13-0.804,0.248-1.882,0.339-2.947
		C281.452,156.994,281.344,158.268,281.266,159.989z"/>
	<linearGradient id="SVGID_28_" gradientUnits="userSpaceOnUse" x1="382.7158" y1="185.293" x2="383.3496" y2="185.293">
		<stop  offset="0" style="stop-color:#009EE2"/>
		<stop  offset="1" style="stop-color:#1D70B7"/>
	</linearGradient>
	<polygon fill="url(#SVGID_28_)" points="383.35,185.273 383.141,185.245 382.716,185.341 	"/>
	<linearGradient id="SVGID_29_" gradientUnits="userSpaceOnUse" x1="433.001" y1="187.8457" x2="433.1533" y2="187.8457">
		<stop  offset="0" style="stop-color:#009EE2"/>
		<stop  offset="1" style="stop-color:#1D70B7"/>
	</linearGradient>
	<path fill="url(#SVGID_29_)" d="M433.001,187.686c0.05,0.103,0.086,0.201,0.152,0.32
		C433.126,187.848,433.068,187.755,433.001,187.686z"/>
	<linearGradient id="SVGID_30_" gradientUnits="userSpaceOnUse" x1="437.3633" y1="185.9063" x2="437.5195" y2="185.9063">
		<stop  offset="0" style="stop-color:#009EE2"/>
		<stop  offset="1" style="stop-color:#1D70B7"/>
	</linearGradient>
	<path fill="url(#SVGID_30_)" d="M437.363,185.56c0.039,0.257,0.09,0.504,0.156,0.693L437.363,185.56z"/>
	<linearGradient id="SVGID_31_" gradientUnits="userSpaceOnUse" x1="434.373" y1="266.0684" x2="434.5938" y2="266.0684">
		<stop  offset="0" style="stop-color:#009EE2"/>
		<stop  offset="1" style="stop-color:#1D70B7"/>
	</linearGradient>
	<path fill="url(#SVGID_31_)" d="M434.373,264.482l0.221,3.172C434.568,266.097,434.483,265.166,434.373,264.482z"/>
	<linearGradient id="SVGID_32_" gradientUnits="userSpaceOnUse" x1="436.3555" y1="191.6587" x2="436.5654" y2="191.6587">
		<stop  offset="0" style="stop-color:#009EE2"/>
		<stop  offset="1" style="stop-color:#1D70B7"/>
	</linearGradient>
	<path fill="url(#SVGID_32_)" d="M436.355,191.438c0.072,0.184,0.144,0.368,0.21,0.492
		C436.52,191.491,436.428,191.283,436.355,191.438z"/>
	<linearGradient id="SVGID_33_" gradientUnits="userSpaceOnUse" x1="209.2949" y1="20.2402" x2="209.5674" y2="20.2402">
		<stop  offset="0" style="stop-color:#009EE2"/>
		<stop  offset="1" style="stop-color:#1D70B7"/>
	</linearGradient>
	<polygon fill="url(#SVGID_33_)" points="209.295,20.333 209.486,20.327 209.567,20.147 	"/>
	<linearGradient id="SVGID_34_" gradientUnits="userSpaceOnUse" x1="198.8022" y1="22.6377" x2="201.5864" y2="22.6377">
		<stop  offset="0" style="stop-color:#009EE2"/>
		<stop  offset="1" style="stop-color:#1D70B7"/>
	</linearGradient>
	<path fill="url(#SVGID_34_)" d="M201.586,22.574l-2.784,0.127C199.834,22.71,200.842,22.662,201.586,22.574z"/>
	<linearGradient id="SVGID_35_" gradientUnits="userSpaceOnUse" x1="283.6514" y1="111.4561" x2="284.4863" y2="111.4561">
		<stop  offset="0" style="stop-color:#009EE2"/>
		<stop  offset="1" style="stop-color:#1D70B7"/>
	</linearGradient>
	<path fill="url(#SVGID_35_)" d="M283.742,112.903c0.222-0.839,0.488-2.809,0.744-1.889
		C284.164,109.407,283.387,109.514,283.742,112.903z"/>
	<linearGradient id="SVGID_36_" gradientUnits="userSpaceOnUse" x1="296.2988" y1="134.7441" x2="296.5283" y2="134.7441">
		<stop  offset="0" style="stop-color:#009EE2"/>
		<stop  offset="1" style="stop-color:#1D70B7"/>
	</linearGradient>
	<path fill="url(#SVGID_36_)" d="M296.518,134.259c-0.105,0.208-0.191,0.531-0.219,0.97
		C296.508,135.101,296.553,134.751,296.518,134.259z"/>
	<linearGradient id="SVGID_37_" gradientUnits="userSpaceOnUse" x1="183.5903" y1="24.9385" x2="208.8477" y2="24.9385">
		<stop  offset="0" style="stop-color:#009EE2"/>
		<stop  offset="1" style="stop-color:#1D70B7"/>
	</linearGradient>
	<path fill="url(#SVGID_37_)" d="M196.549,22.455c-0.5,0.366-12.61,1.164-2.422,1.352c-0.394,1.142-6.537,0.529-9.255,0.811
		c1.976,0.269-0.979,0.735-0.38,1.142c1.345-0.138,2.948-0.466,5.176-0.384c1.021,0.521-2.356,0.876-4.995,0.681
		c3.249,0.603-4.125,0.905,0.475,1.367c9.837-0.402,16.786-0.818,23.699-2.487c-5.604,0.275-11.876,0.616-16.473,0.156l1.933-0.987
		c5.197,0.869,8.403,0.22,13.515,0.312l-11.482-0.525c-5.377-0.822-1.781-1.011,2.462-1.19
		C197.759,22.689,196.815,22.629,196.549,22.455z"/>
	<linearGradient id="SVGID_38_" gradientUnits="userSpaceOnUse" x1="433.0039" y1="233.0322" x2="433.1387" y2="233.0322">
		<stop  offset="0" style="stop-color:#009EE2"/>
		<stop  offset="1" style="stop-color:#1D70B7"/>
	</linearGradient>
	<path fill="url(#SVGID_38_)" d="M433.139,232.802c-0.046,0.045-0.088,0.059-0.135,0.166
		C433.061,233.492,433.107,233.238,433.139,232.802z"/>
	<linearGradient id="SVGID_39_" gradientUnits="userSpaceOnUse" x1="392.5127" y1="167.1904" x2="393.5635" y2="167.1904">
		<stop  offset="0" style="stop-color:#009EE2"/>
		<stop  offset="1" style="stop-color:#1D70B7"/>
	</linearGradient>
	<path fill="url(#SVGID_39_)" d="M392.513,167.023c0,0,0.376,0.17,0.968,0.333C393.711,167.265,393.48,167.158,392.513,167.023z"/>
	<linearGradient id="SVGID_40_" gradientUnits="userSpaceOnUse" x1="416.0664" y1="168.5396" x2="416.4951" y2="168.5396">
		<stop  offset="0" style="stop-color:#009EE2"/>
		<stop  offset="1" style="stop-color:#1D70B7"/>
	</linearGradient>
	<path fill="url(#SVGID_40_)" d="M416.066,168.484l0.429,0.11L416.066,168.484z"/>
	<linearGradient id="SVGID_41_" gradientUnits="userSpaceOnUse" x1="279.2891" y1="119.8633" x2="279.3604" y2="119.8633">
		<stop  offset="0" style="stop-color:#009EE2"/>
		<stop  offset="1" style="stop-color:#1D70B7"/>
	</linearGradient>
	<path fill="url(#SVGID_41_)" d="M279.293,118.475c-0.015,1.165,0.01,2.04,0.054,2.778
		C279.371,120.401,279.367,119.482,279.293,118.475z"/>
	<linearGradient id="SVGID_42_" gradientUnits="userSpaceOnUse" x1="356.6006" y1="171.9351" x2="357.3242" y2="171.9351">
		<stop  offset="0" style="stop-color:#009EE2"/>
		<stop  offset="1" style="stop-color:#1D70B7"/>
	</linearGradient>
	<polygon fill="url(#SVGID_42_)" points="356.601,172.014 357.324,171.906 356.895,171.856 	"/>
	<linearGradient id="SVGID_43_" gradientUnits="userSpaceOnUse" x1="331.7559" y1="172.2324" x2="360.9287" y2="172.2324">
		<stop  offset="0" style="stop-color:#009EE2"/>
		<stop  offset="1" style="stop-color:#1D70B7"/>
	</linearGradient>
	<path fill="url(#SVGID_43_)" d="M344.311,171.288c0.422-0.112,0.613-0.229,0.847-0.33c-4.387,0.411-12.446-0.036-13.401,1.015
		c1.49-0.025,9.209,0.592,7.893,1.207c3.058-0.262,7.578,0.474,9.227,0.302c-5.022-0.574-0.542-0.887,2.846-1.239
		c3.081,0.305-0.579,0.844,2.075,1.038l7.133-0.114l-6.215-0.14l1.887-1.011l-0.631,0.096
		C345.459,172.582,355.076,170.631,344.311,171.288z"/>
	<linearGradient id="SVGID_44_" gradientUnits="userSpaceOnUse" x1="345.1572" y1="170.833" x2="346.8418" y2="170.833">
		<stop  offset="0" style="stop-color:#009EE2"/>
		<stop  offset="1" style="stop-color:#1D70B7"/>
	</linearGradient>
	<path fill="url(#SVGID_44_)" d="M345.157,170.958c0.655-0.064,1.235-0.142,1.685-0.249
		C345.849,170.725,345.466,170.828,345.157,170.958z"/>
	<linearGradient id="SVGID_45_" gradientUnits="userSpaceOnUse" x1="301.4775" y1="169.3701" x2="302.9912" y2="169.3701">
		<stop  offset="0" style="stop-color:#009EE2"/>
		<stop  offset="1" style="stop-color:#1D70B7"/>
	</linearGradient>
	<path fill="url(#SVGID_45_)" d="M302.991,169.29c-0.432,0.034-0.903,0.082-1.514,0.16L302.991,169.29z"/>
	<linearGradient id="SVGID_46_" gradientUnits="userSpaceOnUse" x1="428.0664" y1="329.4951" x2="434.8877" y2="329.4951">
		<stop  offset="0" style="stop-color:#009EE2"/>
		<stop  offset="1" style="stop-color:#1D70B7"/>
	</linearGradient>
	<path fill="url(#SVGID_46_)" d="M428.066,329.294c0.113,0.149,1.572,0.377,3.454,0.471c1.797,0.094,3.544,0.052,3.353-0.338
		l-6.094-0.243L428.066,329.294z"/>
	<linearGradient id="SVGID_47_" gradientUnits="userSpaceOnUse" x1="289.1719" y1="68.7192" x2="289.3418" y2="68.7192">
		<stop  offset="0" style="stop-color:#009EE2"/>
		<stop  offset="1" style="stop-color:#1D70B7"/>
	</linearGradient>
	<path fill="url(#SVGID_47_)" d="M289.196,67.495c-0.021,0.682-0.032,1.365-0.018,2.05c0.039,0.147,0.081,0.29,0.12,0.398
		C289.412,69.526,289.271,68.177,289.196,67.495z"/>
	<linearGradient id="SVGID_48_" gradientUnits="userSpaceOnUse" x1="337.7539" y1="173.3623" x2="339.6484" y2="173.3623">
		<stop  offset="0" style="stop-color:#009EE2"/>
		<stop  offset="1" style="stop-color:#1D70B7"/>
	</linearGradient>
	<path fill="url(#SVGID_48_)" d="M337.754,173.545c1.124-0.12,1.626-0.242,1.895-0.366
		C338.922,173.242,338.25,173.341,337.754,173.545z"/>
	<linearGradient id="SVGID_49_" gradientUnits="userSpaceOnUse" x1="291.0449" y1="63.5264" x2="291.9033" y2="63.5264">
		<stop  offset="0" style="stop-color:#009EE2"/>
		<stop  offset="1" style="stop-color:#1D70B7"/>
	</linearGradient>
	<path fill="url(#SVGID_49_)" d="M291.045,67.109c0.224-0.869,0.56-2.149,0.858-2.331c0.006-1.777-0.401-3.026-0.547-4.835
		C291.47,61.985,291.392,64.349,291.045,67.109z"/>
	<linearGradient id="SVGID_50_" gradientUnits="userSpaceOnUse" x1="291.3438" y1="59.8701" x2="291.3564" y2="59.8701">
		<stop  offset="0" style="stop-color:#009EE2"/>
		<stop  offset="1" style="stop-color:#1D70B7"/>
	</linearGradient>
	<path fill="url(#SVGID_50_)" d="M291.344,59.797l0.013,0.147L291.344,59.797z"/>
	<linearGradient id="SVGID_51_" gradientUnits="userSpaceOnUse" x1="135.6294" y1="246.8428" x2="456.4268" y2="246.8428">
		<stop  offset="0" style="stop-color:#009EE2"/>
		<stop  offset="1" style="stop-color:#1D70B7"/>
	</linearGradient>
	<path fill="url(#SVGID_51_)" d="M424.424,328.965l-1.629,0.162l0.849-0.209l-4.211-0.234c-0.511,0.051-1.061,0.096-1.739,0.124
		c0.274-0.028,0.487-0.109,0.618-0.195l-1.352-0.089c-3.354,0.803-11.703,1.393-14.11,1.866c-3.186,0.344-7.088,0.538-9.531,0.475
		c2.267,0.019,5.275-0.146,4.373-0.589c-4.604-0.465-6.842-1.799-14.784-0.652l4.658-0.016l-10.476,1.725
		c-3.672-0.714,5.229-0.861,6.682-1.483c-8.146,0.853-14.926-1.421-18.699,0.073c-0.532-0.886-1.426-2.365-6.772-2.278
		c3.852,1.012-3.206,0.649-0.042,1.731c-1.849,0.508-5.966-0.319-6.271,0.346l0.5-0.368c-9.132-1.403-12.117,0.797-16.022,1.519
		c-10.933,0.362-15.952-0.213-24.866-0.062c-0.33-0.596-2.823-2.228-6.311-2.166c-1.575,0.803-8.301,1.176-8.095,2.205
		c5.141,0.43,3.636-0.861,6.87-1.104c2.834,1.077-0.014,1.066,4.328,1.714c-0.391-0.048-0.884-0.077-1.461-0.093l-1.753-0.018
		l-3.597,0.081c-2.561,0.067-5.189,0.12-7.285-0.14c-0.071,0.432-0.164,0.777-0.284,1.021l-0.146-1.178
		c-0.305,2.057-1.097,2.972-1.617,4.774c-0.26,0.893-0.451,2.004-0.481,3.497c-0.033,1.521,0.096,3.219,0.481,5.858l0.631,4.881
		c-0.102-0.237-0.222-0.263-0.314-0.39c-0.107,7.992-1.282,5.811-0.355,14.632c-0.071-0.682-0.185-0.255-0.255-0.945
		c-0.579,5.026,0.584,10.099,0.826,13.899c-0.858,2.319-0.844-0.552-1.465-1.987c-0.333,8.846,1.142,18.392,2.188,23.885
		L293,404.939c-0.355-3.382-1.261-7.514-1.781-6.482c0.173,3.137,0.577,2.529,0.415,6.964c-0.55-0.758-1.062-2.617-1.752-4.703
		c-0.919,9.173,1.946,2.051,0.263,8.471c-0.012,2.88,0.79,4.555,1.453,4.871l-0.869,5.22c0.845,0.579,0.894,7.023,1.022,11.247
		c0.361,0.516,0.9-3.399,0.57-5.001c0.667,0.315,0.979,4.808,0.966,7.699c-1.771,1.058,0.255,18.92-1.83,15.505
		c0.226,5.153,0.393,11.134,0.557,17.012c0.162,6.287,0.326,12.987,0.542,18.556c-2.692,0.113-5.102,0.241-7.069,0.394
		c-3.618-0.489-9.958-0.514-6.331-1.347c-1.409-0.001-2.729,0.028-3.995,0.075c-1.199,0.049-2.284,0.117-3.358,0.198
		c-2.137,0.162-4.115,0.374-6.091,0.57c-3.948,0.393-7.889,0.728-13.076,0.485c-0.858-0.224,4.69-0.018,4.321-0.61
		c-6.779,0.713-12.335-0.747-22.852-0.272c1.766-0.032,2.285-0.397,2.529-0.582c0.185,0.292-4.31,0.608-7.03,0.893
		c-1.529-0.151,2.036-0.211,1.181-0.438c-20.318-0.858-35.798,1.55-56.01,1.469c5.771,0.024,7.953-1.15,8.017-1.631l-5.654-0.021
		c-2.178,0.584-6.424,0.584-9.975,1.024c-0.436-0.223-2.16-0.458-0.401-0.737c-11.166-1.186-17.445,2.146-31.13,1.535l16.573-2.367
		l-4.101-0.826l7.286-1.073c-4.349-0.649-8.137,0.852-8.659-0.039c0.918-0.252,3.135-0.171,3.203-0.652
		c-4.179-0.349-4.505,0.314-7.647,0.488c8.275-1.81,24.504-1.78,33.237-2.223c1.373-0.146-1.177,0.435-1.422,0.618
		c3.565-0.059,5.704,0.506,10.188,0.189c2.788-0.764-2.125-0.56-4.334-0.643c0.305-0.663,1.415-0.623,3.88-0.724
		c0.532,0.888,13.515,0.314,16.686,1.397c13.157-0.279-2.104-2.298,10.738-1.912l3.838,1.016c7.452-0.785,17.097-1.479,25.533-1.264
		l-1.777,0.032c-1.185,0.434,0.773,0.703,1.639,0.922c6.375,0.437,12.104-0.795,15.967,0.221c3.636-0.54,8.484-1.011,13.462-1.415
		c2.365-0.201,5.44-0.388,6.559-0.558l4.051-0.461c2.163,1.337-5.839,1.133-10.67,1.968l6.909-0.003l-1.191,0.029l-1.184,0.071
		c-0.877,0.063-1.633,0.152-2.332,0.263c-1.396,0.226-2.561,0.544-3.962,0.925c1.656,0.061,3.037,0.036,4.275-0.045
		c0.616-0.041,1.199-0.093,1.759-0.158l0.83-0.099l0.642-0.11c1.695-0.305,3.196-0.68,5.406-0.85
		c-0.177,0.364,0.567,0.589,2.831,0.595c-0.012-0.295-0.032-0.59-0.071-0.888c0.096,0.075,0.38,0.144,1.079,0.198l1.247-0.091
		l-0.454-6.933c-0.38,1.491-1.151,1.099-1.163,2.863c0.496-0.272,0.613,1.25,0.606,3.062h-0.219c0.057-0.032,0.103-0.06,0.13-0.089
		c-0.147-0.483-0.248-0.5-0.326-0.326c-0.727-0.17-2.174-0.24-2.39-0.554l1.836-0.001c-0.021-3.034-0.138-6.321-0.341-8.132
		c0.274-0.206,0.547-0.431,0.82-0.677l0.032-0.834l0.018-1.044l0.003-2.081l-0.071-4.057c-0.057-2.618-0.113-5.014,0.009-6.888
		l0.433,1.182c0.252-6.63-0.277-13.157,0.521-19.044c-0.933-5.912-1.713-13.356-2.691-18.191c-1.055-2.583,1.326-17.35-0.157-24.019
		c0.11-0.447,0.792,4.581,1.192,6.855c0.164-4.436-1.148-7.962-0.039-9.351c-0.373,9.952,0.886-0.534,1.202,3.947
		c-0.021-4.658-0.221-9.571-0.616-11.857c0.007,7.542-1.536-2.679-1.055,4.957c-0.933-5.915-1.305-13.989-0.942-21.037
		c0.479,0.067,0.702-0.8,0.9-3.427l-0.694-2.123c0.126-3.298,0.822,6.379,1.07-0.259c-0.595-3.419-0.427-8.563-0.383-13.226
		l-0.008-3.373l-0.046-2.088l-0.092-2.108c-0.152-2.687-0.446-4.885-1-6.269c0.436-3.765,0.655,0.15,0.9,3.361
		c0.245,3.271,0.515,5.779,1.047,0.365c0.198,1.661,0.29,3.402,0.333,5.144l0.043,4.021c0.01,2.331,0.056,4.281,0.605,5.034
		c-0.312-4.475,0.93-1.634,0.941-4.521c-0.228-1.73-0.451-3.074-0.679-5.527l-0.042,1.46c-0.505-5.44-0.646-12.783-0.678-20.401
		l12.164,0.002l6.013-0.002l5.026-0.037c9.059-1.106,15.296-2.707,26.16-2.587c-3.206,0.649,9.024,0.627,2.186,1.814
		c5.026,0.572,9.991-0.104,10.092-0.584c-4.428-0.164-1.558-0.152-5.283-0.39c2.516-0.581,8.313-0.555,10.696-0.175
		c-1.106-0.043-0.685,0.069-0.93,0.249c5.281,0.394,2.532-0.577,6.349-0.819c1.211,0.813,8.429,0.22,11.916,0.64l5.054-1.16
		c-2.775,0.763,4.844,0.277,5.642,0.979c3.625-0.537,6.66-1.483,12.184-1.277c-2.281,0.399,5.035,0.576,5.131,1.351
		c9.452,0.739,15.657-2.111,24.605-1.005c-0.276,0.184-2.085,0.693,0.532,0.886c1.033-0.108,2.448-0.141,3.884-0.153l2.122-0.019
		l0.982-0.013l0.457-0.01l0.242-0.015l-0.033,0.022l0.054-0.022c0.518-0.04,0.823-0.138,0.81-0.324
		c1.55-0.758,2.079-1.533,3.841-2.178c-1.077-0.884-2.345-0.542-3.107-0.256c-0.123,0.292-0.29,0.584-0.503,0.876
		c-0.277-0.336-0.522-0.488-0.771-0.535c-0.123-0.024-0.248-0.021-0.38-0.004l-0.116,0.019l-0.306,0.021L428.763,317
		c-1.608,0.171-3.151,0.449-4.006,0.223c0.911-0.318,2.174-0.559,3.672-0.745l1.163-0.126c0.272-0.044,0.272-0.078,0.425-0.114
		c0.232-0.069,0.466-0.13,0.696-0.183c0.922-0.215,1.894-0.326,2.521-0.565c-0.105-0.484-0.237-0.942-0.41-1.348
		c-0.32,0.024-0.571,0.087-0.763,0.177c-0.679-0.277-1.172-0.434-1.597-0.508c-0.216-0.039-0.416-0.054-0.613-0.056l-3.92,0.044
		l1.961,0.268l0.982,0.132l0.489,0.066c0.143,0.021,0.401,0.044,0.362,0.068l-4.533,0.018l4.509,0.941
		c-4.41-0.166-8.229,0.076-12.221,0.021c4.673-0.016,6.495,1.206,3.849,1.013c-5.207-0.868-5.423,0.568-9.407,0.515
		c2.218,0.083,5.101,0.096,3.243,0.604c-7.85-1.064-9.969-0.372-17.104-1.508c0.883,1.477-8.919,0.148-9.99,1.356l3.313,0.125
		l-7.027,0.891c-6.48-1.202,5.74-1.227-4.121-2.078c-9.103-0.146-8.869,1.405-16.024,1.519c2.356-0.874,8.032-1.624,13.807-1.6
		l-3.497-0.422c1.852-0.508,9.836-0.4,13.824-0.351c-6.588,1.006,3.081,0.31,6.079,1.096c0.551-0.848-3.678-0.714,1.313-1.393
		c-4.677,0.017-5.361,0.086-11.313-0.231c12.865,0.384,11.566-2.942,22.793-2.229c-5.174,0.383,1.806,1.222,2.428,1.631
		c2.437-0.101,7.377-0.304,9.407-0.515l-1.839-1.223c3.271-0.265,5.475,0.251,7.805,0.673c1.163,0.215,2.359,0.402,3.735,0.461
		l0.962,0.015c0.042-0.003,0.081-0.017,0.123-0.042c0.081-0.052,0.159-0.149,0.203-0.307c-0.061-0.365-0.182-0.427-0.274-0.416
		c-0.057,0.002,0.022,0.012-0.142,0.02l-0.944,0.026c-0.506,0.013-0.727,0.018-0.389-0.018l1.379-0.09
		c0.078-0.024,0.064-0.042,0.096-0.057c0.044-0.027,0.083-0.035,0.125-0.024c0.081,0.02,0.185,0.107,0.341,0.24
		c0.309,0.271,0.847,0.719,1.666,1.163c0.323,0.054,0.646-0.045,0.891-0.393c-0.368-0.285-1.142-0.822-1.791-1.352
		c0.735,0.417,1.109,0.12,1.65,1.005c0.152-0.22,0.096-0.603-0.036-0.93c-0.064-0.167-0.149-0.323-0.235-0.458
		c-0.042,0.065-0.087-0.43-0.126-0.783l-0.117-1.055c-0.057,0.798-0.113,1.354-0.17,1.717c-0.063,0.136-0.122,0.099-0.186,0.118
		c-0.063,0-0.128-0.022-0.191-0.051c-0.032,0.036-0.068-0.12-0.099-0.295l-0.1-0.549c-0.266-1.596-0.532-4.141-0.752-4.729
		c0.124-3.305,0.734,1.008,0.947,3.044c0.194-2.656,1.276-5.811,0.177-7.317c0.386-0.052,0.897,1.805,1.334,4.287
		c0.216,1.241,0.418,2.641,0.577,4.035l0.11,1.045l0.051,0.477l0.042,0.138c0.057,0.186,0.096,0.373,0.12,0.547l0.064-0.457
		l0.031-0.235l0.029-0.812l0.128,0.78l0.081,0.214c0.046,0.127,0.063,0.242,0.066,0.364c0.008,0.246-0.052,0.525-0.113,0.993
		c0.601-0.782,1.264-0.73,1.813-0.284c-0.113,0.15-0.185-0.132-0.295,0.011c-0.194,0.979,0.015,1.847,0.427,1.813
		c1.038,1.585,0.649-1.357,1.167-2.181l-0.051-0.511l-0.024-0.253c-0.012-0.07-0.018-0.161-0.029-0.36l-0.103-2.016l-3.337-13.778
		c-0.388-5.885,0.41-8.532,0.915-12.954l-0.895-1.214c0.093-5.12,0.377-9.952,1.505-6.672c-0.299,0.186-0.228,0.862-0.27,1.974
		c0.12,0.149,0.209,0.403,0.279,0.727c0.05,0.107,0.104,0.167,0.152,0.255l-0.507-9.226c1.295,9.314,1.618,0.464,3.2,2.023
		l-0.515-9.406c-0.5,5.702-0.773,0.104-0.989-1.918c0.891-0.562-0.009-7.577,0.116-10.879l0.186,0.245
		c0.308-3.056,0.219-8.411-0.023-12.22c-0.297,0.174-1.752-4.712-2.628-7.06c-0.333,6.536-0.688,2.657-1.241,3.181
		c0.05-0.676,0.06-1.893-0.052-2.034c-0.254-0.936-0.338,1.27-0.633,1.454c0.415,6.947,0.532,14.096,1.773,16.929
		c0.564-2.133-0.536-3.636-0.159-6.023c0.834,3.443,0.67,7.882,0.646,13.654l-0.745,1.895l0.404,5.806
		c-0.395-2.422-1.175-0.964-1.322-7.058c-0.702,0.778,0.159,6.044-0.074,9.775l0.989,1.908c-0.553-0.733-0.66,7.253-1.411,1.579
		l-0.81-9.234l-0.674,2.565l-0.191-7.805l0.511,1.842c-0.681-12.541,1.969-3.696,0.802-16.32c-1.199-3.951-1.327-8.199-1.036-15.934
		c0.269,5.598,0.845,0.574,1.539,2.681c0.5-5.71-0.485-7.637-0.954-10.599c0.632-1.455,1.149-2.489,1.057,2.611
		c1.324,0.639-0.23-6.71,1.136-7.175c-0.021-8.448-1.121-11.833-2.004-15.575c-0.443-1.87-0.831-3.83-1.001-6.558
		c-0.042-0.681-0.07-1.412-0.084-2.2l-0.009-0.964c0.005-0.031,0.012-0.064,0.022-0.099c0.043-0.144,0.159-0.321,0.372-0.675
		c0.185-0.071,0.368-0.132,0.55-0.186c-0.164-0.322-0.248-0.557-0.29-0.805c-0.532,0.071-0.891,0.03-1.316,0.013l-0.322-0.006
		l-1.749,0.015c-1.965,0.021-4.022,0.063-6.24,0.146l-9.145-1.398c2.047-0.215,7.544-1.262,4.976-1.936
		c2.225,0.708,4.521,0.938,6.854,1.086l3.534,0.209l0.89,0.069l0.447,0.04c0.146,0.013,0.338,0.028,0.323,0.043
		c0.135,0.063,0.263,0.138,0.376,0.233c0.078-0.185,0.021-0.343-0.096-0.484c-0.062-0.07-0.135-0.136-0.209-0.199l-0.107-0.091
		l-0.358-0.087c0.472,0.002,0.419,0.013,0.532,0.032c0.086,0.017,0.167,0.043,0.242,0.071c0.152,0.058,0.287,0.13,0.422,0.195
		c0.277,0.129,0.531,0.226,1.049,0.102c0.149-0.29-0.911-0.642,0.058-0.813c0.386,0.29,0.673,0.58,0.866,0.871
		c0.496-0.105,0.942-0.291,1.364-0.502c0.625,0,1.483-0.759,1.182,1.588c-0.777-0.222-1.902-0.232-2.085-0.644
		c-0.075,0.419-0.174,0.338-0.302,0.261c-0.443,0.163-0.915,0.373-0.844,0.635c0.165-0.104,0.326-0.19,0.471-0.263
		c0.373,0.023,0.379,0.416,0.383,0.802c0,0.415-0.01,0.798,0.316,1.44c-0.159-0.16-0.387-0.167-0.458-0.471l-0.12,0.493l-0.06,0.231
		c-0.012,0.053-0.023,0.042-0.033,0.146l-0.028,0.648l-0.245,5.185c0.675-2.565,0.741,8.568,1.742,7.602
		c0.206-5.526,0.159-7.477,0.132-9.622c-0.015-1.072-0.024-2.192,0.006-3.832c0.029-0.486,0.1-1.052,0.242-2.034
		c0.11,0.463,0.422,0.972,0.822,1.586c0.1,0.187,0.206,0.231,0.316,0.547l0.336,1.252c0.23,0.79,0.469,1.481,0.702,2.02
		c-0.038,0.109-0.071,0.291-0.087,0.679c0.989,1.924,1.256-0.037,2.985,0c-0.309-1.438-0.476-2.756-0.563-4.03
		c-0.089-0.778-0.099-1.455-0.096-2.194c0.014-1.438,0.088-3.092-0.266-4.734c-0.476,0.035-0.777,0.823-0.93,1.696
		c-0.152,0.886-0.156,1.907-0.036,2.706c-0.209-0.922-0.418-1.763-0.628-2.522c0.146,0.075,0.291,0.163,0.437,0.26l0.117-2.842
		l-4.621-0.199c1.457-0.052,2.279-0.602,3.439-1.015c-1.085-0.037-2.046-0.289-3.209-0.562c-0.057,0.904-0.466,1.543-1.408,1.525
		l-4.817-0.268c-1.938-0.123-3.643-0.276-5.155-0.456c-3.025-0.359-5.281-0.82-7.083-1.337l-1.135,0.063
		c1.636,0.928-6.928,1.667-9.954,2.616c0.149-0.961-5.026-0.576-7.838-1.066c-1.498,1.1,0.499,2.618,3.923,3.518
		c6.597-1.006,3.696-1.015,6.813-2.443l10.586-0.951l-2.366,0.878c5.281,0.387,10.354-0.771,9.968,0.369
		c-2.791,0.761-7.398,0.3-10.17,1.064l3.495,0.417c-6.166,1.12-3.161-1.081-10.625-0.299c2.745,0.97-0.675,0.072-3.874,0.722
		c2.568,0.674,13.143-0.278,10.901,1.37c-3.884,0.722-13.062-1.932-18.193-0.293l0.252-0.184
		c-7.577-0.215-10.242,0.727-13.076,1.319c-3.224-0.534-7.676,0.217-11.17,0.277l0.085-0.479l-4.926,0.201
		c2.344-0.875,5.774,0.023,10.009-0.105l-0.523-0.89c4.88,1.057,8.133-0.55,11.922-1.318c-5.514,0.771-15.559-0.218-16.854,1.526
		l-3.408-0.903l-1.633,0.326c-2.536-0.676,0.057-1.734,4.981-1.937c0.854,0.225,1.28,0.337,1.021,0.523
		c2.288-0.399,4.384-1.091,9.915-0.885l-2.951,0.471c6.888,0.064,13.146-0.28,15.505-1.156c-9.939-0.373-19.716-0.451-29.052-0.41
		c-2.753,2.013-6.02,3.145-7.424,5.015c-6.262,0.346-14.764,0.604-20.206-0.081l0.5-0.369c-2.652-0.191-5.102-0.09-7.141,0.123
		c-2.802-0.492,1.92-0.99-0.035-1.256l-8.972,0.628c0.554-0.848,8.104-0.851,11.688-0.912c-0.676,0.071-2.042,0.213-1.603,0.327
		c4.168,0.347,11.937-1.095,13.759,0.13c2.033-0.212-4.124,0.905,2.754,0.969c4.604,0.461,6.104-0.639,6.587-1.006
		c0.075-0.48-7.229-0.658-4.697-1.236c-3.582,0.062-5.012,0.679-9.596,0.216c3.552-0.058,8.379-1.032,10.27-0.287
		c7.026-0.894,6.021-3.146,2.708-3.27c0.787,0.706-12.816,0.869-3.605,1.79c-4.139,0.908-11.698,0.915-17.111,1.48l0.248-0.181
		l-6.722,0.227c0.947-0.251,2.98-0.466,3.044-0.942l-9.309,1.286c5.239-0.865-3.245-0.601-5.629-0.982
		c-0.997,0.734-4.634,1.272-1.146,1.692c3.923,0.532,2.284-0.397,5.851-0.453l-5.053,1.157l-0.432-0.112l-3.037,0.945
		c-6.878-0.066,3.005-2.201-5.811-1.275l1.146,1.292l-6.265-0.128l-7.551-0.209l-14.831-0.5c0.302-9.771,0.501-18.334,0.209-24.511
		c0.735,3.468,1.916,4.381,2.615-0.064c-0.221,4.918-0.179,14.846-0.059,21.809l0.232-0.004c0.191,0.038,0.031,0.106-0.419,0.191
		c-0.214-0.67-0.535-2.896-0.777-5.917c-0.238-3.006-0.397-6.811-0.28-10.235c-0.745,1.63-0.805,4.764-0.667,8.039
		c0.143,3.293,0.482,6.656,0.535,9.301c2.311-0.046,3.797,0.106,3.565,0.736c10.468,0.373,14.828-0.144,18.347-0.595l2.665-0.313
		l2.372-0.199c1.372-0.076,3.143-0.016,5.761,0.298c0.145-0.956,2.977-0.466,3.529-1.31c-1.555-0.781-5.056-0.769-9.018-0.628
		l-4.029,0.118l-4.823,0.104c-3.193,0.05-6.286,0.049-8.851-0.087c1.092-0.069,3.259-0.213,3.753-0.395
		c-4.856-0.187-7.836-0.155-10.993-0.008l-0.295-4.532l-0.114,0.758c-0.936-8.679,0.714-6.26,1.136-11.602
		c-0.141-1.983,0.132-9.245-0.567-8.075l0.908-6.401l-1.067,0.304c-0.064-3.565,0.643-4.346-0.008-7.578l-0.957-0.149l-0.333,8.855
		c-0.313-4.488-0.915-1.25-1.114-6.183c1.046,5.51,0.528-3.897,1.419-4.44l-0.54-3.627l0.257,0.928
		c0.488-2.848-0.359-3.39-0.23-6.712c-0.536,3.918-1.207,6.485-0.529,11.478c-0.535-3.635-1.131-10.845-1.163-12.614
		c-0.401-3.817,0.326-6.482,0.437-10.053c0.383,6.853,2.897-2.401,2.213,11.333c-0.185-0.254-0.142-1.366-0.032-1.796
		c-1.221,1.831,0.077,8.233,0.547,11.21c0.702-0.767,0.876,2.348,1.266-2.932c-0.45,1.732-1.567-4.449-0.993-9.472l1.507,0.885
		l0.179-7.313l0.069,0.685c0.969-2.751-0.187-7.803,0.385-12.839c-0.54-3.636-0.11-17.585-1.686-11.584
		c0.941-4.52-0.258-8.487-0.461-13.419l-0.613,6.148c-1.079-7.268-0.383-5.174-2.097-10.992c0.411-0.588,0.748-1.885,1.182-0.703
		c0.081-9.766,0.506-23.711-0.729-29.439c0.068-6.884,1.842-7.964,1.147-17.622c-0.215-0.91-1.408,0.547-0.978-1.72
		c0.058-0.097,0.335,0.359,0.586,0.594c0.248,0.231,0.473,0.156,0.412-1.293c-0.643-0.877-0.376-2.146-0.182-3.795
		c-0.954-0.156-2.21-0.263-3.55,0.183c-0.586-0.208-1.528-0.273-2.257-0.4l-0.262-0.052l-0.511-0.059
		c-0.355-0.042-0.652-0.092-0.873-0.153c-0.447-0.12-0.589-0.281-0.272-0.51l2.897,0.082c0.691,0.005,1.391-0.013,2.05-0.052
		c1.31-0.076,2.483-0.234,2.966-0.455c-0.777,0.553,1.285,0.536-0.865,0.961c0.372,0.088,0.68,0.144,0.954,0.177
		c-0.227,2.254,0.685,1.06,0.27,4.15c0.368,0.179,1.015-2.225,0.688-2.827c0.624-0.47,0.776,1.355,0.957,2.857
		c0.185,1.451,0.397,2.743,1.15,0.658c0.039-1.876-0.311-3.12-0.685-3.986c-0.377-0.887-0.784-1.428-0.858-2.372
		c-0.721,0.049-1.334-0.038-2.006-0.359c0.905-0.337,1.839-0.399,2.838-0.477c0.101,1.085,0.224,2.186,0.956,2.972l0.503-4.068
		l-0.117-0.242c-1.047,0.261-2.029,0.524-2.948,0.786l0.291-0.186c-2.717-0.573-4.569-0.252-5.916,0.293
		c-0.353,0.135-0.682,0.285-1.016,0.439l-0.51,0.23l-0.965,0.229c-1.355,0.299-2.994,0.569-5.243,0.726
		c5.21,0.869-1.207,2.171,2.717,2.703c-6.02,0.16-10.437-0.007-10.479-1.259c11.259-1.022,0.64-1.326,11.046-2.574
		c-1.705-0.449,2.479-1.832-3.724-1.971c-6.984,0.893,2.092,1.043-4.877,1.457c-0.412-0.111-0.842-0.223-0.598-0.407
		c-3.206,0.65-3.738-0.236-7.619,0.483l0.924-0.251c-4.787-0.759-5.234,0.861-9.353,0.033c1.646,0.93-2.763,0.763-5.317,1.343
		c4.174,0.351,6.435,1.685,14.669,1.611c0.992-0.735,0.389-1.142,3.773-1.499l-5.353,0.091c1.152-0.121,2.031-0.311,3.093-0.458
		l5.14,0.381c-6.516,0.525-3.528,1.31-6.297,2.075c-5.967-0.321-4.924,0.202-8.673-0.037c0.376-1.079-11.5-1.843-18.368-2.537
		l3.186,0.043c4.988-0.681-3.43-0.899-3.615-1.196l-3.635,0.54c0.684-0.075,1.627-0.326,0.078-0.479
		c-4.92,0.2-4.633,1.27-9.546,1.472c-0.369-0.594,3.785-1.495,0.728-1.808c-1.054-0.518-4.406-1.896-10.937-1.371
		c-0.461,0.227-2.153,0.355-4.115,0.453c0.273-0.032,0.614-0.055,0.738-0.097l-4.334-0.647c3.692-1.013,7.47,0.477,11.184-0.54
		l0.313-0.963c2.891-0.003,6.814-0.42,8.62-0.919c-4.406-0.163-5.332,0.089-10.258,0.29c-0.692-0.608,2.777-1.062,3.277-1.126
		l-0.734,0.547c5.877,0.798,8.783-0.922,16.097-0.743c1.107,0.039,0.434,0.11,0.184,0.293c5.921-0.933,11.731,0.346,17.484-0.885
		l-1.876,0.507c3.92-0.41,11.583-1.356,19.239-2.274l0.063-0.374c-0.852-0.228,2.022-0.213,3.565-0.062l-0.007,0.007l5.58-0.651
		l2.581-0.288c0.858-0.091,1.54-0.176,2.548-0.254l-0.937-0.166l-0.866-0.142c-0.605-0.084-1.27-0.147-1.979-0.173
		c-1.198,0.44-8.237,0.078-7.271,1.078c-3.25-0.604-8.486,0.262-10.873-0.118c4.349,0.643-3.03,0.944-3.792,1.495
		c-1.462-0.631-6.445,0.048-5.874-0.801c-0.858-0.22,2.135,0.564,3.983,0.055c4.557-0.791-8.339-0.695-2.664-1.447
		c-7.219,0.596-16.728,0.339-24.174,1.12l4.168,0.347c-3.31-0.126-11.142,0.064-11.728-0.346c2.458-0.1,5.332-0.089,8.478-0.259
		c0.152-0.958-7.559,0.006-7.907-0.586l-9.137,1.583l4.001,0.055c-2.522,0.582-10.886-0.12-17.091-0.255
		c3.559-1.31,9.358-0.033,15.881-0.56c4.739-0.498-2.926-1.265,1.561-1.579c-1.164-0.305-4.09-0.27-5.534,0.062l-1.77-0.239
		c4.001-1.192,12.972-0.926,18.945-1.951c-0.525,0.128-0.982,0.263-1.149,0.401c4.597,0.461,9.269,0.443,13.752,0.128
		c-2.374-0.376-3.31-0.121-4.665,0.018c-0.17-0.294,4.061-0.423,5.665-0.749c-4.171-0.347-0.78-0.704-3.419-0.899
		c2.717-0.284,4.916-0.2,8.225-0.076c1.718,0.45-1.419,0.621-1.067,1.209c3.409-0.355,4.966,1.057,9.953,0.376
		c-6.633-0.249,1.749-1.285,4.034-1.681l-1.111-0.042c2.105-0.691,3.889-0.719,5.344-0.087c-2.714,0.284-5.344,0.087-4.568,0.791
		c1.791-0.03,3.579-0.06,5.61-0.272l-1.848,0.507l8.919-0.146c1.411-0.622,3.766-1.498,5-2.413c1.071,0.282,2.348,0.304,3.615,0.231
		l4.827-0.354l-1.535,0.257c3.11,0.266,8.03,0.288,12.479,0.175c4.435-0.113,8.439-0.361,9.309-0.635
		c1.997,0.245-6.808,1.118-11.359,1.866c-2.326,0.375-3.717,0.719-2.784,0.935c0.944,0.218,4.13,0.311,11.315,0.185l1.16-0.008
		c0.065,4.588,0.505,5.723,1.005,6.458c0.499,0.739,1.053,1.018,1.348,4.156c0-0.002-0.182-0.297-0.295,0.426
		c-0.128,5.189,0.538,5.498,0.819,9.881c0.266-3.211,0.28-7.958,0.024-9.338c0.37,0.647,0.352,3.495,0.316,6.628l-0.021,4.361
		c0.018,0.924,0.075,1.767,0.221,2.399c-1.133-3.285-0.433,6.387-1.013,3.836c-0.727,6.571,0.168,13.595,1.002,17.046
		c-1.42,4.458,0.188,7.819-0.47,15.055c0.039-1.112-0.17-3.13-0.018-4.686c-0.9-4.125-0.471,7.498-1.295,1.148
		c0.143,1.359,0.476,0.097,0.338-1.296c-0.103-2.435-0.497-4.728-0.909-4.116l-0.793,5.897l-0.218-2.058l-1.103,8.95
		c0.182,0.243,0.405-0.596,0.519-1.027c-0.483,10.38,0.132,22.249-0.018,31.343c2.539,1.708,1.085,22.388,2.646,29.736
		c-0.728-1.97-2.012-3.047-2.541-1.829c-0.105-1.639-1.131-4.994-0.918-8.709c0.408-0.593,0.869-5.183,1.333-2.229
		c-0.287-10.27-1.109,1.39-2.057-1.641c0.248,11.379,1.734,18.054,2.329,25.237l-0.297,0.182l0.568,5.424
		c0.165-4.432,1.606-4.213,1.104,1.5l-0.071-0.695c-0.604,4.624,0.105,6.56,0.015,9.188c0.275,0.34,0.553,0.619,0.828,0.835
		l-0.023,0.328c1.585,0.222,0.727,1.664,1.106,2.546c1.151,0.027,2.234-0.032,3.206-0.147c0.486-0.059,0.947-0.13,1.384-0.212
		l0.631-0.131c0.146-0.045,0.667-0.093,0.976-0.144c2.863-0.397,5.436-0.903,8.273-1.281c2.563,0.676,14.532,0.835,8.193,1.655
		c7.204-0.597,5.75-4.215,18.112-2.21l-3.208,0.652c11.817-0.137,28.673-1.433,34.118-0.747c-4.359,2.341,14.761,2.382,16.86,4.677
		c-0.586-0.525,3.854-0.699,4.5-0.979c0.976,0.27,2.593,0.531,4.314,0.057c-4.607-0.46,3.239-2.383-5.57-1.456
		c4.459-1.573,10.203-2.802,19.972-2.724l-0.149,0.958l-7.726-0.292c0.78,0.706-3.2,0.653-4.827,0.978
		c14.372,0.539-1.884,2.241,12.813,2.117c1.418-0.621,0.5-0.365,4.319-0.61c-1.794,0.031-2.12,0.692,0.777,0.704l2.777-0.764
		c5.133,1.596-8.495,1.039-4.114,2.159c-5.676,0.752-15.505,1.155-13.675,2.377c9.27,0.444,8.34-2.289,18.026-1.734l1.033,0.52
		c3.409-0.353,3.959-1.195,5.823-1.705c0.086,0.148,0.346,0.278,0.855,0.38c0.256,0.052,0.576,0.097,0.965,0.134l0.656,0.05
		l0.962,0.039c3.621-0.605,6.896-0.97,10.197-1.345c3.325-0.375,6.677-0.759,11.036-1.402l0.07,0.32l-0.021-0.368
		c-10.396,0.482-14.291,0.244-18.731-0.002l-3.431-0.175c-0.918-0.052-1.767-0.092-2.819-0.112
		c-2.075-0.039-4.673,0.009-8.295,0.232c1.143-0.199,4.282-0.371,7.213-0.659c1.514-0.144,2.777-0.316,4.072-0.535
		c1.66-0.22,2.88-0.486,3.179-0.817l-0.345,0.959c6.364-0.439,13.263-0.874,21.023-0.757l-0.081,3.341l-0.309-2.951l-2.593,0.23
		l2.462-0.099c0.152,5.287-0.21,10.193-0.426,14.529c-0.106,2.184-0.175,4.258-0.125,6.333l0.061,1.563l0.05,0.787
		c0.021,0.285,0.043,0.527,0.063,0.671c0.096,0.706,0.23,1.418,0.419,2.145l0.042-1.572v-1.738c-0.017-1.371-0.06-2.576-0.13-3.601
		l0.135,2.389l0.091,2.394c0.051,1.118,0.075,2.274,0.079,3.441c0.007,2.334-0.057,4.713-0.139,6.921l1.582,9.137
		c-0.476-0.08-0.504,5.71-1.263,2.917c-0.727,6.578,0.699,9.68,0.937,13.48c-1.015,6.736-0.455-5.835-1.777-6.496
		c-0.442,9.281-0.042,19.118,0.819,24.355c0.195-1.892,0.358-2.812,0.593-2.716c-0.302,0.281-0.225,4.021-0.234,6.105l0.625,1.434
		c-0.423,3.471-0.788,2.983-1.261,0.029c-0.12,3.319,1.079,7.276,0.182,10.693c-0.753-5.664-0.096-12.888-0.564-15.842
		c0.615,11.844-1.894,11.919-1.106,26.936c-0.297,0.183-0.876-2.359-0.883,0.535c0.228,6.701,1.28,1.749,1.972,3.841
		c-0.387-5.157-0.007-7.559,0.78-10.554l0.505,1.378c-0.263,0.209-0.277,3.449-0.529,4.403l1.028,0.834
		c-1.139-0.386-2.007,4.798-1.581,8.874c0.825-4.12,0.783-3.005,2.081-4.126c1.231,5.729-1.209,6.462,0.093,12.883
		c-0.365-0.48-0.638-6.087-0.919-1.241c-0.05,4.009,0.841,3.475,1.122,6.164c-0.948-3.028-1.653-2.251-2.778-5.533
		c-0.12-7.126,0.01-2.875-0.404-9.838l-0.801,5.894c-0.158-6.036-1.086-4.388-1.452-4.886c-0.964,10.309,1.443,7.769,1.195,14.4
		c0.649,3.197,0.135-6.211,0.816-1.211c-0.138,6.201,0.621,1.413,1.032,8.376l-0.437-1.167c-0.563,2.127,0.131,4.231,0.227,6.693
		c0.146,1.354,0.969,0.589,1.768,0.874c0.397,0.145,0.791,0.552,1.085,1.616c0.149,0.535,0.272,1.233,0.362,2.145
		c0.042,0.456,0.081,0.968,0.106,1.537l0.027,0.9l0.019,1.383c-0.135-0.461-0.242-0.833-0.329-0.964
		c-0.093-0.12-0.161-0.169-0.218-0.169l-7.974-10.861l-0.074,13.113c-0.06,5.217-0.152,10.551-0.287,15.81l-12.672-0.376
		c-1.918-0.78,0.586-1.102,3.182-1.316c2.634-0.212,5.502-0.321,4.793-0.67l2.458,0.123l0.194-3.528
		c0.242,0.303,0.335,2.129,0.412,4.132c-3.206,0.135-7.2,0.221-2.905,0.964l3.746-0.123c-0.103-4.644-0.042-8.169-0.106-11.853
		c-0.028-1.818-0.092-3.729-0.223-5.62c-0.128-1.817-0.326-3.765-0.628-5.97c-0.78,1.557-0.714,4.827-0.601,8.559
		c0.117,3.706,0.274,8.158-0.329,10.865c0.103-2.604-0.071-5.023-0.294-7.258l-0.31,8.786l-9.687-0.346l-1.345,0.38
		c4.47,0.173,7.723,0.308,8.169,0.364c-3.054-0.067-5.679,0.114-7.733,0.456c-2.036,0.341-3.504,0.846-3.731,1.417l1.206,0.04
		l-2.362,0.355L424.424,328.965z M177.306,483.438c0.375-0.11,0.673-0.237,0.894-0.397
		C177.973,483.208,178.225,483.315,177.306,483.438z M442.877,226.662l-0.618,24.551c2.26-14.339,3.97-24.42,3.923-0.49l0.164,1.566
		c0.276-3.127,0.312-8.521,0.147-13.595c-0.801-4.106-3.741-17.354-4.004-17.21c-0.631,1.454,0.06,3.574-0.135,6.218
		L442.877,226.662z M446.657,220.784c0.252-4.687-0.248-3.62-0.699-4.347l0.17,4.924
		C446.242,220.738,446.402,220.431,446.657,220.784z M445.509,216.718c-0.012,0.527-0.032,0.976-0.093,1.21L445.509,216.718z
		 M444.938,307.859l-0.029-0.48l-0.103,3.373C444.877,310.303,444.935,309.447,444.938,307.859z M446.041,298.348l-0.824-1.113
		l-0.096,3.164C445.494,300.042,445.82,299.672,446.041,298.348z M448.754,267.778c-0.99-1.928-1.035-8.384-2.178-8.78
		c-0.29-0.41-0.404,0.948-0.5,2.47l-0.092,5.442c0.162,0.066,0.317,0.447,0.467,1.087c0.143-1.9,0.427-3.171,1.129-2.399
		c-1.529,4.884,1.089,4.377,0.698,9.658C449.083,276.938,449.076,269.378,448.754,267.778z M289.58,17.225
		c-0.068-0.099-0.369-0.356-0.897-0.674l3.451-0.423l0.143,0.908c-0.125,3.871-0.598,7.475-0.863,10.644
		c-0.267,3.184-0.323,6.127,0.383,9.07c-0.354,2.796-1.106,4.293-1.723,5.724c0.045-1.369,0.106-2.65,0.202-3.716
		c-0.248-2.018-0.408-3.676-0.493-5.056c-0.089-1.358-0.104-2.376-0.071-3.256c0.066-1.738,0.333-2.811,0.631-3.818
		c0.596-1.957,1.319-3.82,0.826-9.536L289.58,17.225z M289.023,92.801c-0.071-0.685-0.26-0.93-0.26-0.93
		c2.1,14.831,2.706,27.041,2.625,35.037c0.831-1.55,1.475-8.723,1.82-12.128l0.946,3.018l-0.745,1.885l0.861,5.239
		c0.637-1.465,0.502-5.696,0.995-8.524c-0.182-0.247-1.288-9.303-1.871-11.834l-0.655,7.236c0.267-1.954,0.046-11.553-0.194-15.36
		c-0.476-0.075-1.207,6.485-0.179,7.312c-0.701,0.78-0.712-6.782-1.469-2c-0.748-5.667-0.12-14.684,0.228-18.867l1.185-0.708
		c0.462-4.59-1.425-3.102-0.74-8.555c0.23,6.704,1.298-1.133,1.386,4.199c0.448-1.703,1.253-0.034,1.163-5.377
		c-1.567-4.449,0.983-5.633-0.4-9.837c0.49-2.81,0.944,3.022,1.153-2.506c-0.822-6.34-1.415-5.974-2.554-6.367
		c-0.319,5.929,1.483,6.661,1.206,11.511L291.57,55.6c-0.277,1.778-0.31,3.093-0.227,4.197c-0.114-1.939-0.406-3.586-0.804-4.994
		c-0.223-0.802-0.414-1.542-0.581-2.227c-0.011,5.466-0.035,10.321-0.521,11.179l-0.554-0.753c-0.511,1.935-0.11,5.09,0.294,6.543
		c0.061,4.895,0.831,9.785,0.113,10.853l-0.508-1.858C288.945,84.561,289.015,85.23,289.023,92.801z M407.822,175.242
		c-3.643-2.029-7.665-3.82-24.682-3.465l1.337-0.141c-8.573-1.273-16.717,1.684-27.153,0.27c5.066-0.765,4.792-0.693,10.383-2.444
		l-5.434,0.573c1.507-1.103-3.914-0.532-7.9-0.584l3.52-1.313c2.394,0.378,8.595,0.515,8.413,0.214
		c-1.358,0.146,8.187,1.659,13.372,1.275c-0.535-0.89-11.48-0.528-6.594-1.983c-4.31,0.61-4.845-0.276-9.346,0.034
		c4.316-0.608,1.067-1.212,4.285-1.861l-7.389,0.303c-0.191-0.296,10.757-0.658,4.707-1.752c-2.963,0.467-10.863-0.118-11.004,0.839
		l-0.181-0.294c-5.537-0.207-2.437,1.355-9.233,0.809c-0.083,0.483,1.217,0.816,3.649,0.717c2.057-0.213,2.373-0.873,6.616-1.007
		c1.896,0.75-5.116-0.093-2.171,1.174c1.46,0.631,11.19-0.544,8.092,0.879l-5.528-0.206c-0.141,0.96-4.143,0.905-4.028,1.678
		c-3.382,0.353-6.57-0.725-10.021,0.106c-1.434,0.621,1.071,1.773-4.64,1.272c-4.462-1.419-17.607-1.144-22.532-0.938l-4.31,0.61
		c0.365,0.589,8.232-0.08,5.467,0.685l-6.719,0.23l0.518-0.368c-1.113-0.042-2.238,0.038-3.341,0.152l-2.892,0.373
		c0.505-0.173,1.131-0.285,1.781-0.372l0.979-0.115l1.071-0.104c1.352-0.142,2.319-0.322,1.841-0.822
		c-1.539-0.099-2.571-0.241-3.277-0.334c-0.692-0.092-1.33-0.137-2.487-0.042c0.515-0.07,0.951-0.168,0.909-0.308
		c-4.638-0.433-5.261,1.117-6.89,1.443c-3.235,0.649-2.168,0.95-0.127,1.217c1.989,0.268,4.846,0.501,4.307,1.016l-11.16,0.317
		l-0.235-7.988c0.328,1.515,0.649,2.881,1.059,2.014c0.464-4.673,0.777-0.564,0.727-6.523c-1.366,0.847-0.852-7.875-1.639-12.412
		c0.56-2.13,0.67-2.568,0.688,2.091c0.888-0.535,0.547-6.791,0.628-9.015c-0.224-1.289-0.35-3.485-0.546-4.878
		c-0.443,1.866-1,1.069-1.376-2.97l-0.188-0.235c-0.24,6.622-1.209,16.913-0.3,21.064l-0.441-1.173
		c-0.091,0.914-0.139,1.847-0.153,2.787v1.414l0.039,1.6c0.08,2.139,0.235,4.209,0.373,6.104c0.281,3.815,0.494,6.854-0.134,9.62
		c0.152,0.062,0.283,0.13,0.394,0.208c-1.012,0.664,1.616,0.153,0.623,1.111l7.185-0.749l-1.614,0.435l11.266-0.217l-0.255,0.179
		l10.992-2.153c0.012-0.418-0.287-0.547,1.235-0.855c1.524-0.206,2.682-0.238,3.714-0.183c0.01-0.001,0.01-0.001,0.01-0.006v0.006
		c2.355,0.12,3.923,0.722,6.825,0.966l-8.929,0.103c-0.727,0.709,0.033,1.445,4.405,1.942c-1.788,0.027-2.536,0.58-0.322,0.662
		c0.244-0.185,5.849-0.454,3.714-1.018c8.478-0.26,22.205,1.603,35.078,0.255c-9.248,0.811,7.414,0.951-2.855,1.244
		c7.169,1.133,6.169-1.12,13.472-0.942c0.625,0.408-3.975-0.053-5.652,0.752c12.145,0.454,20.495-1.833,32.242-1.49l0.505,0.885
		L407.822,175.242z M430.937,174.139l6.373-0.305l-0.609-0.027l6.942-0.713c-3.618-0.346-6.208-1.317,0.476-1.772
		c-0.819,0.366,0.545,0.816-1.717,1.029c0.748,0.112,1.685,0.223,2.677,0.316c-0.35,4.414-0.449,9.251,0.607,6.991
		c-1.238-6.709,1.585-3.228,0.816-8.415l-0.419,0.053l0.458-0.089c0.756,2.664,0.403,6.407,0.78,9.476
		c-0.365-1.627-0.777-1.148-1.143,0.243c-0.365,1.403-0.685,3.7-0.858,6.078c0.216,2.067,0.01,7.567,0.362,10.962
		c0.819-1.208,1.286,1.743,1.492-3.78c0.213,2.026,0.383,5.162-0.035,8.674c-0.142-1.392-0.24-3.827-0.536-3.659
		c-0.754,2.267-0.72,4.921-1.041,6.386l0.13,3.494c0.071-0.343,0.163-0.64,0.28-0.851l0.724,3.882
		c-0.386-5.17,0.376-2.39,0.855-2.322c-0.958-0.14-0.124,3.328-0.093,5.097l1.011-3.845c0.508,1.858-0.73,6.561,0.274,5.589
		c0.4-8.155,0.226-11.29-0.075-18.666l-0.783,2.994c-0.281-4.16,0.055-5.443,0.461-6.854c0.197-0.705,0.418-1.442,0.581-2.586
		c0.082-0.572,0.152-1.246,0.199-2.068l0.054-1.352l0.013-2.021c-0.319-2.162-0.365-5.845-0.443-9.261
		c-0.077-3.407-0.194-6.516-0.656-7.164c-0.379,0.108-0.652,0.236-0.823,0.387c0.905-0.22-0.485-0.54-2.781-0.723
		c-2.276-0.184-5.439-0.231-7.502,0.095c-1.199,0.328-2.845,0.585-4.555,0.796l-4.742,0.518c-2.71,0.282-4.572,0.478-2.955,0.777
		c1.447,0.007,3.14-0.168,4.764-0.24c1.729-0.071,3.487-0.038,4.602,0.389l-5.867,0.273l3.679,0.716
		C430.007,172.385,430.22,173.086,430.937,174.139z M435.545,284.06l-0.018,0.218l0.003-0.242L435.545,284.06z"/>
	<linearGradient id="SVGID_52_" gradientUnits="userSpaceOnUse" x1="201.0854" y1="20.6934" x2="206.4565" y2="20.6934">
		<stop  offset="0" style="stop-color:#009EE2"/>
		<stop  offset="1" style="stop-color:#1D70B7"/>
	</linearGradient>
	<path fill="url(#SVGID_52_)" d="M206.003,20.206c-1.614,0.327-5.598,0.273-4.817,0.976
		C201.09,20.409,208.305,21.064,206.003,20.206z"/>
	<linearGradient id="SVGID_53_" gradientUnits="userSpaceOnUse" x1="199.3628" y1="19.7021" x2="204.2861" y2="19.7021">
		<stop  offset="0" style="stop-color:#009EE2"/>
		<stop  offset="1" style="stop-color:#1D70B7"/>
	</linearGradient>
	<path fill="url(#SVGID_53_)" d="M201.235,19.449c-0.28,0.184-0.085,0.48-1.872,0.507l4.923-0.197L201.235,19.449z"/>
	<linearGradient id="SVGID_54_" gradientUnits="userSpaceOnUse" x1="279.0596" y1="28.2388" x2="280.2793" y2="28.2388">
		<stop  offset="0" style="stop-color:#009EE2"/>
		<stop  offset="1" style="stop-color:#1D70B7"/>
	</linearGradient>
	<path fill="url(#SVGID_54_)" d="M279.122,28.175c-0.251,0.423,0.302,0.244,0.904,0.057c0.074,0.089,0.152,0.18,0.193,0.275
		l0.06-0.524C280.005,27.954,279.634,27.967,279.122,28.175z"/>
	<linearGradient id="SVGID_55_" gradientUnits="userSpaceOnUse" x1="237.6655" y1="471.4961" x2="268.6592" y2="471.4961">
		<stop  offset="0" style="stop-color:#009EE2"/>
		<stop  offset="1" style="stop-color:#1D70B7"/>
	</linearGradient>
	<path fill="url(#SVGID_55_)" d="M268.659,471.211l-30.994,0.569C246.583,471.633,254.817,471.559,268.659,471.211z"/>
	<linearGradient id="SVGID_56_" gradientUnits="userSpaceOnUse" x1="281.8281" y1="109.3818" x2="283.9395" y2="109.3818">
		<stop  offset="0" style="stop-color:#009EE2"/>
		<stop  offset="1" style="stop-color:#1D70B7"/>
	</linearGradient>
	<path fill="url(#SVGID_56_)" d="M283.939,117.835c-0.553-8.321-1.572-12.018-1.83-20.497c-1.189,11.149,1.854,14.726,0.638,24.088
		L283.939,117.835z"/>
	<linearGradient id="SVGID_57_" gradientUnits="userSpaceOnUse" x1="279.2363" y1="116.3262" x2="281.3506" y2="116.3262">
		<stop  offset="0" style="stop-color:#009EE2"/>
		<stop  offset="1" style="stop-color:#1D70B7"/>
	</linearGradient>
	<path fill="url(#SVGID_57_)" d="M279.236,114.901c1.109-1.38,1.301,6.42,2.114,5.212c-0.27-5.609-1.059-2.612-0.961-7.702
		L279.236,114.901z"/>
	<linearGradient id="SVGID_58_" gradientUnits="userSpaceOnUse" x1="297.6025" y1="78.4521" x2="298.1826" y2="78.4521">
		<stop  offset="0" style="stop-color:#009EE2"/>
		<stop  offset="1" style="stop-color:#1D70B7"/>
	</linearGradient>
	<polygon fill="url(#SVGID_58_)" points="297.603,77.19 298.183,79.714 297.968,77.683 	"/>
	<linearGradient id="SVGID_59_" gradientUnits="userSpaceOnUse" x1="279.6191" y1="153.9941" x2="280.2227" y2="153.9941">
		<stop  offset="0" style="stop-color:#009EE2"/>
		<stop  offset="1" style="stop-color:#1D70B7"/>
	</linearGradient>
	<polygon fill="url(#SVGID_59_)" points="280.223,152.827 279.971,151.907 279.619,156.081 	"/>
	<linearGradient id="SVGID_60_" gradientUnits="userSpaceOnUse" x1="279.7148" y1="151.4473" x2="279.9707" y2="151.4473">
		<stop  offset="0" style="stop-color:#009EE2"/>
		<stop  offset="1" style="stop-color:#1D70B7"/>
	</linearGradient>
	<path fill="url(#SVGID_60_)" d="M279.715,150.987l0.256,0.92L279.715,150.987z"/>
	<linearGradient id="SVGID_61_" gradientUnits="userSpaceOnUse" x1="299.7139" y1="77.6299" x2="300.2217" y2="77.6299">
		<stop  offset="0" style="stop-color:#009EE2"/>
		<stop  offset="1" style="stop-color:#1D70B7"/>
	</linearGradient>
	<polygon fill="url(#SVGID_61_)" points="299.986,80.432 300.222,76.683 299.714,74.827 	"/>
	<linearGradient id="SVGID_62_" gradientUnits="userSpaceOnUse" x1="293.5908" y1="112.0854" x2="294.0234" y2="112.0854">
		<stop  offset="0" style="stop-color:#009EE2"/>
		<stop  offset="1" style="stop-color:#1D70B7"/>
	</linearGradient>
	<path fill="url(#SVGID_62_)" d="M294.023,113.534l-0.354-3.354C293.736,110.845,293.279,115.435,294.023,113.534z"/>
	<linearGradient id="SVGID_63_" gradientUnits="userSpaceOnUse" x1="288.7363" y1="182.9873" x2="296.3975" y2="182.9873">
		<stop  offset="0" style="stop-color:#009EE2"/>
		<stop  offset="1" style="stop-color:#1D70B7"/>
	</linearGradient>
	<polygon fill="url(#SVGID_63_)" points="289.346,183.255 296.397,182.83 295.748,182.72 288.736,183.146 	"/>
	<linearGradient id="SVGID_64_" gradientUnits="userSpaceOnUse" x1="297.0889" y1="141.0386" x2="298.0752" y2="141.0386">
		<stop  offset="0" style="stop-color:#009EE2"/>
		<stop  offset="1" style="stop-color:#1D70B7"/>
	</linearGradient>
	<path fill="url(#SVGID_64_)" d="M297.089,139.795c0.854-2.317,0.23,6.693,0.986,1.925
		C297.943,137.478,297.497,139.199,297.089,139.795z"/>
	<linearGradient id="SVGID_65_" gradientUnits="userSpaceOnUse" x1="306.7949" y1="171.6465" x2="308.4824" y2="171.6465">
		<stop  offset="0" style="stop-color:#009EE2"/>
		<stop  offset="1" style="stop-color:#1D70B7"/>
	</linearGradient>
	<path fill="url(#SVGID_65_)" d="M306.795,171.709c0.55,0,1.127-0.03,1.688-0.126C307.816,171.621,307.259,171.665,306.795,171.709z
		"/>
	<linearGradient id="SVGID_66_" gradientUnits="userSpaceOnUse" x1="302.2646" y1="171.7065" x2="306.7949" y2="171.7065">
		<stop  offset="0" style="stop-color:#009EE2"/>
		<stop  offset="1" style="stop-color:#1D70B7"/>
	</linearGradient>
	<path fill="url(#SVGID_66_)" d="M306.795,171.709c-1.813,0-3.32-0.326-4.53-0.08C304.286,172.016,305.049,171.871,306.795,171.709z
		"/>
	<linearGradient id="SVGID_67_" gradientUnits="userSpaceOnUse" x1="322.0791" y1="171.6992" x2="327.2773" y2="171.6992">
		<stop  offset="0" style="stop-color:#009EE2"/>
		<stop  offset="1" style="stop-color:#1D70B7"/>
	</linearGradient>
	<path fill="url(#SVGID_67_)" d="M327.159,171.511l-1.611-0.062c1.646-0.42,0.866-0.358-0.605-0.019
		c-1.707,0.028-1.611,0.299-1.813,0.483l-1.051,0.332l1.401-0.308C326.127,171.944,327.741,171.901,327.159,171.511z"/>
	<linearGradient id="SVGID_68_" gradientUnits="userSpaceOnUse" x1="387.4648" y1="185.3721" x2="402.8164" y2="185.3721">
		<stop  offset="0" style="stop-color:#009EE2"/>
		<stop  offset="1" style="stop-color:#1D70B7"/>
	</linearGradient>
	<path fill="url(#SVGID_68_)" d="M402.816,185.906c-5.951-0.32-7.49-0.472-7.168-1.136c-5.651-0.211-4.775,0.93-8.184,1.196
		C393.86,185.838,395.167,186.143,402.816,185.906z"/>
	<linearGradient id="SVGID_69_" gradientUnits="userSpaceOnUse" x1="385.2334" y1="185.9956" x2="387.4648" y2="185.9956">
		<stop  offset="0" style="stop-color:#009EE2"/>
		<stop  offset="1" style="stop-color:#1D70B7"/>
	</linearGradient>
	<path fill="url(#SVGID_69_)" d="M387.465,185.966l-2.231,0.053C386.163,186.039,386.854,186.012,387.465,185.966z"/>
	<linearGradient id="SVGID_70_" gradientUnits="userSpaceOnUse" x1="304.6768" y1="163.7529" x2="307.0527" y2="163.7529">
		<stop  offset="0" style="stop-color:#009EE2"/>
		<stop  offset="1" style="stop-color:#1D70B7"/>
	</linearGradient>
	<path fill="url(#SVGID_70_)" d="M304.677,164.26c0.691-0.338,0.829-0.676,2.376-1.015l-1.302,0.142
		C305.439,163.679,305.081,163.969,304.677,164.26z"/>
	<linearGradient id="SVGID_71_" gradientUnits="userSpaceOnUse" x1="407.8965" y1="186.1934" x2="411.8076" y2="186.1934">
		<stop  offset="0" style="stop-color:#009EE2"/>
		<stop  offset="1" style="stop-color:#1D70B7"/>
	</linearGradient>
	<path fill="url(#SVGID_71_)" d="M411.653,186.239c-1.106-0.043-2.877-0.013-3.742-0.239
		C407.592,186.667,412.753,186.28,411.653,186.239z"/>
	<linearGradient id="SVGID_72_" gradientUnits="userSpaceOnUse" x1="382.7305" y1="173.2705" x2="388.6924" y2="173.2705">
		<stop  offset="0" style="stop-color:#009EE2"/>
		<stop  offset="1" style="stop-color:#1D70B7"/>
	</linearGradient>
	<path fill="url(#SVGID_72_)" d="M388.692,173.239c-0.604-0.407-4.413-0.164-5.962-0.32
		C384.953,173.004,386.767,174.226,388.692,173.239z"/>
	<linearGradient id="SVGID_73_" gradientUnits="userSpaceOnUse" x1="424.9063" y1="183.0381" x2="428.7305" y2="183.0381">
		<stop  offset="0" style="stop-color:#009EE2"/>
		<stop  offset="1" style="stop-color:#1D70B7"/>
	</linearGradient>
	<path fill="url(#SVGID_73_)" d="M428.73,183.504c-1.104-0.043-2.799-0.49-2.065-1.038
		C425.062,182.791,422.891,183.962,428.73,183.504z"/>
	<linearGradient id="SVGID_74_" gradientUnits="userSpaceOnUse" x1="394.6475" y1="173.3452" x2="399.5723" y2="173.3452">
		<stop  offset="0" style="stop-color:#009EE2"/>
		<stop  offset="1" style="stop-color:#1D70B7"/>
	</linearGradient>
	<polygon fill="url(#SVGID_74_)" points="399.572,173.357 398.72,173.131 394.647,173.559 	"/>
	<linearGradient id="SVGID_75_" gradientUnits="userSpaceOnUse" x1="383.9521" y1="164.957" x2="391.1475" y2="164.957">
		<stop  offset="0" style="stop-color:#009EE2"/>
		<stop  offset="1" style="stop-color:#1D70B7"/>
	</linearGradient>
	<path fill="url(#SVGID_75_)" d="M385.042,163.565c-4.583,0.791,7.269,1.908-0.624,2.579c10.181,0.828-0.781-1.121,6.729-0.994
		C386.749,164.884,384.596,163.882,385.042,163.565z"/>
	<linearGradient id="SVGID_76_" gradientUnits="userSpaceOnUse" x1="391.1475" y1="165.1855" x2="393.2295" y2="165.1855">
		<stop  offset="0" style="stop-color:#009EE2"/>
		<stop  offset="1" style="stop-color:#1D70B7"/>
	</linearGradient>
	<path fill="url(#SVGID_76_)" d="M391.147,165.15c0.638,0.043,1.329,0.065,2.082,0.07L391.147,165.15z"/>
	<linearGradient id="SVGID_77_" gradientUnits="userSpaceOnUse" x1="447.3213" y1="181.5205" x2="447.5869" y2="181.5205">
		<stop  offset="0" style="stop-color:#009EE2"/>
		<stop  offset="1" style="stop-color:#1D70B7"/>
	</linearGradient>
	<path fill="url(#SVGID_77_)" d="M447.587,182.358c-0.081-0.746-0.174-1.234-0.266-1.675
		C447.384,181.254,447.467,181.797,447.587,182.358z"/>
	<linearGradient id="SVGID_78_" gradientUnits="userSpaceOnUse" x1="408.2588" y1="164.6826" x2="423.7002" y2="164.6826">
		<stop  offset="0" style="stop-color:#009EE2"/>
		<stop  offset="1" style="stop-color:#1D70B7"/>
	</linearGradient>
	<path fill="url(#SVGID_78_)" d="M415.127,164.498l-6.868,1.188c4.587-0.791,16.13-0.743,15.409-1.927
		c-3.738-0.239-8.232,0.075-10.081,0.586L415.127,164.498z"/>
	<linearGradient id="SVGID_79_" gradientUnits="userSpaceOnUse" x1="431.1914" y1="220.3506" x2="431.9209" y2="220.3506">
		<stop  offset="0" style="stop-color:#009EE2"/>
		<stop  offset="1" style="stop-color:#1D70B7"/>
	</linearGradient>
	<path fill="url(#SVGID_79_)" d="M431.798,221.465l-0.469-2.967l-0.138,3.705C431.368,221.143,432.238,223.061,431.798,221.465z"/>
	<linearGradient id="SVGID_80_" gradientUnits="userSpaceOnUse" x1="431.1602" y1="222.5615" x2="431.1914" y2="222.5615">
		<stop  offset="0" style="stop-color:#009EE2"/>
		<stop  offset="1" style="stop-color:#1D70B7"/>
	</linearGradient>
	<path fill="url(#SVGID_80_)" d="M431.167,222.919l0.024-0.716C431.164,222.361,431.152,222.588,431.167,222.919z"/>
	<linearGradient id="SVGID_81_" gradientUnits="userSpaceOnUse" x1="437.4053" y1="170.9033" x2="444.2354" y2="170.9033">
		<stop  offset="0" style="stop-color:#009EE2"/>
		<stop  offset="1" style="stop-color:#1D70B7"/>
	</linearGradient>
	<path fill="url(#SVGID_81_)" d="M444.235,170.732c-2.423-0.083-4.48-0.05-6.83,0.16
		C438.272,171.115,444.106,171.322,444.235,170.732z"/>
	<linearGradient id="SVGID_82_" gradientUnits="userSpaceOnUse" x1="433.3174" y1="240.1333" x2="433.5186" y2="240.1333">
		<stop  offset="0" style="stop-color:#009EE2"/>
		<stop  offset="1" style="stop-color:#1D70B7"/>
	</linearGradient>
	<polygon fill="url(#SVGID_82_)" points="433.519,242.359 433.317,237.461 433.404,242.806 	"/>
	<linearGradient id="SVGID_83_" gradientUnits="userSpaceOnUse" x1="431.2842" y1="267.6641" x2="431.9326" y2="267.6641">
		<stop  offset="0" style="stop-color:#009EE2"/>
		<stop  offset="1" style="stop-color:#1D70B7"/>
	</linearGradient>
	<polygon fill="url(#SVGID_83_)" points="431.508,265.211 431.284,266.057 431.709,270.116 431.933,269.258 	"/>
	<linearGradient id="SVGID_84_" gradientUnits="userSpaceOnUse" x1="276.9365" y1="340.9873" x2="368.5234" y2="340.9873">
		<stop  offset="0" style="stop-color:#009EE2"/>
		<stop  offset="1" style="stop-color:#1D70B7"/>
	</linearGradient>
	<path fill="url(#SVGID_84_)" d="M337.661,315.503c1.438-0.622,8.479-0.263,8.848,0.327c-0.944,0.259-4.761,0.503-2.365,0.878
		l5.571-1.525c7.41,0.951-5.632,2.006-9.294,2.545c7.553,0.196,9.787-0.805,17.819-0.8c-2.371-0.137-3.867-0.518-5.116-0.844
		c-0.272-1.076,7.209-0.601,12.559-0.684c-3.406-0.467-1.438-0.859,1.046-1.281c0.446-0.033,0.74-0.096,0.954-0.168l0.841-0.148
		l-0.643,0.001c0.047-0.12-0.096-0.266-0.557-0.467c-4.488,0.314-7.921-0.583-10.813-0.598c2.855,1.746-9.839,0.404-13.472,0.941
		l-4.192,0.172l-1.569,0.005c-0.314-0.191,0.128-0.434,2.523-0.777c-1.998,0.344-8.656,0.224-8.042,0.784l-15.196,0.024
		c-0.472-0.07-0.947-0.159-1.298-0.287c-0.525,0.111-0.615,0.202-0.543,0.292l-37.786,0.04l0.068,55.302
		c0.138-3.265,0.539-6.091,0.73-9.457c1.16,5.054,0.209-5.523,1.306-4.039c0.397,2.271,0.272,5.597,0.007,7.576
		c0.554,0.738,1.043-2.085,1.702-1.759c0.696-8.35-1.95-9.627-1.55-17.791c0.334,0.16,0.646,0.873,0.861,0.876
		c0.107,0.002,0.191-0.174,0.245-0.684c0.024-0.254,0.042-0.594,0.054-1.035l-0.003-2.643l0.141,2.242
		c-0.371-7.082,0.004-9.808,0.245-11.721c0.242-1.983,0.344-3.168-0.564-8.308l0.959,0.986c-0.174-1.631-0.305-3.599-0.409-5.753
		c6.166-0.325,14.673-0.353,19.986-0.453l-0.383,0.185l5.877-0.324l2.551-0.182c1.396-0.079,2.281-0.088,3.211-0.078
		c1.857,0.021,3.9,0.124,10.604-0.105l-6.167,1.115c4.621,0.462,5.664-0.752,8.983-0.627c-0.236,0.186,0.532,0.885-2.603,1.06
		l16.268-1.705C342.937,315.891,338.265,315.91,337.661,315.503z"/>
	<linearGradient id="SVGID_85_" gradientUnits="userSpaceOnUse" x1="358.2402" y1="316.9541" x2="361.2334" y2="316.9541">
		<stop  offset="0" style="stop-color:#009EE2"/>
		<stop  offset="1" style="stop-color:#1D70B7"/>
	</linearGradient>
	<path fill="url(#SVGID_85_)" d="M358.24,316.928c0.861,0.048,1.841,0.072,2.993,0.035L358.24,316.928z"/>
	<linearGradient id="SVGID_86_" gradientUnits="userSpaceOnUse" x1="276.957" y1="371.5625" x2="277.0146" y2="371.5625">
		<stop  offset="0" style="stop-color:#009EE2"/>
		<stop  offset="1" style="stop-color:#1D70B7"/>
	</linearGradient>
	<path fill="url(#SVGID_86_)" d="M277.015,373.889l-0.01-4.653C276.948,370.678,276.931,372.181,277.015,373.889z"/>
	<linearGradient id="SVGID_87_" gradientUnits="userSpaceOnUse" x1="373.2773" y1="314.3438" x2="384.1592" y2="314.3438">
		<stop  offset="0" style="stop-color:#009EE2"/>
		<stop  offset="1" style="stop-color:#1D70B7"/>
	</linearGradient>
	<path fill="url(#SVGID_87_)" d="M381.556,314.836c-2.82-0.495,2.11-0.693,2.604-1.062l-10.104,0.019
		c0.048,0.369-0.954,0.781-0.751,1.119L381.556,314.836z"/>
	<linearGradient id="SVGID_88_" gradientUnits="userSpaceOnUse" x1="368.5234" y1="313.4502" x2="374.0557" y2="313.4502">
		<stop  offset="0" style="stop-color:#009EE2"/>
		<stop  offset="1" style="stop-color:#1D70B7"/>
	</linearGradient>
	<path fill="url(#SVGID_88_)" d="M371.134,313.098c-0.344,0.255-1.411,0.485-2.61,0.705l5.532-0.01
		C374.021,313.515,373.404,313.266,371.134,313.098z"/>
	<linearGradient id="SVGID_89_" gradientUnits="userSpaceOnUse" x1="367.707" y1="332.9434" x2="372.2012" y2="332.9434">
		<stop  offset="0" style="stop-color:#009EE2"/>
		<stop  offset="1" style="stop-color:#1D70B7"/>
	</linearGradient>
	<polygon fill="url(#SVGID_89_)" points="372.201,332.784 370.413,332.818 367.707,333.104 	"/>
	<linearGradient id="SVGID_90_" gradientUnits="userSpaceOnUse" x1="344.2305" y1="331.2598" x2="351.7773" y2="331.2598">
		<stop  offset="0" style="stop-color:#009EE2"/>
		<stop  offset="1" style="stop-color:#1D70B7"/>
	</linearGradient>
	<path fill="url(#SVGID_90_)" d="M344.23,331.163c2.138,0.56,6.19,0.135,7.547-0.007
		C347.104,331.173,349.131,330.962,344.23,331.163z"/>
	<linearGradient id="SVGID_91_" gradientUnits="userSpaceOnUse" x1="345.501" y1="337.3711" x2="350.002" y2="337.3711">
		<stop  offset="0" style="stop-color:#009EE2"/>
		<stop  offset="1" style="stop-color:#1D70B7"/>
	</linearGradient>
	<polygon fill="url(#SVGID_91_)" points="350.002,337.157 345.501,337.475 345.923,337.584 	"/>
	<linearGradient id="SVGID_92_" gradientUnits="userSpaceOnUse" x1="280.7822" y1="409.3691" x2="280.8477" y2="409.3691">
		<stop  offset="0" style="stop-color:#009EE2"/>
		<stop  offset="1" style="stop-color:#1D70B7"/>
	</linearGradient>
	<path fill="url(#SVGID_92_)" d="M280.782,408.269l0.065,2.2C280.851,409.46,280.821,408.803,280.782,408.269z"/>
	<linearGradient id="SVGID_93_" gradientUnits="userSpaceOnUse" x1="277.4414" y1="400.6025" x2="280.7822" y2="400.6025">
		<stop  offset="0" style="stop-color:#009EE2"/>
		<stop  offset="1" style="stop-color:#1D70B7"/>
	</linearGradient>
	<path fill="url(#SVGID_93_)" d="M279.87,369.64c-1.074,10.738-0.894-7.033-2.27-3.66l0.454,5.843l-0.368-0.497l0.12,7.126
		c0.635-1.462,0.673-2.56,1.337-2.242c-0.258,9.515-0.787,2.999-1.624,9.979l0.12,10.634l-0.198-0.861
		c0.013,0.896,0.096,1.292,0.206,1.599l0.411,35.836c0.528,6.52,1.195-3.606,2.171,1.203c-0.004-7.557,0.702-18.786-0.62-19.429
		c0.184,0.255,0.548,0.756,0.706-0.777l-1.091-4.369l-0.347,4.167c-1.086-4.395-0.844-18.586-0.171-21.153
		c0.37,8.069,1.678,4.021,0.969,15.264c0.334-0.505,0.927-2.563,1.106-0.031C280.399,395.096,281.003,383.287,279.87,369.64z"/>
	<linearGradient id="SVGID_94_" gradientUnits="userSpaceOnUse" x1="270.5859" y1="472.1895" x2="270.8154" y2="472.1895">
		<stop  offset="0" style="stop-color:#009EE2"/>
		<stop  offset="1" style="stop-color:#1D70B7"/>
	</linearGradient>
	<path fill="url(#SVGID_94_)" d="M270.708,472.249l0.107-0.12C270.573,472.194,270.499,472.239,270.708,472.249z"/>
	<linearGradient id="SVGID_95_" gradientUnits="userSpaceOnUse" x1="270.8154" y1="471.7637" x2="276.8496" y2="471.7637">
		<stop  offset="0" style="stop-color:#009EE2"/>
		<stop  offset="1" style="stop-color:#1D70B7"/>
	</linearGradient>
	<path fill="url(#SVGID_95_)" d="M275.025,472.412c0.787-0.432,1.394-0.865,1.824-1.297l-1.43,0.052l-1.378,0.026l-2.503,0.025
		l-0.724,0.91c0.439-0.116,1.539-0.29,2.694-0.389l0.873-0.059l0.66-0.02c0.174,0.003,0.326,0.042,0.45,0.132
		C275.355,472,275.199,472.204,275.025,472.412z"/>
	<linearGradient id="SVGID_96_" gradientUnits="userSpaceOnUse" x1="277.1963" y1="471.5146" x2="279.9844" y2="471.5146">
		<stop  offset="0" style="stop-color:#009EE2"/>
		<stop  offset="1" style="stop-color:#1D70B7"/>
	</linearGradient>
	<path fill="url(#SVGID_96_)" d="M278.268,470.332c-0.838,0.386-0.411,1.458,1.025,1.945c-1.462,0.494-1.508-1.15-2.097-0.02
		c0.348,0.773,2.477,0.319,2.788,0.177C279.438,471.733,278.863,471.031,278.268,470.332z"/>
	<linearGradient id="SVGID_97_" gradientUnits="userSpaceOnUse" x1="279.1553" y1="445.001" x2="279.7148" y2="445.001">
		<stop  offset="0" style="stop-color:#009EE2"/>
		<stop  offset="1" style="stop-color:#1D70B7"/>
	</linearGradient>
	<polygon fill="url(#SVGID_97_)" points="279.155,445.338 279.598,446.792 279.715,443.21 	"/>
	<linearGradient id="SVGID_98_" gradientUnits="userSpaceOnUse" x1="279.4775" y1="448.5703" x2="280.3574" y2="448.5703">
		<stop  offset="0" style="stop-color:#009EE2"/>
		<stop  offset="1" style="stop-color:#1D70B7"/>
	</linearGradient>
	<path fill="url(#SVGID_98_)" d="M279.598,446.792l-0.12,3.557c0.33-0.247,0.652-0.49,0.88-1.069L279.598,446.792z"/>
	<linearGradient id="SVGID_99_" gradientUnits="userSpaceOnUse" x1="279.002" y1="462.2764" x2="279.168" y2="462.2764">
		<stop  offset="0" style="stop-color:#009EE2"/>
		<stop  offset="1" style="stop-color:#1D70B7"/>
	</linearGradient>
	<path fill="url(#SVGID_99_)" d="M279.168,459.678c-0.078,1.506-0.138,3.169-0.166,5.197L279.168,459.678z"/>
	<linearGradient id="SVGID_100_" gradientUnits="userSpaceOnUse" x1="279.168" y1="457.6445" x2="279.4424" y2="457.6445">
		<stop  offset="0" style="stop-color:#009EE2"/>
		<stop  offset="1" style="stop-color:#1D70B7"/>
	</linearGradient>
	<polygon fill="url(#SVGID_100_)" points="279.442,455.61 279.303,455.732 279.168,459.678 	"/>
	<linearGradient id="SVGID_101_" gradientUnits="userSpaceOnUse" x1="278.1162" y1="453.5459" x2="279.4775" y2="453.5459">
		<stop  offset="0" style="stop-color:#009EE2"/>
		<stop  offset="1" style="stop-color:#1D70B7"/>
	</linearGradient>
	<path fill="url(#SVGID_101_)" d="M279.478,450.349c-0.749,0.576-1.536,1.254-1.327,6.395l1.152-1.011L279.478,450.349z"/>
	<linearGradient id="SVGID_102_" gradientUnits="userSpaceOnUse" x1="313.1973" y1="336.2969" x2="317.6914" y2="336.2969">
		<stop  offset="0" style="stop-color:#009EE2"/>
		<stop  offset="1" style="stop-color:#1D70B7"/>
	</linearGradient>
	<polygon fill="url(#SVGID_102_)" points="317.262,336.027 313.197,336.451 313.63,336.567 317.691,336.143 	"/>
	<linearGradient id="SVGID_103_" gradientUnits="userSpaceOnUse" x1="299.1992" y1="335.5469" x2="300.001" y2="335.5469">
		<stop  offset="0" style="stop-color:#009EE2"/>
		<stop  offset="1" style="stop-color:#1D70B7"/>
	</linearGradient>
	<path fill="url(#SVGID_103_)" d="M300.001,335.341c-0.383,0.132-0.62,0.271-0.802,0.412
		C299.604,335.671,299.888,335.546,300.001,335.341z"/>
	<linearGradient id="SVGID_104_" gradientUnits="userSpaceOnUse" x1="298.7813" y1="344.5156" x2="304.332" y2="344.5156">
		<stop  offset="0" style="stop-color:#009EE2"/>
		<stop  offset="1" style="stop-color:#1D70B7"/>
	</linearGradient>
	<path fill="url(#SVGID_104_)" d="M303.47,342.574c-0.38,0.355-0.628,0.122-0.822-0.155c-0.099-0.127-0.185-0.24-0.267-0.198
		c-0.042,0.021-0.081,0.081-0.119,0.201l-0.061,0.232c-0.012,0.072-0.021,0.032-0.032,0.216l-0.032,0.773
		c-0.174,0.194-0.362,0.081-0.542-0.263c-0.09-0.146-0.174-0.468-0.257-0.62c-0.081-0.079-0.159-0.179-0.226-0.295
		c-0.271-0.453-0.409-1.214-0.235-1.81c0.66,0.417,0.422,1.313,1.101,0.848c-0.766-1-0.245-1.146-1.241-1.355
		c-0.554-1.678-1.175-2.581-1.761-4.175c0.057-0.074,0.128-0.148,0.224-0.221c-0.116,0.024-0.245,0.044-0.383,0.059
		c0.135,1.462-0.006,3.218-0.035,5.199l0.011,1.476l0.088,2.809c0.096,2.072,0.27,4.022,0.571,5.713
		c1.199,3.941,2.834,1.553,4.565,1.566c0.203-0.296,0.351-2.997,0.309-5.673c-0.021-1.34-0.093-2.67-0.23-3.69l-0.054-0.367
		c-0.021-0.112-0.039-0.054-0.06-0.089l-0.142-0.073C303.736,342.636,303.613,342.597,303.47,342.574z"/>
	<linearGradient id="SVGID_105_" gradientUnits="userSpaceOnUse" x1="304.8311" y1="342.2266" x2="305.2354" y2="342.2266">
		<stop  offset="0" style="stop-color:#009EE2"/>
		<stop  offset="1" style="stop-color:#1D70B7"/>
	</linearGradient>
	<path fill="url(#SVGID_105_)" d="M305.198,342.444c0.086-0.032,0.015-0.086-0.129-0.274
		C304.478,341.701,305.17,342.402,305.198,342.444z"/>
	<linearGradient id="SVGID_106_" gradientUnits="userSpaceOnUse" x1="292.166" y1="385.3145" x2="293.1406" y2="385.3145">
		<stop  offset="0" style="stop-color:#009EE2"/>
		<stop  offset="1" style="stop-color:#1D70B7"/>
	</linearGradient>
	<path fill="url(#SVGID_106_)" d="M292.166,384.723c0.245,0.424,0.55,4.428,0.975,3.566l-0.312-6.07
		C292.791,383.644,292.489,384.145,292.166,384.723z"/>
	<linearGradient id="SVGID_107_" gradientUnits="userSpaceOnUse" x1="292.6982" y1="380.8867" x2="292.835" y2="380.8867">
		<stop  offset="0" style="stop-color:#009EE2"/>
		<stop  offset="1" style="stop-color:#1D70B7"/>
	</linearGradient>
	<path fill="url(#SVGID_107_)" d="M292.698,379.555l0.131,2.664C292.851,381.552,292.818,380.729,292.698,379.555z"/>
	<linearGradient id="SVGID_108_" gradientUnits="userSpaceOnUse" x1="292.0098" y1="384.8447" x2="292.166" y2="384.8447">
		<stop  offset="0" style="stop-color:#009EE2"/>
		<stop  offset="1" style="stop-color:#1D70B7"/>
	</linearGradient>
	<path fill="url(#SVGID_108_)" d="M292.01,385.01l0.156-0.287C292.112,384.639,292.059,384.652,292.01,385.01z"/>
	<linearGradient id="SVGID_109_" gradientUnits="userSpaceOnUse" x1="278.4756" y1="469.0332" x2="278.8008" y2="469.0332">
		<stop  offset="0" style="stop-color:#009EE2"/>
		<stop  offset="1" style="stop-color:#1D70B7"/>
	</linearGradient>
	<path fill="url(#SVGID_109_)" d="M278.739,468.591c-0.476-0.253-0.191,0.483-0.05,0.936
		C278.729,469.3,278.886,468.996,278.739,468.591z"/>
	<linearGradient id="SVGID_110_" gradientUnits="userSpaceOnUse" x1="193.8535" y1="472.1602" x2="196.2407" y2="472.1602">
		<stop  offset="0" style="stop-color:#009EE2"/>
		<stop  offset="1" style="stop-color:#1D70B7"/>
	</linearGradient>
	<path fill="url(#SVGID_110_)" d="M196.241,472.35l-2.387-0.379C194.698,472.197,195.13,472.308,196.241,472.35z"/>
	<linearGradient id="SVGID_111_" gradientUnits="userSpaceOnUse" x1="158.9277" y1="485.4463" x2="159.4136" y2="485.4463">
		<stop  offset="0" style="stop-color:#009EE2"/>
		<stop  offset="1" style="stop-color:#1D70B7"/>
	</linearGradient>
	<path fill="url(#SVGID_111_)" d="M159.414,485.325c-0.071,0.093-0.248,0.169-0.486,0.242
		C159.166,485.509,159.332,485.429,159.414,485.325z"/>
	<linearGradient id="SVGID_112_" gradientUnits="userSpaceOnUse" x1="147.2969" y1="485.8438" x2="158.9277" y2="485.8438">
		<stop  offset="0" style="stop-color:#009EE2"/>
		<stop  offset="1" style="stop-color:#1D70B7"/>
	</linearGradient>
	<path fill="url(#SVGID_112_)" d="M158.928,485.567c-1.631,0.396-6.676-0.221-8.488,0.381l0.23-0.184l-3.373,0.355
		C150.461,486.068,157.098,486.143,158.928,485.567z"/>
	<linearGradient id="SVGID_113_" gradientUnits="userSpaceOnUse" x1="42.3179" y1="250" x2="195.0698" y2="250">
		<stop  offset="0" style="stop-color:#009EE2"/>
		<stop  offset="1" style="stop-color:#1D70B7"/>
	</linearGradient>
	<path fill-rule="evenodd" clip-rule="evenodd" fill="url(#SVGID_113_)" d="M132.32,65.602c2.884,1.181,5.576,5.042,7.885,7.057
		c3.735,3.257,9.255,2.829,13.902,3.793c9.049,1.872,18.186,3.585,26.352,8.081c8.385,4.615,8.237,21.605,9.424,30.028
		c1.128,8.056,2.058,16.124,3.026,24.203c2.157,17.544,2.299,35.032,2.09,52.699c-0.1,8.868-0.656,17.709-1.093,26.57
		c-0.1,1.918-1.32,24.384-1.139,24.349c0.479-0.085,0.83-0.743,1.139-1.074c0.437-0.145-2.717,5.771-1.589,5.86
		c-0.039,0,1.752-0.892,1.455-0.709c-0.078-0.665-2.324,5.484-1.561,5.03c0.145-0.098,1.401-1.111,1.16-0.938
		c0.017,0.378-1.458,10.793-0.703,10.575c-0.656,0.195-2.349-0.746-2.82-0.996c-0.841-0.464-0.507,1.227-1.04,1.293
		c-0.664,0.098-4.522-0.511-4.47,0.11c0.497,4.889-1.202,14.329-5.253,17.582c-1.565,1.229-9.077,9.199-10.485,6.748
		c-0.604-1.021-1.178,0.662-1.625,0.893c-0.631,1.624-2.008-0.179-2.508,0.805c0,1.929,0.163,3.863,0.272,5.782
		c1.721,26.506-0.039,53.024,3.7,79.37c3.395,23.829,7.236,49.205,6.47,73.32c-0.23,6.828-2.355,12.765-3.313,19.376
		c-0.709,4.896,0.976,8.259,2.182,13.344c3.043,12.98-5.612,22.391-18.739,21.134c-10.234-0.976-10.575-5.069-10.291-13.886
		c0.255-7.78,3.469-14.622-1.653-21.802c-6.992-9.794-4.945-21.023-2.302-32.231c1.029-4.352,2.302-7.525,0.603-11.705
		c-2.019-4.936-3.767-9.903-5.278-15.017c-5.686-19.183-8.123-38.929-11.869-58.518c-1.043-5.476-7.761-42.426-10.156-42.281
		c-2.085,11.693,1.341,23.489-0.067,35.41c-1.078,9.14-2.468,18.218-3.699,27.341c-1.692,12.719-1.306,25.981-2.25,38.811
		c-0.741,9.974-0.567,20.081-1.316,30.078c-0.383,5.231-0.336,10.608-3.185,15.242c-1.625,2.679-1.635,10.164-1.121,12.857
		c1.76,7.789-3.632,12.688-11.667,12.476c-3.388-0.098-3.98-1.675-6.797,0.655c-2.355,1.952-3.952,4.573-6.175,6.533
		c-2.87,3.818-12.785,4.839-17.151,5.062c-2.246,0.108-14.065,0.734-14.703-2.238c-0.863-3.95,3.59-9.062,6.183-11.651
		c2.355-3.543,7.169-4.654,10.201-7.434c0.139-0.151,5.218-6.441,4.517-6.599c-0.437-0.095-1.334,0.15-1.795,0.234
		c1.277-0.097,3.228-3.66,4.034-6.177c1.486-4.59,0.784-10.475,4.756-13.953c1.547-1.347-0.997-8.295-1.295-10.208
		c-0.773-4.958-1.582-9.97-1.937-14.986c-1.175-16.388-0.784-33.013-0.358-49.419c0.45-16.589-1.788-32.094-3.849-48.479
		c-1.096-8.786-2.107-17.585-2.87-26.419c-0.199-2.327-3.225-27.722-3.742-27.673c-1.798,0.156-1.76,4.739-4.09,4.604
		c-2.04-0.115-3.252-4.287-3.948-5.88c-1.777-4.006-3.633-8.004-5.168-12.109c-1.848-4.927-3.866-9.633-4.235-14.929
		c-0.422-6.09,1.965-9.578,4.938-14.637c1.291-2.212,0.887-5.047,2.688-7.391c1.434-1.869,0.703-2.693,0.057-4.864
		c-1.461-4.911-2.021-9.876-2.458-14.956c-0.631-3.48-1.217-12.997,0.883-15.884c3.278-4.479,1.908-12.223,2.689-17.906
		c1.362-9.668,2.94-19.331,4.604-28.945c1.664-9.625,2.352-20.2,5.59-29.462c2.168-7.896,14.048-11.011,20.794-14.088
		c2.636-1.219,8.379-2.729,9.989-5.047c0.514-0.757-0.618-4.138,0.822-4.597c0.791-0.246,5.318,0.967,5.598,0.075
		c-0.408-0.29-0.749-0.637-1.028-1.039c4.916-8.434-0.568-9.376-4.665-16.924c-0.156-0.287-1.021-2.928-1.465-3.139
		c-1.238-0.547-2.316,0.277-2.862-1.965c-0.873-3.66-3.076-6.509-4.274-10.009c-0.915-2.706-0.71-4.597-0.674-7.205
		c-0.741-4.007-1.213-9.369-1.313-13.48c-0.191-8.302,5.246-14.88,10.983-19.951c5.743-5.097,16.245-4.789,23.454-2.993
		c4.047,1.008,6.52,4.864,10.575,5.583c3.746,0.658,5.98,4.952,6.995,8.19c1.089,3.49,0.195,10.746,2.093,13.392
		c1.263,1.799-0.755,3.74-0.046,5.333c0.94,2.085,1.525,3.387,1.819,5.702c0.468,3.58-1.142,7.643-2.976,10.793
		c-0.745,1.286-3.267,2.64-2.718,4.373c0.093,0.319,1.876,3.925,2.03,3.799C133.824,58.876,133.476,66.069,132.32,65.602"/>
</g>
</svg>
