<?xml version="1.0" encoding="utf-8"?>
<!-- Generator: Adobe Illustrator 15.0.0, SVG Export Plug-In . SVG Version: 6.00 Build 0)  -->
<!DOCTYPE svg PUBLIC "-//W3C//DTD SVG 1.0//EN" "http://www.w3.org/TR/2001/REC-SVG-20010904/DTD/svg10.dtd">
<svg version="1.0" id="Layer_1" xmlns="http://www.w3.org/2000/svg" xmlns:xlink="http://www.w3.org/1999/xlink" x="0px" y="0px"
	 width="500px" height="500px" viewBox="0 0 500 500" enable-background="new 0 0 500 500" xml:space="preserve">
<g>
	<g>
		<g>
			<polyline fill="#FFFFFF" points="165.05,473.89 270.253,368.69 375.456,473.89 480.655,368.69 375.452,263.49 480.655,158.286 
				375.456,53.086 270.253,158.29 165.05,53.086 			"/>
		</g>
		<g>
			<linearGradient id="SVGID_1_" gradientUnits="userSpaceOnUse" x1="500.75" y1="66.0303" x2="163.265" y2="66.0303">
				<stop  offset="0" style="stop-color:#BE1622"/>
				<stop  offset="1" style="stop-color:#E30613"/>
			</linearGradient>
			<path fill="url(#SVGID_1_)" d="M187.002,74.792c-1.978-1.833-3.235-3.896-2.338-3.361c-4.368-3.392-3.896-4.03-5.346-3.585
				c-2.956-2.024-4.967-5.326-1.75-2.876l-7.761-6.6l4.146,4.441c-1.956-0.382-6.624-7.095-8.903-7.539l7.849,7.695l-0.651-0.125
				c2.053,1.487,5.373,5.042,6.46,6.351c-0.32-0.06-0.409,0.272-1.804-1.075c9.324,9.443,3.907,1.148,11.955,8.673
				C188.352,76.321,187.758,75.706,187.002,74.792z"/>
			<linearGradient id="SVGID_2_" gradientUnits="userSpaceOnUse" x1="500.75" y1="86.4326" x2="163.265" y2="86.4326">
				<stop  offset="0" style="stop-color:#BE1622"/>
				<stop  offset="1" style="stop-color:#E30613"/>
			</linearGradient>
			<path fill="url(#SVGID_2_)" d="M193.044,84.692l4.262,2.286l5.236,5.746c0.404-0.278,4.68,3.445,2.272,0.436
				c-0.583-0.476-1.732-1.421-2.546-2.297c1.35-0.124,7.671,6.934,6.803,4.574c-4.538-4.147-5.042-4.976-8.314-7.051
				c-3.914-4.05-6.643-7.119-8.233-9.247c-1.294-1.069-1.911-0.784-3.504-2.194l1.048,0.99l-0.946,1.272
				c1.486,1.018,2.559,2.312,3.971,3.679l-7.723-5.134c1.035,3.111,7.962,8.818,10.052,11.771
				C193.226,85.462,198.379,91.555,193.044,84.692z"/>
			<linearGradient id="SVGID_3_" gradientUnits="userSpaceOnUse" x1="500.75" y1="76.8672" x2="163.265" y2="76.8672">
				<stop  offset="0" style="stop-color:#BE1622"/>
				<stop  offset="1" style="stop-color:#E30613"/>
			</linearGradient>
			<path fill="url(#SVGID_3_)" d="M189.02,76.946l-0.16-0.156L189.02,76.946z"/>
			<linearGradient id="SVGID_4_" gradientUnits="userSpaceOnUse" x1="500.75" y1="336.623" x2="163.265" y2="336.6231">
				<stop  offset="0" style="stop-color:#BE1622"/>
				<stop  offset="1" style="stop-color:#E30613"/>
			</linearGradient>
			<path fill="url(#SVGID_4_)" d="M465.338,340.362c1.385,1.346,2.053,1.486,2.379,1.551l-15.407-15.364
				c0.19,0.771,4.264,5.563,1.127,2.777c0.998,1.645,5.298,5.391,6.273,5.581l-1.558-0.671c4.113,2.975,5.416,6.514,2.771,4.54
				l0.306,0.291l12.009,7.63C469.759,342.965,469.705,344.677,465.338,340.362z"/>
			<linearGradient id="SVGID_5_" gradientUnits="userSpaceOnUse" x1="500.75" y1="449.9736" x2="163.265" y2="449.9737">
				<stop  offset="0" style="stop-color:#BE1622"/>
				<stop  offset="1" style="stop-color:#E30613"/>
			</linearGradient>
			<path fill="url(#SVGID_5_)" d="M194.022,451.146c1.891-2.093,2.031-2.444,1.697-2.326
				C195.086,449.617,194.501,450.389,194.022,451.146z"/>
			<linearGradient id="SVGID_6_" gradientUnits="userSpaceOnUse" x1="500.75" y1="349.8154" x2="163.265" y2="349.8155">
				<stop  offset="0" style="stop-color:#BE1622"/>
				<stop  offset="1" style="stop-color:#E30613"/>
			</linearGradient>
			<path fill="url(#SVGID_6_)" d="M476.043,348.48l1.881,1.195l0.94,0.6c0.276,0.161,0.818,0.589,1.221,0.876
				c-1.116-0.934-1.637-1.238-2.308-1.677C477.138,349.069,476.553,348.735,476.043,348.48z"/>
			<linearGradient id="SVGID_7_" gradientUnits="userSpaceOnUse" x1="500.75" y1="338.1855" x2="163.265" y2="338.1856">
				<stop  offset="0" style="stop-color:#BE1622"/>
				<stop  offset="1" style="stop-color:#E30613"/>
			</linearGradient>
			<path fill="url(#SVGID_7_)" d="M444.317,337.592c-0.043,0.028-0.108,0.028-0.075,0.158l1.729,1.029l-0.036-0.035L444.317,337.592
				z"/>
			<linearGradient id="SVGID_8_" gradientUnits="userSpaceOnUse" x1="500.75" y1="430.2637" x2="163.265" y2="430.2637">
				<stop  offset="0" style="stop-color:#BE1622"/>
				<stop  offset="1" style="stop-color:#E30613"/>
			</linearGradient>
			<path fill="url(#SVGID_8_)" d="M435.804,429.734l-0.962,1.059C435.205,430.42,435.517,430.068,435.804,429.734z"/>
			<linearGradient id="SVGID_9_" gradientUnits="userSpaceOnUse" x1="500.75" y1="306.6982" x2="163.265" y2="306.6983">
				<stop  offset="0" style="stop-color:#BE1622"/>
				<stop  offset="1" style="stop-color:#E30613"/>
			</linearGradient>
			<path fill="url(#SVGID_9_)" d="M398.712,299.821l7.501,6.181c-1.224-0.6,2.172,2.605,0.366,1.529
				c0.57,0.474,3.141,2.792,2.635,1.966l-1.418-1.374c4.519,2.699,2.681,0.161,9.356,5.451c-3.177-4.253-5.297-5.387-7.677-6.94
				c-0.732-0.604-1.317-1.135-1.917-1.666l-6.959-4.418L398.712,299.821z"/>
			<linearGradient id="SVGID_10_" gradientUnits="userSpaceOnUse" x1="500.75" y1="375.8799" x2="163.265" y2="375.8799">
				<stop  offset="0" style="stop-color:#BE1622"/>
				<stop  offset="1" style="stop-color:#E30613"/>
			</linearGradient>
			<path fill="url(#SVGID_10_)" d="M290.473,375.89l0.144,0.004C290.523,375.851,290.487,375.861,290.473,375.89z"/>
			<linearGradient id="SVGID_11_" gradientUnits="userSpaceOnUse" x1="500.75" y1="376.251" x2="163.265" y2="376.251">
				<stop  offset="0" style="stop-color:#BE1622"/>
				<stop  offset="1" style="stop-color:#E30613"/>
			</linearGradient>
			<path fill="url(#SVGID_11_)" d="M291.209,375.9l-0.593-0.007C291.133,376.115,292.68,377.383,291.209,375.9z"/>
			<linearGradient id="SVGID_12_" gradientUnits="userSpaceOnUse" x1="500.75" y1="347.5889" x2="163.265" y2="347.5889">
				<stop  offset="0" style="stop-color:#BE1622"/>
				<stop  offset="1" style="stop-color:#E30613"/>
			</linearGradient>
			<path fill="url(#SVGID_12_)" d="M474.328,347.938c0.262-0.075,0.861,0.111,1.715,0.542l-2.806-1.783L474.328,347.938z"/>
			<linearGradient id="SVGID_13_" gradientUnits="userSpaceOnUse" x1="500.75" y1="341.0586" x2="163.265" y2="341.0586">
				<stop  offset="0" style="stop-color:#BE1622"/>
				<stop  offset="1" style="stop-color:#E30613"/>
			</linearGradient>
			<path fill="url(#SVGID_13_)" d="M467.121,344.701l-5.893-5.634l-2.599-1.651C461.017,339.443,463.716,341.898,467.121,344.701z"
				/>
			<linearGradient id="SVGID_14_" gradientUnits="userSpaceOnUse" x1="500.75" y1="404.3408" x2="163.265" y2="404.3409">
				<stop  offset="0" style="stop-color:#BE1622"/>
				<stop  offset="1" style="stop-color:#E30613"/>
			</linearGradient>
			<path fill="url(#SVGID_14_)" d="M445.44,421.168c-11.797,12.077,1.862-4.006-3.88,1.224c-3.187,3.442-3.851,5.118-5.757,7.343
				c9.034-9.901,0.388,2.958,9.669-6.861c-0.438,2.275-5.886,7.888-9.374,10.878c-4.551,2.785,2.555-3.852,2.52-5.549
				c-3.689,3.973-2.854,3.46-3.984,5.581c-6.223,5.811-11.362,13.537-16.183,15.902c-4.159,4.551-3.448,4.688-5.487,7.659
				c0.448,1.446,6.974-5.979,9.335-6.848c-0.413,0.255-1.228,0.746-1.17,0.423l3.966-3.567c-3.905,3.245-0.452-1.442,1.386-3.427
				c1.37-1.407,4.087-4.214,3.969-3.571l-1.898,2.308c3.008-2.408,5.283-6.665,8.656-9.012c0.363,0.061-0.62,1.241-0.649,1.539
				c2.556-3.851,5.685-6.904,9.971-12.105l-1.81,3.689c2.753-4.834,11.643-13.132,18.146-18.536
				c-0.822,0.502-2.121,1.579-1.59,0.685c3.272-3.725,6.561-5.721,5.434-3.606c2.655-4.214,13.634-12.321,17.359-18.074
				c6.126-7.756,11.435-14.696,15.932-20.826c-7.372-5.821-14.012-10.911-19.915-15.264c1.299,1.059,2.685,2.25,4.056,3.538
				c1.83,3.481,3.165,4.612-2.491,0.514c5.121,4.249,4.36,2.164,11.732,9.468c-3.363-2.609-5.369-2.972-1.084,1.744l-1.604,1.515
				c-3.589,3.998-6.84,7.855-10.106,11.829l-1.224,1.493l-0.613,0.75l-0.424,0.566l-1.604,2.189l-3.101,4.328
				c-4.07,5.75-7.993,11.441-13.018,17.669c-1.052-0.223-9.708,8.789-14.147,12.935c0.955-2.322,3.948-5.703,7.117-9.148
				l-8.392,8.208L445.44,421.168z"/>
			<linearGradient id="SVGID_15_" gradientUnits="userSpaceOnUse" x1="500.75" y1="391.4639" x2="163.265" y2="391.4639">
				<stop  offset="0" style="stop-color:#BE1622"/>
				<stop  offset="1" style="stop-color:#E30613"/>
			</linearGradient>
			<path fill="url(#SVGID_15_)" d="M471.277,391.057c-0.359,0.247-0.7,0.527-1.052,0.814
				C470.448,391.757,470.768,391.516,471.277,391.057z"/>
			<linearGradient id="SVGID_16_" gradientUnits="userSpaceOnUse" x1="500.75" y1="409.9912" x2="163.265" y2="409.9912">
				<stop  offset="0" style="stop-color:#BE1622"/>
				<stop  offset="1" style="stop-color:#E30613"/>
			</linearGradient>
			<path fill="url(#SVGID_16_)" d="M454.6,409.554c0.018-0.064-0.019-0.068-0.029-0.111l-0.997,1.099L454.6,409.554z"/>
			<linearGradient id="SVGID_17_" gradientUnits="userSpaceOnUse" x1="500.75" y1="351.5361" x2="163.265" y2="351.5362">
				<stop  offset="0" style="stop-color:#BE1622"/>
				<stop  offset="1" style="stop-color:#E30613"/>
			</linearGradient>
			<path fill="url(#SVGID_17_)" d="M475.713,352.195c-0.894-0.531-1.475-1.012-2.372-1.543c0.503,0.38,1.102,0.883,1.69,1.36
				C475.624,352.433,475.95,352.587,475.713,352.195z"/>
			<linearGradient id="SVGID_18_" gradientUnits="userSpaceOnUse" x1="500.75" y1="348.3643" x2="163.265" y2="348.3643">
				<stop  offset="0" style="stop-color:#BE1622"/>
				<stop  offset="1" style="stop-color:#E30613"/>
			</linearGradient>
			<path fill="url(#SVGID_18_)" d="M474.421,348.671l0.646,0.118l-0.739-0.851C474.102,347.996,474.073,348.204,474.421,348.671z"/>
			<linearGradient id="SVGID_19_" gradientUnits="userSpaceOnUse" x1="500.75" y1="461.6816" x2="163.265" y2="461.6817">
				<stop  offset="0" style="stop-color:#BE1622"/>
				<stop  offset="1" style="stop-color:#E30613"/>
			</linearGradient>
			<path fill="url(#SVGID_19_)" d="M394.075,461.041l-1.009,1.281C393.749,461.623,393.989,461.268,394.075,461.041z"/>
			<linearGradient id="SVGID_20_" gradientUnits="userSpaceOnUse" x1="500.75" y1="415.3613" x2="163.265" y2="415.3614">
				<stop  offset="0" style="stop-color:#BE1622"/>
				<stop  offset="1" style="stop-color:#E30613"/>
			</linearGradient>
			<path fill="url(#SVGID_20_)" d="M431.063,433.385c4.087-4.214-0.452-1.442,5.415-7.321l-1.78,1.665
				c3.809-4.619,11.402-11.84,16.373-16.883c-0.183,0.948,3.499-2.573,3.499-1.403c3.284-3.56,6.547-7.081,7.702-9.449
				c2.318-1.92,5.007-5.674,7.953-8.122c-1.493,0.786,2.638-5.035-3.488,1.96c0.48-0.582,0.068-0.33,0.542-0.901
				c-4.723,3.732-5.577,6.267-9.206,9.917c-2.526,1.826,2.993-4.124,0.801-2.211c-4.221,4.873-14.689,13.846-13.071,14.861
				c-3.216,3.402-3.962,3.567-5.189,4.314c-3.829,6.636-20.026,18.82-18.186,20.568c1.842-1.981,4.992-5.058,7.411-8.244
				L431.063,433.385z"/>
			<linearGradient id="SVGID_21_" gradientUnits="userSpaceOnUse" x1="500.75" y1="360.9775" x2="163.265" y2="360.9776">
				<stop  offset="0" style="stop-color:#BE1622"/>
				<stop  offset="1" style="stop-color:#E30613"/>
			</linearGradient>
			<path fill="url(#SVGID_21_)" d="M484.18,360.479l0.962,0.998L484.18,360.479z"/>
			<linearGradient id="SVGID_22_" gradientUnits="userSpaceOnUse" x1="500.75" y1="328.2266" x2="163.265" y2="328.2266">
				<stop  offset="0" style="stop-color:#BE1622"/>
				<stop  offset="1" style="stop-color:#E30613"/>
			</linearGradient>
			<path fill="url(#SVGID_22_)" d="M435.589,301.479l2.91,0.563c10.168,9.607,13.412,13.509,22.102,22.108
				c0.498,0.821-0.65-0.126-1.235-0.606c6.213,5.943,15.06,15.281,20.023,19.165c0.48,0.488,1.138,1.191,1.813,1.952l2.178,2.516
				c2.143,2.416,3.299,3.93,1.418,2.397c1.763,1.551,3.797,3.385,5.656,5.319c-0.09,0.757-4.411-4.167-4.935-3.998
				c1.446,1.5,1.909,2.128,2.422,2.376c-1.475-1.113-1.284-0.209-2.153-0.46c-0.431-0.118-1.108-0.517-2.343-1.547
				c-0.618-0.513-1.375-1.188-2.309-2.067l-1.138-1.076l-1.159-1.146c-0.811-1.794,0.385-0.656,1.727,0.604
				c0.484,0.441,1.852,1.762,2.613,2.347c0.796,0.625,1.26,0.79,0.907-0.104c-0.947-0.955-1.661-1.619-2.199-2.074
				c-0.398-0.316-0.589-0.396-0.783-0.471c-0.358-0.118-0.48,0.04-0.642,0.011c-2.821-2.871-2.474-3.068-2.075-3.165
				c-1.428-0.754-4.536-4.803-6.553-5.797c-5.617-5.447,1.116-0.513-2.509-4.116l-3.188-0.979l-5.8-6.216
				c-9.083-8.313-0.656,3.144-11.223-6.174c1.881,0.732-1.141-4.224-5.541-9.08c2.811,2.729,8.646,7.128,11.894,11.029
				c-4.178-5.9,7.038,6.83,5.412,3.23c-2.961-2.024-7.174-6.112-10.16-9.604l1.163,0.962c-3.327-3.561-7.085-5.018-11.396-10.207
				c-2.397-2.325-1.644-2.196-0.973-2.038C437.351,303.303,435.352,301.731,435.589,301.479z M440.965,306.396l3.047,3.266
				C443.445,308.733,442.261,307.56,440.965,306.396z"/>
			<linearGradient id="SVGID_23_" gradientUnits="userSpaceOnUse" x1="500.75" y1="128.208" x2="163.265" y2="128.208">
				<stop  offset="0" style="stop-color:#BE1622"/>
				<stop  offset="1" style="stop-color:#E30613"/>
			</linearGradient>
			<path fill="url(#SVGID_23_)" d="M237.37,128.732l-0.87-1.048C236.659,127.945,237,128.331,237.37,128.732z"/>
			<linearGradient id="SVGID_24_" gradientUnits="userSpaceOnUse" x1="500.75" y1="187.3286" x2="163.265" y2="187.3286">
				<stop  offset="0" style="stop-color:#BE1622"/>
				<stop  offset="1" style="stop-color:#E30613"/>
			</linearGradient>
			<path fill="url(#SVGID_24_)" d="M441.991,188.225l1.866-1.793C443.104,187.109,442.512,187.69,441.991,188.225z"/>
			<linearGradient id="SVGID_25_" gradientUnits="userSpaceOnUse" x1="500.75" y1="155.25" x2="163.265" y2="155.25">
				<stop  offset="0" style="stop-color:#BE1622"/>
				<stop  offset="1" style="stop-color:#E30613"/>
			</linearGradient>
			<path fill="url(#SVGID_25_)" d="M466.335,155.413c-0.301-0.129-0.581-0.239-0.84-0.327
				C465.679,155.235,465.962,155.316,466.335,155.413z"/>
			<linearGradient id="SVGID_26_" gradientUnits="userSpaceOnUse" x1="500.75" y1="151.2188" x2="163.265" y2="151.2188">
				<stop  offset="0" style="stop-color:#BE1622"/>
				<stop  offset="1" style="stop-color:#E30613"/>
			</linearGradient>
			<polygon fill="url(#SVGID_26_)" points="259.362,150.873 259.486,151.013 260.155,151.565 			"/>
			<linearGradient id="SVGID_27_" gradientUnits="userSpaceOnUse" x1="500.75" y1="75.8984" x2="163.265" y2="75.8985">
				<stop  offset="0" style="stop-color:#BE1622"/>
				<stop  offset="1" style="stop-color:#E30613"/>
			</linearGradient>
			<path fill="url(#SVGID_27_)" d="M392.841,76.765c-0.316-0.501-0.686-1.041-1.245-1.732
				C391.56,75.216,392.037,75.853,392.841,76.765z"/>
			<linearGradient id="SVGID_28_" gradientUnits="userSpaceOnUse" x1="500.75" y1="155.4497" x2="163.265" y2="155.4497">
				<stop  offset="0" style="stop-color:#BE1622"/>
				<stop  offset="1" style="stop-color:#E30613"/>
			</linearGradient>
			<polygon fill="url(#SVGID_28_)" points="466.508,155.486 466.511,155.452 466.335,155.413 			"/>
			<linearGradient id="SVGID_29_" gradientUnits="userSpaceOnUse" x1="500.75" y1="203.7432" x2="163.265" y2="203.7432">
				<stop  offset="0" style="stop-color:#BE1622"/>
				<stop  offset="1" style="stop-color:#E30613"/>
			</linearGradient>
			<path fill="url(#SVGID_29_)" d="M420.688,203.103l-1.063,1.281C420.156,203.81,420.454,203.43,420.688,203.103z"/>
			<linearGradient id="SVGID_30_" gradientUnits="userSpaceOnUse" x1="500.75" y1="204.2686" x2="163.265" y2="204.2686">
				<stop  offset="0" style="stop-color:#BE1622"/>
				<stop  offset="1" style="stop-color:#E30613"/>
			</linearGradient>
			<path fill="url(#SVGID_30_)" d="M426.391,203.645c-0.396,0.45-0.765,0.888-1.03,1.249L426.391,203.645z"/>
			<linearGradient id="SVGID_31_" gradientUnits="userSpaceOnUse" x1="500.75" y1="281.3057" x2="163.265" y2="281.3057">
				<stop  offset="0" style="stop-color:#BE1622"/>
				<stop  offset="1" style="stop-color:#E30613"/>
			</linearGradient>
			<path fill="url(#SVGID_31_)" d="M383.484,280.154l2.62,2.304C384.877,281.264,384.095,280.603,383.484,280.154z"/>
			<linearGradient id="SVGID_32_" gradientUnits="userSpaceOnUse" x1="500.75" y1="209.7031" x2="163.265" y2="209.7032">
				<stop  offset="0" style="stop-color:#BE1622"/>
				<stop  offset="1" style="stop-color:#E30613"/>
			</linearGradient>
			<path fill="url(#SVGID_32_)" d="M419.147,209.444c-0.09,0.194-0.187,0.386-0.229,0.531
				C419.223,209.601,419.32,209.375,419.147,209.444z"/>
			<linearGradient id="SVGID_33_" gradientUnits="userSpaceOnUse" x1="500.75" y1="109.8677" x2="163.265" y2="109.8677">
				<stop  offset="0" style="stop-color:#BE1622"/>
				<stop  offset="1" style="stop-color:#E30613"/>
			</linearGradient>
			<polygon fill="url(#SVGID_33_)" points="224.999,109.795 225.153,109.941 225.343,109.876 			"/>
			<linearGradient id="SVGID_34_" gradientUnits="userSpaceOnUse" x1="500.75" y1="104.373" x2="163.265" y2="104.3731">
				<stop  offset="0" style="stop-color:#BE1622"/>
				<stop  offset="1" style="stop-color:#E30613"/>
			</linearGradient>
			<path fill="url(#SVGID_34_)" d="M217.404,105.41l-2.254-2.073C215.947,104.148,216.766,104.896,217.404,105.41z"/>
			<linearGradient id="SVGID_35_" gradientUnits="userSpaceOnUse" x1="500.75" y1="72.9541" x2="163.265" y2="72.9541">
				<stop  offset="0" style="stop-color:#BE1622"/>
				<stop  offset="1" style="stop-color:#E30613"/>
			</linearGradient>
			<path fill="url(#SVGID_35_)" d="M368.321,71.899c-0.815,0.494-2.534,1.834-2.003,0.937
				C365.299,74.315,365.941,74.789,368.321,71.899z"/>
			<linearGradient id="SVGID_36_" gradientUnits="userSpaceOnUse" x1="500.75" y1="114.4785" x2="163.265" y2="114.4785">
				<stop  offset="0" style="stop-color:#BE1622"/>
				<stop  offset="1" style="stop-color:#E30613"/>
			</linearGradient>
			<path fill="url(#SVGID_36_)" d="M243.902,114.912c-0.542-0.244-1.145-0.618-1.746-0.996
				C243.229,114.667,244.16,115.333,243.902,114.912z"/>
			<linearGradient id="SVGID_37_" gradientUnits="userSpaceOnUse" x1="500.75" y1="113.3711" x2="163.265" y2="113.3711">
				<stop  offset="0" style="stop-color:#BE1622"/>
				<stop  offset="1" style="stop-color:#E30613"/>
			</linearGradient>
			<path fill="url(#SVGID_37_)" d="M242.156,113.916l-1.584-1.087C241.111,113.227,241.646,113.594,242.156,113.916z"/>
			<linearGradient id="SVGID_38_" gradientUnits="userSpaceOnUse" x1="500.75" y1="43.043" x2="163.265" y2="43.043">
				<stop  offset="0" style="stop-color:#BE1622"/>
				<stop  offset="1" style="stop-color:#E30613"/>
			</linearGradient>
			<path fill="url(#SVGID_38_)" d="M380.265,42.366c0.227,0.375,0.571,0.845,1.041,1.354C381.18,43.297,380.8,42.853,380.265,42.366
				z"/>
			<linearGradient id="SVGID_39_" gradientUnits="userSpaceOnUse" x1="500.75" y1="103.3149" x2="163.265" y2="103.315">
				<stop  offset="0" style="stop-color:#BE1622"/>
				<stop  offset="1" style="stop-color:#E30613"/>
			</linearGradient>
			<path fill="url(#SVGID_39_)" d="M213.579,101.412c-0.651-0.125-10.632-8.965-2.852-0.917c-1.123,0.513-5.457-4.7-7.768-6.607
				c1.34,1.725-1.289-0.237-1.114,0.519c1.146,0.95,2.625,1.958,4.296,3.747c0.423,1.168-2.457-1.202-4.366-3.394
				c2.094,2.958-3.853-2.557-0.61,1.348c7.93,7.354,13.627,12.458,20.193,16.637c-4.551-4.16-9.667-8.788-12.911-12.688l2.209,0.795
				c3.415,4.658,6.372,6.688,10.277,10.724l-8.545-9.295c-3.589-4.768-0.659-2.107,2.763,1.059
				C214.349,102.519,213.658,101.742,213.579,101.412z"/>
			<linearGradient id="SVGID_40_" gradientUnits="userSpaceOnUse" x1="500.75" y1="100.9824" x2="163.265" y2="100.9825">
				<stop  offset="0" style="stop-color:#BE1622"/>
				<stop  offset="1" style="stop-color:#E30613"/>
			</linearGradient>
			<path fill="url(#SVGID_40_)" d="M225.79,101.22l-0.129-0.169c-0.156-0.106-0.333-0.251-0.447-0.305L225.79,101.22z"/>
			<linearGradient id="SVGID_41_" gradientUnits="userSpaceOnUse" x1="500.75" y1="265.6758" x2="163.265" y2="265.6758">
				<stop  offset="0" style="stop-color:#BE1622"/>
				<stop  offset="1" style="stop-color:#E30613"/>
			</linearGradient>
			<path fill="url(#SVGID_41_)" d="M397.471,265.529c0.118-0.058,0.585,0.229,0.896,0.362
				C397.528,265.296,397.542,265.472,397.471,265.529z"/>
			<linearGradient id="SVGID_42_" gradientUnits="userSpaceOnUse" x1="500.75" y1="109.9805" x2="163.265" y2="109.9805">
				<stop  offset="0" style="stop-color:#BE1622"/>
				<stop  offset="1" style="stop-color:#E30613"/>
			</linearGradient>
			<path fill="url(#SVGID_42_)" d="M227.688,109.964l-0.007-0.005C227.75,110.011,227.764,110.025,227.688,109.964z"/>
			<linearGradient id="SVGID_43_" gradientUnits="userSpaceOnUse" x1="396.5625" y1="257.9893" x2="396.5234" y2="257.9893">
				<stop  offset="0" style="stop-color:#BE1622"/>
				<stop  offset="1" style="stop-color:#E30613"/>
			</linearGradient>
			<path fill="url(#SVGID_43_)" d="M396.523,257.945c0.014,0.025,0.028,0.051,0.039,0.087
				C396.559,257.989,396.534,257.975,396.523,257.945z"/>
			<linearGradient id="SVGID_44_" gradientUnits="userSpaceOnUse" x1="500.75" y1="239.4326" x2="163.265" y2="239.4326">
				<stop  offset="0" style="stop-color:#BE1622"/>
				<stop  offset="1" style="stop-color:#E30613"/>
			</linearGradient>
			<path fill="url(#SVGID_44_)" d="M384.708,239.28c-0.068,0.003-0.111-0.018-0.226,0.034
				C384.116,239.76,384.346,239.595,384.708,239.28z"/>
			<linearGradient id="SVGID_45_" gradientUnits="userSpaceOnUse" x1="500.75" y1="257.9189" x2="163.265" y2="257.919">
				<stop  offset="0" style="stop-color:#BE1622"/>
				<stop  offset="1" style="stop-color:#E30613"/>
			</linearGradient>
			<path fill="url(#SVGID_45_)" d="M396.447,257.892c0.029,0.015,0.058,0.025,0.076,0.054
				C396.501,257.924,396.487,257.892,396.447,257.892z"/>
			<linearGradient id="SVGID_46_" gradientUnits="userSpaceOnUse" x1="500.75" y1="162.2749" x2="163.265" y2="162.2749">
				<stop  offset="0" style="stop-color:#BE1622"/>
				<stop  offset="1" style="stop-color:#E30613"/>
			</linearGradient>
			<path fill="url(#SVGID_46_)" d="M487.392,161.76c0,0-0.603,0.355-1.399,0.921C485.855,162.95,486.207,162.75,487.392,161.76z"/>
			<linearGradient id="SVGID_47_" gradientUnits="userSpaceOnUse" x1="500.75" y1="181.6182" x2="163.265" y2="181.6182">
				<stop  offset="0" style="stop-color:#BE1622"/>
				<stop  offset="1" style="stop-color:#E30613"/>
			</linearGradient>
			<path fill="url(#SVGID_47_)" d="M465.567,181.49l-0.413,0.256L465.567,181.49z"/>
			<linearGradient id="SVGID_48_" gradientUnits="userSpaceOnUse" x1="500.75" y1="70.0752" x2="163.265" y2="70.0752">
				<stop  offset="0" style="stop-color:#BE1622"/>
				<stop  offset="1" style="stop-color:#E30613"/>
			</linearGradient>
			<path fill="url(#SVGID_48_)" d="M375.833,70.755l0.639-0.635l0.405-0.418c0.094-0.105,0.169-0.208,0.237-0.305
				c-0.101,0.084-0.201,0.178-0.302,0.285L375.833,70.755z"/>
			<linearGradient id="SVGID_49_" gradientUnits="userSpaceOnUse" x1="396.5781" y1="258.29" x2="396.5371" y2="258.29">
				<stop  offset="0" style="stop-color:#BE1622"/>
				<stop  offset="1" style="stop-color:#E30613"/>
			</linearGradient>
			<path fill="url(#SVGID_49_)" d="M396.563,258.032c0.018,0.129,0.011,0.29-0.025,0.517
				C396.584,258.301,396.588,258.144,396.563,258.032z"/>
			<linearGradient id="SVGID_50_" gradientUnits="userSpaceOnUse" x1="500.75" y1="132.1279" x2="163.265" y2="132.128">
				<stop  offset="0" style="stop-color:#BE1622"/>
				<stop  offset="1" style="stop-color:#E30613"/>
			</linearGradient>
			<polygon fill="url(#SVGID_50_)" points="461.874,131.885 462.517,132.37 462.219,132 			"/>
			<linearGradient id="SVGID_51_" gradientUnits="userSpaceOnUse" x1="500.75" y1="124.3101" x2="163.265" y2="124.3101">
				<stop  offset="0" style="stop-color:#BE1622"/>
				<stop  offset="1" style="stop-color:#E30613"/>
			</linearGradient>
			<path fill="url(#SVGID_51_)" d="M452.848,121.815c0.406,0.246,0.636,0.312,0.895,0.421c-3.704-3.113-9.647-9.695-11.141-9.685
				c1.177,1.138,6.729,7.576,5.269,6.995c2.563,2.188,5.549,6.227,6.952,7.383c-3.488-4.312,0.212-1.057,3.097,1.324
				c2.179,2.613-1.052,0.154,0.872,2.354l5.621,5.46l-4.728-4.928l2.189,0.745l-0.56-0.425
				C452.813,123.633,461.681,129.708,452.848,121.815z"/>
			<linearGradient id="SVGID_52_" gradientUnits="userSpaceOnUse" x1="500.75" y1="122.8018" x2="163.265" y2="122.8018">
				<stop  offset="0" style="stop-color:#BE1622"/>
				<stop  offset="1" style="stop-color:#E30613"/>
			</linearGradient>
			<path fill="url(#SVGID_52_)" d="M453.742,122.236c0.556,0.465,1.059,0.858,1.485,1.131
				C454.445,122.608,454.072,122.382,453.742,122.236z"/>
			<linearGradient id="SVGID_53_" gradientUnits="userSpaceOnUse" x1="500.75" y1="87.0137" x2="163.265" y2="87.0137">
				<stop  offset="0" style="stop-color:#BE1622"/>
				<stop  offset="1" style="stop-color:#E30613"/>
			</linearGradient>
			<path fill="url(#SVGID_53_)" d="M421.57,87.68c-0.445-0.395-0.934-0.816-1.562-1.332L421.57,87.68z"/>
			<linearGradient id="SVGID_54_" gradientUnits="userSpaceOnUse" x1="500.75" y1="330.7168" x2="163.265" y2="330.7168">
				<stop  offset="0" style="stop-color:#BE1622"/>
				<stop  offset="1" style="stop-color:#E30613"/>
			</linearGradient>
			<path fill="url(#SVGID_54_)" d="M454.653,333.199c0.071-0.355-4.249-5.553-4.72-4.91l4.092,4.437L454.653,333.199z"/>
			<linearGradient id="SVGID_55_" gradientUnits="userSpaceOnUse" x1="500.75" y1="102.2896" x2="163.265" y2="102.2896">
				<stop  offset="0" style="stop-color:#BE1622"/>
				<stop  offset="1" style="stop-color:#E30613"/>
			</linearGradient>
			<path fill="url(#SVGID_55_)" d="M329.137,103.278c0.546-0.513,1.084-1.039,1.604-1.579l0.223-0.396
				C330.558,101.544,329.61,102.695,329.137,103.278z"/>
			<linearGradient id="SVGID_56_" gradientUnits="userSpaceOnUse" x1="500.75" y1="118.9414" x2="163.265" y2="118.9414">
				<stop  offset="0" style="stop-color:#BE1622"/>
				<stop  offset="1" style="stop-color:#E30613"/>
			</linearGradient>
			<path fill="url(#SVGID_56_)" d="M446.137,118.337c0.958,0.786,1.436,1.088,1.733,1.209
				C447.26,119.024,446.668,118.576,446.137,118.337z"/>
			<linearGradient id="SVGID_57_" gradientUnits="userSpaceOnUse" x1="500.75" y1="104.9272" x2="163.265" y2="104.9273">
				<stop  offset="0" style="stop-color:#BE1622"/>
				<stop  offset="1" style="stop-color:#E30613"/>
			</linearGradient>
			<path fill="url(#SVGID_57_)" d="M327.515,102.255c-0.836,0.515-2.071,1.269-2.427,1.197c-1.385,1.376-2.063,2.638-3.366,4.148
				C323.229,105.932,325.121,104.154,327.515,102.255z"/>
			<linearGradient id="SVGID_58_" gradientUnits="userSpaceOnUse" x1="500.75" y1="107.6621" x2="163.265" y2="107.6621">
				<stop  offset="0" style="stop-color:#BE1622"/>
				<stop  offset="1" style="stop-color:#E30613"/>
			</linearGradient>
			<path fill="url(#SVGID_58_)" d="M321.618,107.725l0.104-0.124L321.618,107.725z"/>
			<linearGradient id="SVGID_59_" gradientUnits="userSpaceOnUse" x1="500.75" y1="256.3789" x2="163.265" y2="256.3789">
				<stop  offset="0" style="stop-color:#BE1622"/>
				<stop  offset="1" style="stop-color:#E30613"/>
			</linearGradient>
			<path fill="url(#SVGID_59_)" d="M457.248,336.268l1.382,1.148l-0.808-0.51l3.108,3.442c0.427,0.358,0.89,0.753,1.436,1.259
				c-0.233-0.193-0.456-0.298-0.617-0.341l0.983,1.116c3.183,2.031,10.088,8.097,12.299,9.63c1.234,0.986,3.162,2.72,4.795,4.234
				c1.669,1.547,3.223,3.058,4.354,4.231c-2.157-2.179-5.157-4.949-4.694-3.851c3.104,3.632,3.861,5.713,8.255,9.787
				c-0.966,1.048-1.978,2.246-3.126,3.725l3.703-3.725l-0.427-0.424l0.535,0.424c-2.189,2.979-4.659,6.233-7.408,9.766
				c-2.11,1.597-1.001,0.183,0.61-1.723c1.629-1.917,3.786-4.351,4.041-5.054c-3.169,3.783-7.07,7.175-10.042,9.751
				c-2.67,2.275-4.859,4.188-5.792,6.191c-1.049-0.223-2.8-0.585-6.892,3.628c3.719-2.271-2.023,2.958,1.206,1.274
				c-1.073,1.798-4.862,4.403-4.626,5.118l0.126-0.65c-8.097,6.087-8.844,9.985-11.363,13.534
				c-8.232,8.754-12.543,12.242-19.362,19.276c-0.699-0.154-3.754,0.563-6.488,3.388c-0.715,1.866-6.719,8.402-6.622,9.776
				c5.276-4.658,3.449-4.68,6.248-7.827c3.248-1.705,0.987,0.538,4.831-2.38c-3.029,2.43-11.926,12.734-15.641,14.995l0.951-1.155
				c-5.208,4.331-7.942,3.42-14.786,12.472l-3.342,4.245c0.107-0.258,0.043-0.366,0.075-0.527c-0.808,0.786-1.414,1.35-2.1,1.978
				c-0.664,0.606-1.23,1.098-1.726,1.515c-0.991,0.836-1.709,1.367-2.419,1.945c-1.45,1.173-2.774,2.411-6.532,6.833
				c0.581-0.689,0.201-0.47,0.786-1.152c-0.761,0.617-1.504,1.289-2.239,2.014c-1.752-1.78-3.492-3.241-5.226-4.651
				c-1.727-1.403-3.438-2.745-4.91-4.073c-1.547-2.774,1.012-0.197,2.47,0.373c-3.625-3.865-7.314-7.146-10.9-10.074
				c-3.57-2.921-6.944-5.391-9.453-7.149l-4.069-4.791c2.882,2.372,6.739,4.935,6.309,3.765c-2.559-2.314-2.379-1.554-5.706-5.117
				c0.979,0.197,2.792,1.273,4.906,2.4c-6.468-7.784-2.986-0.197-6.766-6.392c-2.232-2.247-4.105-2.972-4.827-2.742l-3.435-4.68
				c-1.055,0.154-6.098-4.816-9.468-8.007c-0.664-0.144,1.996,3.283,3.475,4.296c-0.722,0.229-4.437-3.04-6.672-5.294
				c0.445-2.089-14.884-14.518-10.734-13.354c-5.251-4.838-11.449-10.767-17.234-16.251l-8.193-7.705l-3.546-3.241
				c-1.099-0.99-2.153-1.924-2.847-2.483c-1.482-2.182-5.502-6.237-2.788-4.72c-2.1-2.1-3.948-3.747-5.588-5.106l-5.696,6.858
				c-0.908,1.073-1.826,2.117-2.835,3.18c-0.46,0.488-1.109,1.148-1.791,1.815c-0.675,0.661-1.389,1.339-2.143,2.032
				c-0.833,0.513,3.643-3.668,2.907-3.779c-4.734,5.753-10.11,9.04-17.938,17.546c1.351-1.396,1.491-2.06,1.55-2.383
				c0.352,0.068-2.913,3.782-4.824,6.102c-1.297,1.08,1.432-1.733,0.601-1.231c-16.401,15.174-26.705,28.924-42.464,44.567
				c4.5-4.464,5.354-7.002,5.061-7.393l-4.407,4.378c-1.276,2.11-4.574,5.409-7.019,8.48c-0.497,0.18-2.008,1.354-0.838-0.215
				c-9.527,7.827-12.02,15.088-23.091,25.284l11.185-14.567l-3.775,2.595l4.892-6.432c-3.846,2.918-5.714,6.931-6.758,6.701
				c0.537-0.895,2.315-2.56,2.024-2.954c-3.494,2.997-3.277,3.726-5.592,6.291c5.136-7.727,17.762-20.313,24.231-27.416
				c0.964-1.17-0.601,1.228-0.66,1.547c2.726-2.81,4.791-4.069,8.052-7.777c1.617-2.713-2.053,1.249-3.828,2.907
				c-0.239-0.71,0.653-1.547,2.494-3.531c1.05,0.219,10.726-10.275,13.966-11.966c10.021-10.422-3.278-0.011,6.976-9.712
				l3.706-2.254c5.232-6.355,12.226-14.345,18.935-20.744l-1.356,1.407c-0.61,1.228,1.102-0.101,1.933-0.613
				c5.266-4.645,8.835-9.975,12.564-12.25c3.176-4.009,8.397-9.944,13.939-16.089c4.787,4.264,9.887,8.926,14.229,12.898
				c1.281,3.019-9.708-8.054-14.229-11.707c-0.46,0.542-0.851,1.03-1.156,1.45l1.156-1.159l6.295,6.291
				c-2.896-2.878-4.727-4.418-6.295-5.502c-0.934,1.221-1.78,2.423-2.703,3.751c1.005-0.947,1.892-1.827,2.703-2.678
				c4.12,3.934,6.582,5.161,11.962,10.136c-0.352-0.09-0.349,0.122,0.078,0.692c0.385,0.535,1.403,1.633,2.441,2.678l1.273,0.007
				c-0.011,0.093,0.19,0.392,0.848,1.127l9.08,8.301c-1.572-2.113-1.109-2.756-3.349-5.01c0.431,1.174-1.547-0.657-3.783-2.914
				c2.383,1.554-1.841-2.541-1.45-2.839c4.486,4.521,10.106,9.974,13.236,12.751l0.373,1.547c4.146,4.439,9.005,8.646,11.747,11.729
				l-1.228-0.607c4.971,5.33,10.419,10.024,14.421,15.171c5.265,3.927,11.606,9.152,16.061,12.206
				c2.763,1.256,12.532,14.432,18.773,18.548c0.27,0.431-4.124-2.989-6.177-4.472c3.327,3.563,7.006,5.361,7.293,7.238
				c-7.465-7.999-0.219,1.049-3.93-2.207c3.636,3.604,7.598,7.278,9.654,8.771c-5.864-5.854,3.184,0.98-3.098-4.604
				c2.401,1.744,6.108,4.992,6.941,5.585c1.428,1.188,2.73,2.473,4.034,4.001l0.176-0.144c-0.015,0.704,0.319,0.686,1.468-0.176
				c0.251-0.585,0.48-1.145,0.686-1.68c0.656-0.566,0.122,0.262-0.316,1.016c-0.423,0.739-0.746,1.4,0.754,0.075
				c0.66-1.083,1.493-2.07,2.44-3.054l2.11-2.104l2.789-2.73c3.653-3.593,6.844-6.905,7.221-8.854
				c4.666-3.424-7.07,8.33-0.212,2.993c-2.979,4.116-8.523,8.358-8.904,10.314c3.252-3.7,1.931-0.606,4.182-2.842l3.395-4.361
				l-0.89,0.829c5.768-7.249,16.434-17.205,24.616-25.639c6.249-7.831,9.949-13.821,18.479-22.177
				c-2.027,2.957,7.458-6.564,2.993-0.398c4.317-3.499,7.688-7.842,7.422-8.262c-3.553,3.32-1.316,1.102-4.382,3.826
				c1.536-2.369,6.062-6.855,8.183-8.435c-0.886,0.826-0.48,0.582-0.542,0.901c4.386-3.826,1.555-2.38,4.347-5.52
				c1.525-0.359,6.704-6.393,9.715-8.801l1.551-2.379l0.771-1.188c0.137-0.272,0.165-0.445,0.244-0.66
				c-0.377,1.472,1.885-1.486,2.929-1.525c0.553-1.065,0.643-1.924,1.174-2.824c-0.646-0.46-1.213-0.94-1.72-1.547
				c1.253,0.686-0.997-1.82-0.391-2.318c-0.37-0.507-0.79-0.977-1.224-1.403l-0.962-0.908l-1.274-1.148
				c-1.697-1.489-3.385-2.817-5.053-4.142c-3.338-2.646-6.594-5.279-9.677-9.152c0.349,0.087,2.114,1.127,0.223-1.048
				c-1.759-1.446-4.497-4.313-6.27-5.969l0.068,0.04l-0.104-0.075c-0.868-0.808-1.464-1.268-1.618-1.152
				c-3.475-2.394-5.542-3.349-11.775-8.66c-0.208,1.056,4.909,5.685,7.225,7.591l2.447,1.195c0.786,2.698,5.373,5.038,6.378,6.689
				c-4.583-2.34-14.28-12.59-20.952-17.88c2.763,4.529,10.562,12.601,17.589,19.42l-2.666-3.432l3.632,3.607l-2.832-4.178
				c3.313,3.55,6.453,6.342,9.515,9.482c-3.643-3.618-4.182-5.908-2.265-3.715c3.424,4.665,4.619,3.808,7.673,6.94
				c-1.661-1.779-3.891-4.03-2.085-2.95c2.67,3.432,4.54,5.435,6.334,7.372c0.897,0.973,1.773,1.924,2.725,3.036
				c1.307,1.465,1.102,1.5,1.296,2.104c0.538-0.521,1.102-0.007,1.704,0.592c0.604,0.596,1.185,1.221,2.172,1.343l-0.739-0.919
				l1.963,1.185l-0.377,0.872c-1.776,0.915-1.629,0.33-1.723,0.047c-0.043-0.334-0.298-0.392-1.855,0.556
				c-0.527,0.474-0.814,0.861-1.02,1.245c-0.101,0.194-0.18,0.385-0.247,0.574c0.014,0.019-0.098,0.158-0.187,0.28l-0.259,0.355
				l-0.484,0.689c-1.26,1.805-2.305,3.448-5.043,6.27c0.604-1.228,1.87-3.079,3.554-5.183l1.335-1.618l0.718-0.833
				c0.165-0.183,0.133-0.169,0.176-0.229l0.09-0.133c0.236-0.355,0.499-0.675,0.811-0.979c-0.384,0.183-0.742,0.341-1.076,0.474
				c-0.036-0.621,1.059-1.651,1.866-2.387l-0.194-0.219l0.51,0.219c0.107,0.279,0.273,0.236,0.578,0
				c-0.28-0.381-1.063-1.124-0.973-1.669c-0.962,0.251-0.137,0.887-1.687,0.309c0.613,0.592,0.886,0.793,1.22,1.36l-0.578,0.388
				c0.177-0.137,0.32-0.27,0.428-0.388c-0.861-0.775-2.028-0.901-2.781-0.75c-0.388,0.064-0.693,0.176-0.872,0.24
				c0.05,0.079-0.248-0.187-0.388-0.306l-0.539-0.47l-1.134-1.065c-0.793-0.769-1.65-1.669-2.599-2.735
				c4.293,3.747-0.527-2.275-0.718-3.054c-1.967-1.82-5.95-5.513-7.68-6.941l0.556,2.304c-5.462-4.701-5.372-8.322-12.142-13.286
				c-1.284-0.236,4.981,5.337,3.826,4.383c-8.574-7.473-10.057-11.775-16.523-19.561c-0.668-0.14-1.138,0.499-4.092-1.532
				c1.307,0.259-0.269-1.855,2.918,0.563c-2.157-2.602-5.365-5.039-7.673-6.938c4.651,5.269-2.785-1.274-4.013-1.873
				c-2.479-2.66,1.307,0.258,3.04,1.687c-1.92-2.204-3.6-5.427-5.556-5.814c0.47-0.632,7.221,4.311,11.187,7.993l-2.487-2.667
				c2.057,1.493,2.312,1.906,4.784,4.551c-2.078-2.936-1.356-3.162-0.38-2.972c0.247,0.409-0.313-0.05-0.079,0.341
				c1.92,2.2,3.653,3.632,3.471,2.86c2.595,1.109-2.395-3.323-3.421-5.089l-3.295-2.997l-13.089-8.319
				c-4.852-4.292-6.338-6.919-9.41-10.716l-1.582-0.306c-3.916-4.045-7.469-8.003-4.109-6.259c-0.068,0.355,0.506,0.829,1.338,1.727
				c0.205,0.024,0.464,0.165,0.765,0.365c0.122,0.044,0.205,0.055,0.309,0.087l-7.529-6.805c8.161,6.31,1.519-0.797,3.861-0.718
				l-3.84-3.471l-2.06-1.877l-2.8-2.613c3.072,3.432,3.008,3.644,1.772,2.635c-1.224-1.002-3.6-3.201-4.916-4.368
				c0.165-0.951-6.859-7.12-11.28-11.438l1.607-1.604l-0.039,0.302c4.041-3.6,10.113-9.796,14.46-14.487
				c0.201-0.626,2.709-5.216,3.962-7.725c-5.315,4.84-2.559,1.572-3.359,1.583c0.56-0.488,1.515-1.427,1.543-1.617
				c0.546-0.908-1.228,0.745-1.582,0.678l-1.921,2.126l-1.155,1.253l-1.744,1.837l-6.456,6.884c-3.927,4.268-6.92,7.745-7.932,9.646
				c1.798-1.396,2.795-2.587,3.851-3.868c1.048-1.274,2.157-2.638,3.959-4.171c-2.086,2.76-4.82,5.71-8.216,9.163l8.804,8.829
				l1.727,2.788l7.899,7.325l-0.951-0.718c-0.313-0.229-0.581-0.409-0.833-0.563c-0.498-0.313-0.926-0.542-1.507-0.934
				c-1.159-0.785-2.95-2.243-7.257-6.441c0.165,0.667,2.344,2.788,5.053,5.354l4.289,4.077c0.829,0.775,1.633,1.564,2.315,2.333
				l2.192,0.774c-0.966-0.176,5.164,6.105,0.216,2.236l-3.877-3.299l-0.969-0.825l-0.484-0.412l-0.768-0.696l-3.5-3.209l3.234,4.199
				L368.834,270.5l3.277,2.545c-9.382-8.904-10.365-10.545-11.051-11.833c1.012-0.693,1.945-1.324,3.664-2.922
				c1.727-1.611,4.192-4.146,8.499-8.882c1.108-1.536,2.354-3.114,3.775-4.788c0.711-0.836,1.468-1.698,2.271-2.591l2.136-2.342
				c1.855-2.065,4.214-4.362,7.321-7.264c-4.156,4.54,0.158,1.05-0.979,3.184c4.791-4.079,5.584-6.283,7.551-8.919
				c1.583-0.676,2.757-1.11-1.273,2.787c0.452,1.443,5.049-5.378,6.388-4.763c13.1-13.157,7.368-13.672,23.935-27.798l-0.183,0.967
				c9.256-10.234,15.347-15.386,24.061-24.721l8.107-6.105c-1.436,1.745-4.96,6.764-2.483,5.252
				c-4.469,2.442-7.785,6.466-12.049,9.646c-0.118,0.644,1.587-0.682,2.412-1.181c-2.258,2.238-3.84,2.913-6.632,6.056
				c0.352,0.065,3.844-2.921,1.524-0.359l-4.661,3.415c-5.104,5.699-1.167,4.152-7.799,10.21c0.624-1.735,2.229-4.949,4.551-7.539
				c-3.019,2.78,3.531-4.201,0.553-1.888c-3.353,5.001-6.022,6.365-11.062,12.434c0.538-0.767,0.549-1.1,1.866-2.518l-8.409,7.71
				c2.477-1.513-6.126,7.186-4.662,7.153c8.887-8.294,5.93-6.202,16.122-15.581c-2.605,2.932-5.452,7.233-6.457,9.577
				c-0.111,0.058-0.276,0.176-0.588,0.463c-0.79,2.204,0.926,0.87,2.135,2.137c3.586-5.348,7.3-7.61,12.06-13.385
				c0.315-1.669-3.92,2.191-6.363,4.985l4.191-5.091l-0.603,1.226l12.012-11.554c-2.196,2.27-2.563,3.42-3.431,4.882
				c1.547-1.495,3.229-2.821,5.028-4.226c-0.983-0.311-1.228-0.98,0.269-2.45c7.734-7.427,12.529-11.059,16.064-13.118l0.84-0.93
				c-1.938,0.608,4.188-6.575,5.86-9.602c0.144,0.199,0.485,0.083,0.955-0.237c0.424-0.269,1.228-0.991,1.457-1.159
				c0.718-0.598,1.536-1.38,2.369-1.861c-0.521-1.053-2.993-0.752-4.483-0.549l-0.14,0.391l-0.061,0.18l-0.029,0.086l-0.14,0.192
				c-0.362,0.504-0.643,0.91-0.857,1.242c-0.428,0.666-0.604,1.039-0.683,1.338c-0.161,0.6,0.054,0.899-0.646,2.62l-7.544,8.902
				l1.209-2.465c-4.378,3.827-7.493,8.599-8.007,7.481c1.622-2.713,5.534-5.963,7.139-8.662l-3.012,2.417
				c3.984-5.592,3.227-1.684,8.467-8.041c-2.828,1.439,0.474-0.576,2.49-3.526c-2.476,1.511-10.009,10.41-9.445,7.488
				c1.249-1.766,4.131-3.957,7.052-6.353l2.175-1.83l1.568-1.418c0.377-0.366,0.621-0.813,0.474-1.25l0.13,0.135
				c1.041-0.862,1.342-1.531,1.202-1.895c-0.66-0.284-1.267-0.436-1.752-0.557c0.101-0.283-0.29-0.596-0.692-0.814
				c-0.204-0.111-0.416-0.203-0.6-0.287c-0.232-0.133-0.114,0.068-1.065-0.86l0.409-0.276l-3.973-3.688
				c1.224,0.6,2.343,1.727,3.578,3.103l0.951,1.075l0.118,0.134l0.018,0.034l0.032,0.068l0.075,0.135
				c0.101,0.177,0.216,0.337,0.402,0.477c0.248-0.176,0.492-0.357,0.725-0.549c-0.018,0.641,0.266,0.861,0.894,1.116
				c0.614,0.241,1.551,0.497,2.52,0.889c0.058,0.115,0.094,0.24,0.104,0.373c0.028-0.122,0.083-0.246,0.147-0.373
				c-1.03-0.695-1.788-1.536-2.592-2.22c-0.395-0.334-0.782-0.612-1.141-0.736c-0.094-0.031-0.18-0.052-0.27-0.061l-0.064-0.007
				l-0.147-0.086l-0.291-0.154c-0.376-0.182-0.699-0.27-0.958-0.241l-2.002-3.294l-1.501-1.034
				c-1.489-2.457,1.285-1.199,5.255,2.481c0.502,0.826,0.757,1.238,0.42,1.17c0.326,0.253,0.322,0.174,0.484,0.251l0.391,0.144
				c0.273,0.104,0.571,0.235,0.894,0.418c0.643,0.361,1.422,0.964,2.208,1.895l-1.461-0.784c0.771,0.808,1.572,1.558,2.419,2.258
				c-0.876,1.114-1.421,2.143-1.399,2.893c1.072-0.93,2.16-1.902,3.237-2.893c-2.757-2.993-3.941-4.226-10.47-10.713
				c-3.581-0.698-6.93-2.428-9.359-2.178c-5.111-4.619-11.901-11.042-15.641-15.759l0.652,0.125c-1.923-2.2-3.897-4.027-5.634-5.46
				c-1.827-2.53,2.199,0.784,0.872-0.926l-7.419-6.521c1.034-0.176,6.901,5.687,9.729,8.429c-0.574-0.474-1.736-1.434-1.479-1.012
				c2.99,3.488,10.061,8.491,10.599,10.785c1.729,1.427-3.854-2.559,1.446,2.832c3.248,3.909,5.196,4.287,5.836,4.396
				c0.401-0.285-5.147-6.087-2.764-4.531c-2.828-2.74-4.379-3.408-7.608-7.302c2.799,2.718,7.246,5.771,8.183,7.775
				c6.098,4.818,6.927,2.424,4.443-0.239c0.107,1.118-10.581-9.335-4.081-1.52c-3.865-2.564-9.744-8.434-14.355-12.233l0.322,0.061
				l-5.383-5.061c0.915,0.557,2.645,1.981,3.039,1.692l-8.153-6.311c4.69,3.451-2.093-2.954-3.672-5.081
				c-1.303-0.249-4.512-2.69-2.1,0.321c2.663,3.429,2.057,1.491,4.867,4.223l-4.752-3.097l-0.255-0.417l-3.04-1.685
				c-5.294-5.391,3.912,0.761-3.6-5.425l-0.032,1.814c-7.792-8.064-16.933-19.284-22.962-24.459c2.07,1.02,3.596,0.856,1.974-1.769
				c2.257,2.573,7.142,7.395,10.695,10.772c0.502,0.829-5.423-3.235-8.987-7.199c0.313,3.337,10.383,8.554,9.288,10.53
				c9.056,10.125,8.632,5.676,15.871,14.715c0.796-0.572,2.648,1.979,3.682,1.803c-1.292-3.526-10.921-10.842-15.81-16.515
				c0.563,0.467,1.709,1.405,2.043,1.479c-3.575-3.977-5.287-5.384-8.18-7.769l0.251,0.415c-5.279-3.94-2.34-3.363-4.751-6.375
				c-1.152-0.951-4.728-4.919-4.623-3.812l-4.26-5.563l-0.531,1.003c-0.704-0.682-1.238-1.261-1.69-1.782l-0.625-0.739
				c-0.165-0.203-0.187-0.26-0.287-0.391c-0.322-0.449-0.721-0.867-1.468-1.152l-0.523,0.849l1.263,1.5l3.28,3.519
				c-1.855-1.633-2.261-1.712-2.702-1.845c-0.219-0.065-0.445-0.146-0.868-0.438c-0.578-0.452-0.704-0.468-1.041-0.732
				c2.11,0.61-0.639-1.4-0.492-2.523c-0.448-0.19-0.861-0.348-1.241-0.472l0.33-0.036c-0.621-1.199-0.973-0.822-1.543-1.226
				c-0.122,0.158-0.263,0.307-0.428,0.441c0.154-0.052,0.295-0.089,0.428-0.116c0.894,1.568,1.209,2.498,2.569,3.015
				c-0.883-0.336-1.981-0.84-2.569-1.122c-0.244,0.368-0.428,0.628-0.524,0.741c-0.643,1.213-1.364,0.892-2.282,1.656
				c0.635-0.908,0.179-1.491-0.047-2.11c-0.248-0.6,0.015-1.515,2.4-3.41c-0.071,0.334-0.431,0.633-0.592,0.633
				c0.276,0.321,0.625,0.147,1.045-0.323c0.771,0.671,2.021,0.965,2.889,1.391c-0.047-1.052,1.35,0.097-0.725-2.536
				c0.412,0.874-0.916,0.499-2.164-0.553c-0.514,0.592-1.052,1.091-1.619,1.423c0-0.718,0.021-1.459,0.068-2.222l-3.377,3.122
				l0.276-0.38c-0.438,0.093-0.904,0.402-1.379,0.822c-0.236,0.211-0.477,0.452-0.718,0.708l-1.17,1.249
				c-1.669,1.807-3.524,3.873-5.685,5.624c-2.44,3.21-13.584,13.74-7.792,10.205c-4.188,2.839-6.409,6.78-10.099,10.756l5.218-4.337
				c-4.877,6.419-3.747,4.294-7.041,10.04c-0.75,0.162-1.999,0.928-1.393-0.301c-7.645,7.529-18.785,18.061-22.353,23.395
				c-5.394,5.301-7.504,4.87-14.51,12.872c-1.429,1.733,2.239-0.224-3.04,4.436c-0.413,0.253,3.983-5.583-1.464,0.034
				c-1.555,2.385-3.984,4.585-6.571,6.917c-1.296,1.167-2.631,2.369-3.92,3.643l-0.954,0.969l-1.454,1.527
				c-0.997,1.067-1.978,2.166-2.946,3.313c-4.579,3.982-11.958,11.589-10.516,8.834c6.543-6.245,16.495-16.471,15.953-16.559
				c-0.197,0.989,3.431-2.665,0.578,0.798c6.977-5.984,3.8-4.612,9.952-10.087c0.136-0.664-3.715,2.263-4.728,3.745
				c-0.922-0.87,11.029-11.896,4.788-7.802c-6.288,6.134-6.267,9.846-12.594,14.286c1.615-2.702,5.452-5.617,7.254-9.297
				l-4.784,4.063l-2.563,3.86l0.057-0.325l-1.363,1.134l-1.525,1.383c-0.979,0.912-1.809,1.733-2.545,2.501
				c-1.468,1.533-2.555,2.857-3.574,4.199c-2.039,2.681-3.805,5.425-7.673,9.891c-0.805-0.678-1.694-1.462-2.692-2.376
				c2.893,3.492,2.749,4.084,2.196,4.225c-0.534,0.16-1.46-0.126,0.496,2.237l0.549-0.454l-0.549,0.565
				c-7.631-7.429-13.165-13.23-12.526-14.339c6.988,6.279,7.34,6.166,7.52,5.848c0.118-0.374,0.075-0.938,5.007,3.171l1.104-1.283
				c-1.468,0.962,0.927-2.753-1.104-1.367c-0.55-0.727-1.418-1.721-2.778-3.126c-3.639-3-3.248-2.236-2.724-1.423
				c0.495,0.784,1.069,1.561-2.796-2.01c-0.406-0.567-0.818-1.14-0.481-1.066c-1.855-1.391-2.863-2.485-3.93-3.621
				c-0.534-0.573-1.091-1.161-1.807-1.836c-0.813-0.771-1.391-1.236-2.277-1.864l0.896,0.535c-3.173-4.26-4.682-3.449-7.288-7.239
				c0.614,1.943-2.694-1.603-5.091-3.171c2.99,3.492,3.79,6.203,10.242,12.547c1.269,0.217,1.073-0.562,5.165,3.02l-5.384-5.254
				c0.493,0.406,0.944,0.745,1.388,1.073l0.676,0.502l0.959,0.79l5.685,6.234c-7.769-7.02-5.035-3.164-8.632-5.665
				c-4.403-4.863-3.969-3.679-6.712-6.765c1.064-0.478-7.616-10.252-12.458-16.084l2.446,2.505c4.363,3.388-2.022-3.309-1.954-3.665
				l-3.21-2.438c0.585,0.477,1.5,1.034,0.403-0.282c-3.967-3.679-4.509-2.692-8.472-6.365c0.138-0.71,4.011,1.872,1.859-0.725
				c-0.447-1.189-2.067-4.782-7.516-9.478c-0.522-0.196-1.927-1.419-3.522-2.875c0.237,0.188,0.519,0.438,0.645,0.504l-2.905-3.833
				c3.594,2.146,5.462,6.148,9.075,8.305l0.935-0.445c2.247,2.243,5.594,4.994,7.354,6.04c-3.307-3.541-4.208-4.081-8.179-7.765
				c-0.101-0.971,2.919,1.401,3.354,1.742l-0.964-0.179c3.995,5.136,7.486,6.166,13.041,11.976c0.829,0.885,0.255,0.413-0.066,0.352
				c5.267,3.934,8.867,9.362,14.22,12.953l-1.823-1.095l7.063,5.707l4.604,3.684l4.465,3.486l0.219-0.316
				c-0.441-0.768,1.414,1.111,2.387,2.299l-0.008,0.002l3.898,2.914l2.795-3.522c-0.635,0.305-1.381,0.771-2.199,1.511
				c-0.111,0.219-0.323,0.504-0.596,0.833c-1.354-1.077-4.146-4.025-3.938-2.625c-0.926-1.358-2.229-2.57-3.55-3.754l-0.973-0.872
				l-1.001-0.933c-0.696-0.668-1.285-1.283-1.68-1.814c2.918,3.838-3.029-1.678-4.016-1.875c-0.684-1.588-5.041-4.975-3.991-5.138
				c-0.51-0.826,1.256,2.062,3.058,3.135c4.103,2.974-5.982-6.977-1.035-3.106c-6.034-5.181-13.241-12.755-19.584-17.981
				l2.989,3.487c-2.481-2.661-8.701-8.612-8.863-9.36c1.981,1.841,4.207,4.081,6.772,6.402c0.804-0.567-5.879-5.868-5.726-6.564
				l-8.233-5.965l3.07,3.147c-2.374-1.542-8.373-8.545-13.094-13.46c3.7,1.827,7.293,7.246,12.739,11.939
				c4.038,3.327-1.369-3.18,2.34,0.081c-0.686-1.122-2.984-3.37-4.343-4.255l-1.204-1.545c3.96,2.256,10.742,9.416,16.115,13.322
				c-0.499-0.316-0.949-0.574-1.177-0.603c3.241,3.903,6.883,7.517,10.593,10.774c-1.574-2.11-2.485-2.657-3.637-3.61
				c0.079-0.341,3.458,2.855,4.937,3.865c-2.992-3.49-0.103-1.109-2.012-3.298c2.313,1.908,3.965,3.677,6.446,6.336
				c1.013,1.656-1.547-0.659-1.697,0.036c2.903,2.392,3.104,4.613,7.465,8.001c-4.974-5.332,2.279,0.441,4.339,1.933l-0.836-0.894
				c2.128,1.139,3.539,2.507,4.214,4.089c-2.312-1.907-4.214-4.089-4.117-2.986l2.161,2.062c0.714,0.662,1.68,1.54,2.021,1.728
				l-0.563-0.199c-0.219-0.099-0.578-0.335-0.858-0.497l4.235,4.028c0.822-0.066,1.888-0.256,2.297-1.154
				c0.101,0.23,0.216,0.435,0.338,0.616c0.652-0.335,1.399-1.597,1.845-2.302l-0.22,0.59c0.689-0.311,1.795-1.385,2.624-2.376
				l0.298-0.368l0.635-0.72l1.199-1.411c0.686-0.845,1.127-1.471,1.17-1.712c0.635-0.459,0.144,0.433-0.714,1.782l-1.468,2.252
				l-0.194,0.296c-0.043,0.077-0.05,0.117-0.075,0.178l-0.129,0.337l-0.255,0.66c-0.319,0.856-0.546,1.572-0.119,1.459
				c0.571-0.258,0.904-0.463,5.09-4.829c5.864-5.868,2.4-4.906,5.314-8.689c0,0-0.061,0.317,0.353,0.066
				c2.659-2.475,2.44-3.21,4.35-5.522c-1.73,1.35-3.97,3.571-4.508,4.47c0.251-1.295,5.395-5.299,6.948-7.679
				c-1.744,3.361,5.269-4.653,3.704-2.257c5.623-4.585,10.443-10.683,12.528-13.959c4.479-2.452,5.94-6.211,12.03-11.363
				c-0.894,0.834-2.308,2.554-3.628,3.653c-2.56,3.848,6.166-5.489,1.823,0.034c0.951-1.157-0.27-0.418-1.253,0.765
				c-1.819,1.965-3.316,4.03-2.548,3.847l5.149-4.012l-1.442,1.755l7.741-6.166c0.062-0.317-0.753,0.174-1.166,0.427
				c8.409-7.718,17.191-17.378,24.361-24.34c-0.222-1.438,3.237-5.362,7.494-9.852l9.206-9.493c3.337-3.453,6.488-6.783,9.059-9.712
				c0.958,0.824,1.833,1.54,2.605,2.125c-1.285-0.747-2.219-0.924-2.605-0.604c-0.287,0.79-0.302,1.283,0,1.344
				c0.082,0.19,0.197,0.404,0.344,0.634l-0.344-0.305c-0.94,1.082-2.251,2.78-3.733,4.582c-1.489,1.809-3.144,3.712-4.995,5.421
				c-0.732,0.149-5.997,4.753-3.036,1.124c-2.778,2.883-4.135,4.389-4.192,4.639c-0.212,0.398,0.197,0.219,0.836-0.162
				c1.619-1.104,4.066-2.918,2.811-0.987c4.737-4.887,8.632-9.245,12.311-13.471c5.031,4.276,9.646,7.971,14.549,12.376l0.004,0.434
				l0.801,0.698l0.696,0.596l1.155,0.951l2.308,1.906c-3.319-3.566-2.121-4.423,1.956,0.373l-0.589-0.488
				c2.1,2.965,7.874,7.724,11.762,11.745l3.276,2.087c3.894,4.027,2.957,5.305,3.578,7.257c6.13,6.286,10.623,8.962,15.572,12.833
				c1.511,2.476,10.695,11.888,5.183,7.549c6.025,5.173,7.486,1.454,15.655,12.491l-2.958-2.024
				c9.278,9.083,23.3,21.252,27.04,25.973c-1.081-0.366-1.253,0.025-0.861,0.896c0.1,0.219,0.232,0.466,0.397,0.739l0.919,1.236
				c0.686,0.89,1.501,1.897,2.384,2.963c3.531,4.267,8.086,9.467,9.772,12.211c-1.313,0.949-2.387,1.611-3.141,1.884
				c1.313-0.565-3.004,4.002-3.388,4.788c-1.328,0.944-3.198,2.438-4.547,4.466c2.605-2.277,2.372-1.191,2.447-0.661
				c0.061,0.544,0.635,0.323,5.053-4.755c-1.558,2.683-3.854,5.981-7.379,10.212l-1.295,1.549l-0.904,1.124
				c-0.625,0.761-1.296,1.548-2.021,2.363c-1.446,1.633-3.104,3.379-5.015,5.263l-0.57-0.8l6.213-5.796
				c-0.557,0.05-0.054-0.687,0.721-1.624l1.354-1.577c0.656-0.732,1.264-1.419,1.672-1.947l-1.511,1.434l-1.095,1.01l-1.436,1.242
				c-0.818,0.675-1.363,1.064-1.729,1.263c-0.732,0.396-0.743,0.036-0.746-0.301c-0.008-0.677,0.014-1.262-5.649,4.493
				c-0.66,1.547-0.129,0.648-2.922,3.792c1.375-1.418,1.152-2.141-1.105,0.099l-1.614,2.706c-5.129,2.846,5.856-7.343,1.654-4.745
				c3.869-4.946,11.219-12.87,8.922-12.323c-7.515,6.884-4.838,8.117-12.766,15.248l-1.174,0.429
				c-2.394,2.901-2.218,3.932-3.306,5.746c-0.344-0.081-1.173,0.435-2.936,2.075c-3.593,5.351-6.389,8.491-9.55,13.577
				c10.257-11.698,10.053-8.715,20.744-20.69c-1.493,2.06-9.264,10.246-8.808,11.682l-0.578-0.792
				c-3.33,4.041-6.657,8.075-11.513,12.477l2.44-3.21c-5.656,6.611-11.237,9.155-14.938,15.135c1.773-1.647,3.141-3.056,4.092-4.215
				c-2.854,3.463-6.881,7.355-10.43,10.67l-5.965,8.231c-0.28-0.404-4.799,4.075-3.173,1.362c-5.631,4.59-7.02,8.02-9.802,11.144
				c-5.961,4.506,4.207-4.859,3.776-6.318c-3.766,3.447-7.487,7.153-10.699,10.584l-2.304,2.512l-1.009,1.138l-0.435,0.589
				c-0.545,0.765-0.943,1.428-1.17,1.963c0.848-0.57,1.281-0.765,1.457-0.61c-0.355-0.079-1.504,1.185-2.182,1.849
				c0.097,0.201,0.204,0.388,0.33,0.56c-1.558,0.955-2.063,0.937-1.611-0.187c-0.395,0.345-0.664,0.729-0.88,1.099
				c1.274,0.911,2.534,1.59,2.674,2.634c-1.17-0.714-2.268-1.719-3.19-2.634c1.253-1.264,2.48-2.344,2.836-3.087
				c-1.138,1.403-2.132,2.254-3.259,3.087c0.609,0.951,0.947,1.837,1.845,3.101c0.444,0.628,1.026,1.346,1.815,2.175l0.628,0.643
				l1.009,0.983c0.872,0.84,1.834,1.737,2.903,2.706c-0.071,0.355-2.462-1.206-0.219,1.048c5.369,5.043,2.279,0.445,4.4,1.575
				c-2.143-1.866-3.614-3.334-4.767-4.694c-0.578-0.682-1.076-1.335-1.543-2.002l-0.33-0.488l-0.104-0.276
				c-0.061-0.187-0.118-0.373-0.165-0.56c0.291,0.046,0.567,0.086,0.833,0.107c-0.201-0.011,0.48,0.768,1.162,1.551
				c0.696,0.789,1.461,1.654,1.741,2.113l1.385-0.09c-1.112,0.518,2.294,5.165,5.765,8.025c-2.609-3.79-1.777-2.893-1.716-4.694
				c5.329,3.574,4.156,5.89,10.078,9.944c-0.64-0.11-5.19-4.271-1.626-0.309c3.079,3.151,3.302,2.104,5.592,3.987
				c-3.033-1.672-2.933-0.563-6.288-2.308c-5.62-5.451-2.222-2.243-7.932-7.357l4.009,5.154c-4.802-4.58-4.188-2.635-4.834-2.76
				c7.317,8.699,7.066,5.003,12.041,10.336c2.949,2.017-4.73-4.924-0.355-1.525c4.719,4.917,1.543,0.653,7.242,5.768l-1.217-0.592
				c1.253,2.056,3.385,3.19,5.365,5.038c2.309,1.896-0.021-4.744,8.675,3.858c-0.613-0.233-0.89-0.27-0.969-0.19l-14.145-2.73
				c8.779,8.749,18.721,19.007,28.489,29.54c1.274,3.507-8.165-6.323-8.046-5.2l-4.4-4.859c0.732-0.212,9.845,9.554,6.5,4.536
				c-8.517-7.834-11.683-12.087-20.411-18.867c1.292,3.528,10.412,10.017,14.593,15.925c-2.046-2.189-3.955-3.858-5.854-5.434
				l14.729,15.665l1.482,0.94c-3.511-3.758-5.926-6.366-6.209-6.729c4.716,4.914,9.399,8.359,10.537,7.86l-0.829-0.887l1.999,1.486
				L457.248,336.268z M202.84,440.179c0.214-0.373,0.354-0.696,0.409-0.979C203.192,439.497,203.467,439.375,202.84,440.179z
				 M396.444,241.476l-20.587,19.736l1.088,1.116l-0.844-1.116c7.72-6.191,12.924-10.059,14.267-10.446
				c1.306-0.35-0.915,2.439-8.926,10.446l0.523,0.523l1.347,1.113c-0.398-0.485-0.88-1.034-1.433-1.637
				c2.412-2.215,5.29-5.104,8.004-8l6.147-9.301c2.336-3.58,4.311-6.697,4.159-6.735c-1.582,0.677-2.734,2.819-4.927,4.736
				L396.444,241.476z M403.719,239.615c3.818-3.461,2.635-2.99,2.875-3.878l-3.704,3.948
				C403.457,239.283,403.809,239.158,403.719,239.615z M406.056,235.633c-0.417,0.4-0.783,0.736-1.009,0.875L406.056,235.633z
				 M424.743,306.296l-0.396-0.355l2.549,2.695C426.599,308.237,425.974,307.531,424.743,306.296z M418.143,298.117l-1.453-0.276
				l2.39,2.526C419.068,299.821,419.015,299.301,418.143,298.117z M396.333,272.424c-0.553-0.197-1.281-0.657-2.082-1.228
				l-2.333-1.712c-1.442-1.045-2.878-2.053-3.581-1.941c-0.582-0.165,0.276,0.857,1.31,2.023l4.026,4.163
				c0.173-0.064,0.578,0.119,1.182,0.51c-1.375-1.579-2.157-2.767-1.06-2.67c2.706,4.889,4.186,2.62,8.008,7.006
				C403.687,279.304,397.808,273.436,396.333,272.424z M288.19,141.592c-0.187,0.047-0.771,0.264-1.562,0.599l2.483-3.296
				c5.337-4.979,10.642-7.935,14.273-13.588c2.427-1.918,4.128-2.544,5.682-3.214c-1.099,1.03-2.136,1.983-3.033,2.744
				C294.5,139.331,297.69,130.062,288.19,141.592z M348.923,83.741c-0.481,0.582-0.538,0.906-0.538,0.906
				c5.01-6.512,9.779-12.247,14.079-17.125c2.157-2.448,4.163-4.644,6.091-6.681c2.006-2.12,3.879-4.027,5.541-5.658
				c-0.782,0.187-2.8,1.676-5.129,3.564l-5.961,4.922l1.665-3.021l1.999-0.932l4.472-5.703c-0.857,0.4-2.344,1.705-4.009,3.216
				l-1.277,1.163l-1.069,0.942c-0.683,0.589-1.356,1.147-1.996,1.608c-0.061,0.319-6.31,8.147-7.855,10.53l6.09-5.154
				c-1.708,1.33-9.012,8.944-11.793,12.075c0.28,0.398,5.9-4.174,5.803-5.554c1.113-0.102-4.759,5.778-0.502,2.604
				c-3.865,4.94-11.319,11.495-14.819,14.498l-1.399-0.298c-3.894,3.237-1.389,3.429-6.115,7.178
				c5.046-5.375-1.809-0.048,2.271-4.256c-1.644,1.003-0.922-0.867-5.01,3.347c-2.337,4.578-5.082,3.673-7.357,7.93
				c-2.534,1.834,1.672-3.023-2.771,1.122c-4.34,5.516-3.633,5.654-3.119,6.776c4.834-4.378,4.113-6.238,8.079-9.807l-6.095,8.892
				c1.579-1.185,2.62-2.184,3.421-3.099c-1.425,1.588-2.495,3.074-3.306,4.454l-1.313,2.144c4.253-4.238,8.046-7.991,9.059-8.31
				l-0.19,0.981c1.87-1.141,4.034-3.876,4.874-5.295c3.761-3.846,7.009-8.195,8.352-8.515l-1.081,1.805
				C342.574,90.198,343.048,89.627,348.923,83.741z M467.136,170.253c3.983-1.319,7.713-2.668,19.269-14.244l-3.298-3.234
				l1.281,1.081c-2.745-3.657-7.006-7.316-10.724-10.455c-3.715-3.14-7.602-6.473-11.147-11.03c4.479,3.386,4.217,3.225,9.813,6.316
				l-4.63-3.812c1.959,0.38-2.659-3.422-5.721-6.555l3.675,1.794c1.587,2.128,6.31,7.045,6.381,6.688
				c-0.577-0.476,0.715,1.412,2.692,3.887l1.59,1.94l2.092,2.347c1.414,1.543,2.828,2.99,4.131,4.158
				c0.233-0.404-2.368-3.196-4.331-5.45c-0.492-0.562-0.944-1.095-1.296-1.54c-0.272-0.368-0.467-0.669-0.535-0.871
				c-0.114-0.38,0.173-0.448,1.479,0.339c-3.879-3.009-3.592-3.989-7.335-7.287c3.793,2.919,1.697-0.036,4.661,1.997l-5.953-5.521
				c0.061-0.361,8.825,7.887,4.905,2.401c-2.63-1.965-8.352-8.522-9.147-7.948l0.071-0.352c-4.156-4.451-2.864-0.922-7.756-6.595
				c-0.405,0.282,0.362,1.529,2.326,3.35c1.751,1.446,2.469,1.218,5.86,4.418c0.937,2.014-3.908-4.041-2.526-0.847
				c0.682,1.586,9.083,8.307,5.656,6.916l-4.146-4.441c-0.797,0.578-3.865-2.571-4.332-1.931c-2.878-2.372-4.583-5.622-7.863-7.708
				c-1.554-0.671-0.435,2.098-4.515-2.697c-2.451-4.481-12.863-14.498-16.832-18.178l-3.787-2.911
				c-0.136,0.705,6.453,6.34,3.758,4.737l-5.387-5.057l0.667,0.14c-1.672-1.789-3.725-3.275-5.451-4.704
				c2.117,1.132,5.682,5.095,5.649,3.632c-2.308-2.593-2.419-3.232-4.81-5.35c0.542,0.441,1.037,0.795,1.073,0.632
				c-4.651-5.271-5.592-3.991-7.066-5.001c-5.919-4.061,4.163,5.89,2.792,5.988L403.41,75.126c1.475,1.012,2.961,2.033,2.781,1.271
				c-3.24-3.903,0.474-0.635-4.576-5.617c-0.617,1.335-6.926-5.708-11.032-8.684c-1.241-2.044-1.543-2.505,2.118,1.129
				c0.305-0.963-5.093-5.87-6.866-7.761c-1.142-0.824-2.942-2.444-4.069-3.289c1.349,1.949,0.678,2.019-1.845,0.032l-0.471,0.562
				l-0.161,0.427l0.632-0.58l7.587,8.402l1.809,1.911c0.592,0.61,1.296,1.313,1.898,1.888c1.242,1.186,2.361,2.151,3.291,2.769
				l-1.228-0.598c5.405,6.503,14.098,11.818,15.645,15.763c-0.725,0.221,1.087,1.304,0.298,1.886l4.921,3.849l-1.221-0.601
				l7.612,7.304l-0.327-0.07l10.082,7c0.309-0.291,0.169-0.614,1.571,0.348c1.332,1.039,2.254,1.915,3.019,2.756
				c0.008,0.005,0.008,0.005,0.011,0.002l-0.007,0.003c1.744,1.917,2.534,3.565,4.611,5.995l-7.009-6.862
				c-1.069-0.058-1.009,1.059,2.035,4.813c-1.407-1.371-2.387-1.556-0.726,0.221c0.323,0.058,4.87,4.221,3.614,2.157
				c6.772,6.403,16.104,18.4,27.071,27.439c-7.767-6.607,5.079,6.438-3.107-1.33c2.379,3.19,3.779,4.188,5.275,5.114
				c0.747,0.463,1.521,0.906,2.455,1.599c0.467,0.346,0.973,0.754,1.536,1.256l0.887,0.829l0.907,0.914
				c0.291,0.876-2.968-3.043-4.852-3.774c1.353,1.45,2.73,2.837,4.005,4.058c1.02,0.967,2.046,1.879,3.101,2.783l6.704,5.568
				c-2.103,2.622-4.684,5.615-7.978,8.71l-1.005-0.264L467.136,170.253z M449.865,189.104l-5.132,5.568l0.542-0.506l-4.77,5.789
				c3.492-2.997,6.323-4.438,2.11,0.427c0.118-0.644-1.529,0.361-0.104-1.371c-3.424,2.663-10.465,8.97-7.767,8.186
				c4.942-6.75,2.581-0.144,6.503-5.408c-1.844,3.088-4.564,5.25-6.614,7.856c1.902-2.945-1.747-0.615-5.638,2.776
				c-1.429,1.739-5.868,5.881-8.248,8.766c1.525-0.354-0.434,2.275,4.006-1.87c-1.422,1.728-3.736,4.287-6.766,6.715
				c0.98-1.183,2.8-3.147,2.459-3.227c-2.301,1.222-4.34,3.309-5.707,4.217l-2.62,2.808c0.316-0.217,0.614-0.38,0.861-0.459
				l-2.501,3.532c3.743-4.292,2.128-1.586,2.419-1.191c-0.578-0.793-2.674,2.494-4.026,3.892l3.711-2.261
				c-1.081,1.805-5.621,4.574-4.149,4.537c6.622-6.049,8.937-8.61,14.449-14.555l-2.886,1.764
				c6.065-6.864,4.953-3.024,12.182-10.304c2.501-3.53,10.87-10.946,9.995-12.125c-0.6,1.224,5.43-3.602,7.45-6.553
				c1.809-3.688,9.992-12.125,7.045-10.037c-2.257,2.234-4.762,5.771-7.178,6.964l4.16-4.551l-3.374,2.345
				C451.94,189.537,451.298,189.18,449.865,189.104z M399.534,294.524l0.154,0.18l-0.183-0.19L399.534,294.524z"/>
			<linearGradient id="SVGID_60_" gradientUnits="userSpaceOnUse" x1="500.75" y1="105.79" x2="163.265" y2="105.7901">
				<stop  offset="0" style="stop-color:#BE1622"/>
				<stop  offset="1" style="stop-color:#E30613"/>
			</linearGradient>
			<path fill="url(#SVGID_60_)" d="M222.531,107.147c-1.488-1.018-4.545-4.154-4.441-3.043
				C218.567,103.475,223.707,109.551,222.531,107.147z"/>
			<linearGradient id="SVGID_61_" gradientUnits="userSpaceOnUse" x1="500.75" y1="103.6514" x2="163.265" y2="103.6514">
				<stop  offset="0" style="stop-color:#BE1622"/>
				<stop  offset="1" style="stop-color:#E30613"/>
			</linearGradient>
			<path fill="url(#SVGID_61_)" d="M219.369,102.901c-0.35-0.086-0.411,0.278-1.819-1.091l3.968,3.684L219.369,102.901z"/>
			<linearGradient id="SVGID_62_" gradientUnits="userSpaceOnUse" x1="500.75" y1="89.3643" x2="163.265" y2="89.3643">
				<stop  offset="0" style="stop-color:#BE1622"/>
				<stop  offset="1" style="stop-color:#E30613"/>
			</linearGradient>
			<path fill="url(#SVGID_62_)" d="M219.271,95.237c-2.385-1.561-3.869-2.579-6.928-5.712c0.188-2.514,5.448,4.693,8.111,4.836
				c-5.55-5.804-8.472-6.367-13.254-10.921C208.949,86.318,218.074,96.093,219.271,95.237z"/>
			<linearGradient id="SVGID_63_" gradientUnits="userSpaceOnUse" x1="500.75" y1="94.8208" x2="163.265" y2="94.8208">
				<stop  offset="0" style="stop-color:#BE1622"/>
				<stop  offset="1" style="stop-color:#E30613"/>
			</linearGradient>
			<polygon fill="url(#SVGID_63_)" points="223.499,96.051 220.039,93.198 220.27,93.589 223.733,96.444 			"/>
			<linearGradient id="SVGID_64_" gradientUnits="userSpaceOnUse" x1="500.75" y1="148.8926" x2="163.265" y2="148.8926">
				<stop  offset="0" style="stop-color:#BE1622"/>
				<stop  offset="1" style="stop-color:#E30613"/>
			</linearGradient>
			<path fill="url(#SVGID_64_)" d="M294.862,150.591c0.707,0.136,2.257-2.247,3.208-3.402
				C297.188,148.02,295.874,149.109,294.862,150.591z"/>
			<linearGradient id="SVGID_65_" gradientUnits="userSpaceOnUse" x1="500.75" y1="369.4492" x2="163.265" y2="369.4492">
				<stop  offset="0" style="stop-color:#BE1622"/>
				<stop  offset="1" style="stop-color:#E30613"/>
			</linearGradient>
			<polygon fill="url(#SVGID_65_)" points="271.566,353.957 253.235,372.695 241.398,384.941 			"/>
			<linearGradient id="SVGID_66_" gradientUnits="userSpaceOnUse" x1="500.75" y1="75.8989" x2="163.265" y2="75.899">
				<stop  offset="0" style="stop-color:#BE1622"/>
				<stop  offset="1" style="stop-color:#E30613"/>
			</linearGradient>
			<path fill="url(#SVGID_66_)" d="M372.011,67.927c-6.069,6.862-8.212,10.463-14.618,17.236c4.759-3.907,7.285-7.099,9.644-10.115
				c1.177-1.508,2.314-2.972,3.664-4.459c0.675-0.743,1.403-1.493,2.218-2.256c0.409-0.382,0.837-0.766,1.292-1.157
				c0.259-0.196,0.518-0.368,0.797-0.539c-0.38,0.093-0.696,0.127-1.177,0.321L372.011,67.927z"/>
			<linearGradient id="SVGID_67_" gradientUnits="userSpaceOnUse" x1="500.75" y1="71.4272" x2="163.265" y2="71.4273">
				<stop  offset="0" style="stop-color:#BE1622"/>
				<stop  offset="1" style="stop-color:#E30613"/>
			</linearGradient>
			<path fill="url(#SVGID_67_)" d="M373.094,73.574c-0.933,0.138,0.083-1.342,1.142-2.812c0.527-0.735,1.066-1.468,1.378-1.994
				c0.18-0.395,0.062-0.511-0.146-0.594l-1.095,1.269c-0.327,0.395-0.571,0.714-0.758,0.982c-0.38,0.536-0.534,0.863-0.682,1.17
				c-0.302,0.614-0.585,1.145-2.595,3.086L373.094,73.574z"/>
			<linearGradient id="SVGID_68_" gradientUnits="userSpaceOnUse" x1="500.75" y1="88.5439" x2="163.265" y2="88.544">
				<stop  offset="0" style="stop-color:#BE1622"/>
				<stop  offset="1" style="stop-color:#E30613"/>
			</linearGradient>
			<polygon fill="url(#SVGID_68_)" points="330.655,89.731 332.202,87.357 330.773,89.087 			"/>
			<linearGradient id="SVGID_69_" gradientUnits="userSpaceOnUse" x1="500.75" y1="73.958" x2="163.265" y2="73.958">
				<stop  offset="0" style="stop-color:#BE1622"/>
				<stop  offset="1" style="stop-color:#E30613"/>
			</linearGradient>
			<polygon fill="url(#SVGID_69_)" points="387.328,72.747 386.435,72.212 389.424,75.706 			"/>
			<linearGradient id="SVGID_70_" gradientUnits="userSpaceOnUse" x1="500.75" y1="71.9458" x2="163.265" y2="71.9458">
				<stop  offset="0" style="stop-color:#BE1622"/>
				<stop  offset="1" style="stop-color:#E30613"/>
			</linearGradient>
			<path fill="url(#SVGID_70_)" d="M385.537,71.681l0.897,0.531L385.537,71.681z"/>
			<linearGradient id="SVGID_71_" gradientUnits="userSpaceOnUse" x1="500.75" y1="87.7813" x2="163.265" y2="87.7813">
				<stop  offset="0" style="stop-color:#BE1622"/>
				<stop  offset="1" style="stop-color:#E30613"/>
			</linearGradient>
			<polygon fill="url(#SVGID_71_)" points="331.47,85.507 328.387,88.251 327.307,90.056 			"/>
			<linearGradient id="SVGID_72_" gradientUnits="userSpaceOnUse" x1="500.75" y1="65.3979" x2="163.265" y2="65.398">
				<stop  offset="0" style="stop-color:#BE1622"/>
				<stop  offset="1" style="stop-color:#E30613"/>
			</linearGradient>
			<path fill="url(#SVGID_72_)" d="M361.451,64.054l-2.351,2.86C359.567,66.349,363.462,63.108,361.451,64.054z"/>
			<linearGradient id="SVGID_73_" gradientUnits="userSpaceOnUse" x1="500.75" y1="94.1201" x2="163.265" y2="94.1201">
				<stop  offset="0" style="stop-color:#BE1622"/>
				<stop  offset="1" style="stop-color:#E30613"/>
			</linearGradient>
			<polygon fill="url(#SVGID_73_)" points="406.791,92.884 410.269,95.75 410.021,95.348 406.554,92.491 			"/>
			<linearGradient id="SVGID_74_" gradientUnits="userSpaceOnUse" x1="500.75" y1="48.4326" x2="163.265" y2="48.4326">
				<stop  offset="0" style="stop-color:#BE1622"/>
				<stop  offset="1" style="stop-color:#E30613"/>
			</linearGradient>
			<path fill="url(#SVGID_74_)" d="M386.449,47.731c-2.397-3.619,7.705,7.377,2.533,1.124
				C383.99,44.053,385.925,46.625,386.449,47.731z"/>
			<linearGradient id="SVGID_75_" gradientUnits="userSpaceOnUse" x1="500.75" y1="93.5771" x2="163.265" y2="93.5772">
				<stop  offset="0" style="stop-color:#BE1622"/>
				<stop  offset="1" style="stop-color:#E30613"/>
			</linearGradient>
			<path fill="url(#SVGID_75_)" d="M423.394,92.967c0.427,0.427,0.9,0.856,1.403,1.222L423.394,92.967z"/>
			<linearGradient id="SVGID_76_" gradientUnits="userSpaceOnUse" x1="500.75" y1="91.083" x2="163.265" y2="91.083">
				<stop  offset="0" style="stop-color:#BE1622"/>
				<stop  offset="1" style="stop-color:#E30613"/>
			</linearGradient>
			<path fill="url(#SVGID_76_)" d="M423.394,92.967c-1.382-1.382-2.526-2.997-3.653-3.767
				C421.187,91.197,421.918,91.721,423.394,92.967z"/>
			<linearGradient id="SVGID_77_" gradientUnits="userSpaceOnUse" x1="500.75" y1="107.043" x2="163.265" y2="107.043">
				<stop  offset="0" style="stop-color:#BE1622"/>
				<stop  offset="1" style="stop-color:#E30613"/>
			</linearGradient>
			<path fill="url(#SVGID_77_)" d="M439.36,108.649l-1.209-1.297c1.583,0.978,0.93,0.416-0.452-0.483
				c-1.35-1.307-1.468-1.039-1.759-1.064l-1.052-0.58l1.307,0.868C438.248,108.153,439.533,109.379,439.36,108.649z"/>
			<linearGradient id="SVGID_78_" gradientUnits="userSpaceOnUse" x1="500.75" y1="157.3921" x2="163.265" y2="157.3921">
				<stop  offset="0" style="stop-color:#BE1622"/>
				<stop  offset="1" style="stop-color:#E30613"/>
			</linearGradient>
			<path fill="url(#SVGID_78_)" d="M463.396,158.736l0.873-0.788l0.387-0.35l0.076-0.034l0.272-0.124
				c0.172-0.073,0.33-0.129,0.474-0.16c0.294-0.061,0.553-0.029,0.857,0.142c1.199-0.897-0.312-1.02-0.337-1.375
				c-0.251,0.341-0.521,0.549-0.769,0.75c-0.122,0.104-0.243,0.208-0.373,0.346l-0.201,0.237l-0.054,0.072
				c-0.054,0.063,0.062-0.045-0.172,0.196L463.396,158.736z"/>
			<linearGradient id="SVGID_79_" gradientUnits="userSpaceOnUse" x1="500.75" y1="155.9341" x2="163.265" y2="155.9341">
				<stop  offset="0" style="stop-color:#BE1622"/>
				<stop  offset="1" style="stop-color:#E30613"/>
			</linearGradient>
			<path fill="url(#SVGID_79_)" d="M465.998,156.048l0.028-0.039l-0.255-0.188c0.055,0.077,0.133,0.134,0.23,0.188L465.998,156.048z
				"/>
			<linearGradient id="SVGID_80_" gradientUnits="userSpaceOnUse" x1="500.75" y1="86.0405" x2="163.265" y2="86.0406">
				<stop  offset="0" style="stop-color:#BE1622"/>
				<stop  offset="1" style="stop-color:#E30613"/>
			</linearGradient>
			<polygon fill="url(#SVGID_80_)" points="426.053,84.967 429.652,87.115 428.497,86.16 			"/>
			<linearGradient id="SVGID_81_" gradientUnits="userSpaceOnUse" x1="500.75" y1="164.0039" x2="163.265" y2="164.0039">
				<stop  offset="0" style="stop-color:#BE1622"/>
				<stop  offset="1" style="stop-color:#E30613"/>
			</linearGradient>
			<path fill="url(#SVGID_81_)" d="M456.293,165.36c0.891-0.828,2.243-2.224,3.08-2.735
				C459.143,161.9,455.41,166.187,456.293,165.36z"/>
			<linearGradient id="SVGID_82_" gradientUnits="userSpaceOnUse" x1="500.75" y1="154.9492" x2="163.265" y2="154.9492">
				<stop  offset="0" style="stop-color:#BE1622"/>
				<stop  offset="1" style="stop-color:#E30613"/>
			</linearGradient>
			<path fill="url(#SVGID_82_)" d="M483.049,157.209c0.352-0.147,0.904-0.61,1.536-1.2c-1.005-1.075-2.563-2.54-3.201-3.32
				c1.166,1.252,1.328,2.343,2.314,3.32C483.314,156.398,483.078,156.784,483.049,157.209z"/>
			<linearGradient id="SVGID_83_" gradientUnits="userSpaceOnUse" x1="500.75" y1="179.1626" x2="163.265" y2="179.1626">
				<stop  offset="0" style="stop-color:#BE1622"/>
				<stop  offset="1" style="stop-color:#E30613"/>
			</linearGradient>
			<path fill="url(#SVGID_83_)" d="M444.981,180.587c0.89-0.827,2.526-1.827,2.347-0.863
				C448.344,178.246,449.19,175.721,444.981,180.587z"/>
			<linearGradient id="SVGID_84_" gradientUnits="userSpaceOnUse" x1="500.75" y1="163.3931" x2="163.265" y2="163.3931">
				<stop  offset="0" style="stop-color:#BE1622"/>
				<stop  offset="1" style="stop-color:#E30613"/>
			</linearGradient>
			<polygon fill="url(#SVGID_84_)" points="474.834,165.254 475.652,164.757 478.269,161.532 			"/>
			<linearGradient id="SVGID_85_" gradientUnits="userSpaceOnUse" x1="500.75" y1="156.4526" x2="163.265" y2="156.4527">
				<stop  offset="0" style="stop-color:#BE1622"/>
				<stop  offset="1" style="stop-color:#E30613"/>
			</linearGradient>
			<path fill="url(#SVGID_85_)" d="M495.571,153.487c-2.247-1.866-2.215-1.401-1.677-0.42c0.546,0.991,1.594,2.493,1.619,2.941
				c-0.33,0.172-0.51,0.195-0.46,0c-0.552-0.314-1.654-1.195-3.596-2.943l2.685,2.943c-3.062,2.889-1.928,2.216-0.93,1.703
				c0.998-0.517,1.855-0.87-2.081,2.984c2.081-1.933,3.951-3.499,5.483-4.687C495.259,154.106,494.968,153.168,495.571,153.487z"/>
			<linearGradient id="SVGID_86_" gradientUnits="userSpaceOnUse" x1="500.75" y1="161.8872" x2="163.265" y2="161.8872">
				<stop  offset="0" style="stop-color:#BE1622"/>
				<stop  offset="1" style="stop-color:#E30613"/>
			</linearGradient>
			<path fill="url(#SVGID_86_)" d="M491.132,160.696c-0.786,0.729-1.612,1.518-2.48,2.383L491.132,160.696z"/>
			<linearGradient id="SVGID_87_" gradientUnits="userSpaceOnUse" x1="500.75" y1="210.3398" x2="163.265" y2="210.3399">
				<stop  offset="0" style="stop-color:#BE1622"/>
				<stop  offset="1" style="stop-color:#E30613"/>
			</linearGradient>
			<path fill="url(#SVGID_87_)" d="M433.629,211.035c0.456-0.578,0.747-0.994,1.005-1.389
				C434.271,210.102,433.941,210.546,433.629,211.035z"/>
			<linearGradient id="SVGID_88_" gradientUnits="userSpaceOnUse" x1="500.75" y1="184.1035" x2="163.265" y2="184.1035">
				<stop  offset="0" style="stop-color:#BE1622"/>
				<stop  offset="1" style="stop-color:#E30613"/>
			</linearGradient>
			<path fill="url(#SVGID_88_)" d="M469.149,183.615l4.486-6.186c-3.001,4.129-12.002,13.062-10.595,13.349
				c3.075-2.731,6.342-6.451,7.414-8.251L469.149,183.615z"/>
			<linearGradient id="SVGID_89_" gradientUnits="userSpaceOnUse" x1="500.75" y1="228.4854" x2="163.265" y2="228.4854">
				<stop  offset="0" style="stop-color:#BE1622"/>
				<stop  offset="1" style="stop-color:#E30613"/>
			</linearGradient>
			<path fill="url(#SVGID_89_)" d="M392.558,229.514l1.97-2.642l-2.979,2.78C392.503,228.954,391.631,231.068,392.558,229.514z"/>
			<linearGradient id="SVGID_90_" gradientUnits="userSpaceOnUse" x1="500.75" y1="229.9219" x2="163.265" y2="229.9219">
				<stop  offset="0" style="stop-color:#BE1622"/>
				<stop  offset="1" style="stop-color:#E30613"/>
			</linearGradient>
			<path fill="url(#SVGID_90_)" d="M390.975,230.192l0.574-0.54C391.405,229.754,391.222,229.923,390.975,230.192z"/>
			<linearGradient id="SVGID_91_" gradientUnits="userSpaceOnUse" x1="500.75" y1="198.1387" x2="163.265" y2="198.1387">
				<stop  offset="0" style="stop-color:#BE1622"/>
				<stop  offset="1" style="stop-color:#E30613"/>
			</linearGradient>
			<path fill="url(#SVGID_91_)" d="M443.309,200.533c1.783-1.665,3.141-3.068,4.562-4.79
				C447.059,196.235,442.616,200.382,443.309,200.533z"/>
			<linearGradient id="SVGID_92_" gradientUnits="userSpaceOnUse" x1="500.75" y1="247.6934" x2="163.265" y2="247.6934">
				<stop  offset="0" style="stop-color:#BE1622"/>
				<stop  offset="1" style="stop-color:#E30613"/>
			</linearGradient>
			<polygon fill="url(#SVGID_92_)" points="373.723,250.809 380.229,244.013 372.99,251.374 			"/>
			<linearGradient id="SVGID_93_" gradientUnits="userSpaceOnUse" x1="500.75" y1="284.6006" x2="163.265" y2="284.6006">
				<stop  offset="0" style="stop-color:#BE1622"/>
				<stop  offset="1" style="stop-color:#E30613"/>
			</linearGradient>
			<polygon fill="url(#SVGID_93_)" points="381.998,282.767 382.497,283.582 385.957,286.435 385.447,285.609 			"/>
			<linearGradient id="SVGID_94_" gradientUnits="userSpaceOnUse" x1="500.75" y1="254.3203" x2="163.265" y2="254.3203">
				<stop  offset="0" style="stop-color:#BE1622"/>
				<stop  offset="1" style="stop-color:#E30613"/>
			</linearGradient>
			<path fill="url(#SVGID_94_)" d="M398.235,256.726c2.67-2.487,3.926-5.265,3.09-4.748l-4.576,4.641
				c0.341-0.008,0.448,0.046,0.686-0.126c0.266-0.204,0.474-0.445,0.714-0.754c0.484-0.617,1.109-1.5,2.642-2.867L398.235,256.726z"
				/>
			<linearGradient id="SVGID_95_" gradientUnits="userSpaceOnUse" x1="500.75" y1="413.8311" x2="163.265" y2="413.8311">
				<stop  offset="0" style="stop-color:#BE1622"/>
				<stop  offset="1" style="stop-color:#E30613"/>
			</linearGradient>
			<path fill="url(#SVGID_95_)" d="M438.223,396.325c0.675-1.562,6.403-6.776,7.11-6.64c-0.55,0.919-3.342,4.06-1.21,2.466
				l3.237-5.42c6.438-5.078-2.942,5.811-5.401,9.037c6.008-5.724,7.027-8.179,13.272-14.413c-1.938,1.741-3.374,2.635-4.58,3.37
				c-0.979-0.557,5.172-6.029,9.271-10.246c-2.982,2.314-1.729,0.502-0.104-1.727c0.323-0.37,0.51-0.646,0.621-0.861l0.546-0.761
				l-0.495,0.499c-0.051-0.122-0.266-0.115-0.769,0.101c-3.262,3.711-6.571,5.734-8.829,7.971c3.471-0.969-7.354,7.936-9.794,11.14
				l-3.133,3.385l-1.217,1.221c-0.384,0.107-0.208-0.409,1.403-2.517c-1.303,1.799-6.564,6.884-5.685,6.809l-11.79,11.825
				c-0.42,0.316-0.851,0.621-1.213,0.801c-0.33,0.488-0.334,0.624-0.216,0.632l-39.327,39.481l-0.331-0.322
				c0.108,0.172,0.212,0.384,0.331,0.628c0.229,0.018,0.52,0.039,0.875-0.133c-0.463,2.121,0.937-0.636,1.245,0.621
				c-0.269,0.84-1.126,1.521-1.557,1.568c-0.115,0.907,0.652,0.84,0.75,1.69c1.338-0.844,1.934-2.136,2.164-3.119l0.046-0.187
				c0.015-0.062,0.004-0.097,0.133-0.273l0.574-0.847c0.392-0.57,0.815-1.151,1.292-1.759c0.959-1.216,2.144-2.533,3.801-4.044
				c0.227,0.725-1.32,3.101,2.768-1.116l-0.955,1.159c6.119-7.182,6.256-4.109,9.138-9.598l0.574,0.797
				c2.502-3.531,8.362-9.402,11.574-12.805l-0.064,0.33c8.491-10.061,5.039-5.373,15.128-16.118l-3.995,5.595
				c3.927-3.262,3.865-4.941,6.536-7.433c-0.055,0.316,1.044,0.219-1.268,2.781l11.42-13.856
				C442.602,392.507,438.984,396.146,438.223,396.325z"/>
			<linearGradient id="SVGID_96_" gradientUnits="userSpaceOnUse" x1="500.75" y1="380.2051" x2="163.265" y2="380.2051">
				<stop  offset="0" style="stop-color:#BE1622"/>
				<stop  offset="1" style="stop-color:#E30613"/>
			</linearGradient>
			<path fill="url(#SVGID_96_)" d="M455.231,381.355c0.703-0.632,1.481-1.378,2.351-2.301L455.231,381.355z"/>
			<linearGradient id="SVGID_97_" gradientUnits="userSpaceOnUse" x1="500.75" y1="451.9199" x2="163.265" y2="451.92">
				<stop  offset="0" style="stop-color:#BE1622"/>
				<stop  offset="1" style="stop-color:#E30613"/>
			</linearGradient>
			<path fill="url(#SVGID_97_)" d="M379.109,451.685l0.48,0.471C379.45,451.933,379.317,451.774,379.109,451.685z"/>
			<linearGradient id="SVGID_98_" gradientUnits="userSpaceOnUse" x1="500.75" y1="367.5723" x2="163.265" y2="367.5723">
				<stop  offset="0" style="stop-color:#BE1622"/>
				<stop  offset="1" style="stop-color:#E30613"/>
			</linearGradient>
			<path fill="url(#SVGID_98_)" d="M466.378,367.215c-0.926,0.219-0.517-0.474-0.983-0.534l-0.911,0.937
				c0.302,0.229,0.484,0.635,0.754,0.847L466.378,367.215z"/>
			<linearGradient id="SVGID_99_" gradientUnits="userSpaceOnUse" x1="500.75" y1="369.2412" x2="163.265" y2="369.2412">
				<stop  offset="0" style="stop-color:#BE1622"/>
				<stop  offset="1" style="stop-color:#E30613"/>
			</linearGradient>
			<path fill="url(#SVGID_99_)" d="M462.51,368.597c-0.083,0.449-0.75,1.446-1.525,2.534l3.499-3.514
				c-0.107-0.09-0.226-0.158-0.348-0.208C464.229,367.146,463.425,367.804,462.51,368.597z"/>
			<linearGradient id="SVGID_100_" gradientUnits="userSpaceOnUse" x1="500.75" y1="383.7139" x2="163.265" y2="383.7139">
				<stop  offset="0" style="stop-color:#BE1622"/>
				<stop  offset="1" style="stop-color:#E30613"/>
			</linearGradient>
			<polygon fill="url(#SVGID_100_)" points="477.425,381.854 476.058,383.265 474.163,385.572 			"/>
			<linearGradient id="SVGID_101_" gradientUnits="userSpaceOnUse" x1="500.75" y1="399.4912" x2="163.265" y2="399.4912">
				<stop  offset="0" style="stop-color:#BE1622"/>
				<stop  offset="1" style="stop-color:#E30613"/>
			</linearGradient>
			<path fill="url(#SVGID_101_)" d="M454.535,402.423c2.057-1.26,4.902-4.712,5.854-5.864
				C456.774,400.197,458.195,398.475,454.535,402.423z"/>
			<linearGradient id="SVGID_102_" gradientUnits="userSpaceOnUse" x1="500.75" y1="404.0898" x2="163.265" y2="404.0899">
				<stop  offset="0" style="stop-color:#BE1622"/>
				<stop  offset="1" style="stop-color:#E30613"/>
			</linearGradient>
			<polygon fill="url(#SVGID_102_)" points="463.307,402.229 460.033,405.951 460.438,405.703 			"/>
			<linearGradient id="SVGID_103_" gradientUnits="userSpaceOnUse" x1="500.75" y1="431.124" x2="163.265" y2="431.1241">
				<stop  offset="0" style="stop-color:#BE1622"/>
				<stop  offset="1" style="stop-color:#E30613"/>
			</linearGradient>
			<path fill="url(#SVGID_103_)" d="M353.983,431.956l-1.752-1.665C353.011,431.077,353.542,431.568,353.983,431.956z"/>
			<linearGradient id="SVGID_104_" gradientUnits="userSpaceOnUse" x1="500.75" y1="432.3584" x2="163.265" y2="432.3584">
				<stop  offset="0" style="stop-color:#BE1622"/>
				<stop  offset="1" style="stop-color:#E30613"/>
			</linearGradient>
			<path fill="url(#SVGID_104_)" d="M379.034,455.697c-0.966-1.583-0.707-1.654-0.323-1.568c0.409,0.107,1.016,0.445,1.21,0.137
				c0.097-0.345,0.1-0.646,0.011-0.94l-0.011,0.018c-0.259-0.043-0.557-0.126-0.901-0.255l0.176-0.352l-1.055-0.883
				c-0.176,0.729,0.046,1.005-0.363,1.547c-0.232-0.28-0.405-0.506-0.53-0.689l-0.158-0.247c-0.015-0.025-0.007-0.025-0.04-0.064
				l-0.136-0.162l-0.237-0.29c-0.577-0.722-0.725-1.034-0.797-1.3c-0.144-0.527,0.008-0.861-2.404-3.872l-8.348-8.176l0.811,0.523
				c-0.703-0.686-1.072-0.933-1.389-1.095l-28.138-27.545c-5.444-4.69,1.945,3.653-2.486,0.617
				c5.871,5.868,14.094,15.099,15.536,14.65c-0.326-0.064-0.977-0.193,0.104,1.109l4.174,2.616l-2.99-3.485
				c4.188,2.638,15.045,13.836,16.557,16.313c-6.536-6.005-4.325-1.924-12.551-11.169c0.15,0.635,1.328,2.655-0.771,0.821
				c5.258,4.979,10.07,9.87,14.998,14.74l3.722,3.649l1.895,1.823l0.959,0.912l0.448,0.427l0.183,0.15
				C377.149,454.466,378.137,455.202,379.034,455.697z"/>
			<linearGradient id="SVGID_105_" gradientUnits="userSpaceOnUse" x1="500.75" y1="352.6143" x2="163.265" y2="352.6143">
				<stop  offset="0" style="stop-color:#BE1622"/>
				<stop  offset="1" style="stop-color:#E30613"/>
			</linearGradient>
			<path fill="url(#SVGID_105_)" d="M274.305,352.705l0.133-0.306C274.133,352.795,274.035,352.963,274.305,352.705z"/>
			<linearGradient id="SVGID_106_" gradientUnits="userSpaceOnUse" x1="500.75" y1="358.083" x2="163.265" y2="358.083">
				<stop  offset="0" style="stop-color:#BE1622"/>
				<stop  offset="1" style="stop-color:#E30613"/>
			</linearGradient>
			<path fill="url(#SVGID_106_)" d="M279.903,357.715l8.818,6.959l-13.333-13.182l-0.671,0.236l-0.28,0.671l0.28-0.352
				c1.428,1.088,5.612,4.73,7.181,6.772L279.903,357.715z"/>
			<linearGradient id="SVGID_107_" gradientUnits="userSpaceOnUse" x1="500.75" y1="369.1191" x2="163.265" y2="369.1192">
				<stop  offset="0" style="stop-color:#BE1622"/>
				<stop  offset="1" style="stop-color:#E30613"/>
			</linearGradient>
			<path fill="url(#SVGID_107_)" d="M297.112,371.945c-1.073-0.937-1.913-1.575-2.537-1.971c-0.313-0.197-0.574-0.333-0.782-0.412
				c-0.19-0.062-0.503-0.24-0.617-0.219c-0.309-0.036-0.169,0.376,0.024,0.821c0.141,0.392,0.452,0.93,0.912,1.565
				c-0.503-0.417-0.901-0.775-1.213-1.081l-0.563-0.574l-0.518-0.574c-0.603-0.696-0.861-1.134-1.08-1.504
				c-0.427-0.725-0.725-1.205-3.115-2.788c-0.122,0.431,1.69,2.361,3.772,4.39c1.213,1.188,1.744,1.654,2.376,2.218l1.417,1.213
				L297.112,371.945z"/>
			<linearGradient id="SVGID_108_" gradientUnits="userSpaceOnUse" x1="500.75" y1="402.6074" x2="163.265" y2="402.6075">
				<stop  offset="0" style="stop-color:#BE1622"/>
				<stop  offset="1" style="stop-color:#E30613"/>
			</linearGradient>
			<polygon fill="url(#SVGID_108_)" points="326.348,401.985 324.901,401.174 327.601,404.041 			"/>
			<linearGradient id="SVGID_109_" gradientUnits="userSpaceOnUse" x1="500.75" y1="399.749" x2="163.265" y2="399.7491">
				<stop  offset="0" style="stop-color:#BE1622"/>
				<stop  offset="1" style="stop-color:#E30613"/>
			</linearGradient>
			<path fill="url(#SVGID_109_)" d="M324.901,401.174l-2.677-2.85c-0.047,0.427-0.086,0.847,0.201,1.461L324.901,401.174z"/>
			<linearGradient id="SVGID_110_" gradientUnits="userSpaceOnUse" x1="500.75" y1="388.7764" x2="163.265" y2="388.7764">
				<stop  offset="0" style="stop-color:#BE1622"/>
				<stop  offset="1" style="stop-color:#E30613"/>
			</linearGradient>
			<path fill="url(#SVGID_110_)" d="M315.197,390.855c-1.112-1.228-2.365-2.563-3.919-4.159L315.197,390.855z"/>
			<linearGradient id="SVGID_111_" gradientUnits="userSpaceOnUse" x1="500.75" y1="392.5332" x2="163.265" y2="392.5332">
				<stop  offset="0" style="stop-color:#BE1622"/>
				<stop  offset="1" style="stop-color:#E30613"/>
			</linearGradient>
			<polygon fill="url(#SVGID_111_)" points="318.162,394.211 318.165,394.018 315.197,390.855 			"/>
			<linearGradient id="SVGID_112_" gradientUnits="userSpaceOnUse" x1="500.75" y1="395.3652" x2="163.265" y2="395.3653">
				<stop  offset="0" style="stop-color:#BE1622"/>
				<stop  offset="1" style="stop-color:#E30613"/>
			</linearGradient>
			<path fill="url(#SVGID_112_)" d="M322.225,398.324c0.086-0.983,0.125-2.074-4.02-5.918l-0.04,1.611L322.225,398.324z"/>
			<linearGradient id="SVGID_113_" gradientUnits="userSpaceOnUse" x1="500.75" y1="428.4639" x2="163.265" y2="428.4639">
				<stop  offset="0" style="stop-color:#BE1622"/>
				<stop  offset="1" style="stop-color:#E30613"/>
			</linearGradient>
			<polygon fill="url(#SVGID_113_)" points="437.057,426.856 434.203,430.319 434.62,430.068 437.473,426.608 			"/>
			<linearGradient id="SVGID_114_" gradientUnits="userSpaceOnUse" x1="500.75" y1="445.6963" x2="163.265" y2="445.6963">
				<stop  offset="0" style="stop-color:#BE1622"/>
				<stop  offset="1" style="stop-color:#E30613"/>
			</linearGradient>
			<path fill="url(#SVGID_114_)" d="M418.34,444.593c-0.686,0.876-1.177,1.568-1.614,2.207
				C417.489,445.917,418.053,445.175,418.34,444.593z"/>
			<linearGradient id="SVGID_115_" gradientUnits="userSpaceOnUse" x1="500.75" y1="459.0938" x2="163.265" y2="459.0938">
				<stop  offset="0" style="stop-color:#BE1622"/>
				<stop  offset="1" style="stop-color:#E30613"/>
			</linearGradient>
			<path fill="url(#SVGID_115_)" d="M408.456,461.81c-4.253,3.176,4.415-5.84-2.706,0.804c-1.108,0.104,1.468-3.772,4.956-6.762
				c0.216,0.732-2.853,3.46-0.376,1.952c1.604-2.698,2.795-3.144,1.331-3.107c3.177-4.066,3.072-4.975,5.064-7.896
				c-4.063,4.688-13.983,13.146-18.62,19.614c-0.405,0.832-1.181,2.078-1.317,2.713c-0.193,0.689-0.054,1.084,0.266,1.317
				c0.629,0.48,2.021,0.294,2.609,0.943c0.144-0.071,0.506-0.362,1.03-0.829l1.148-0.994c0.854-0.774,1.916-1.798,2.939-2.853
				C406.83,464.602,408.718,462.369,408.456,461.81z"/>
			<linearGradient id="SVGID_116_" gradientUnits="userSpaceOnUse" x1="500.75" y1="455.502" x2="163.265" y2="455.502">
				<stop  offset="0" style="stop-color:#BE1622"/>
				<stop  offset="1" style="stop-color:#E30613"/>
			</linearGradient>
			<path fill="url(#SVGID_116_)" d="M415.541,457.201c1.78-1.658,2.257-2.232,3.208-3.392
				C418.042,453.67,416.912,455.791,415.541,457.201z"/>
			<linearGradient id="SVGID_117_" gradientUnits="userSpaceOnUse" x1="500.75" y1="458.4658" x2="163.265" y2="458.4659">
				<stop  offset="0" style="stop-color:#BE1622"/>
				<stop  offset="1" style="stop-color:#E30613"/>
			</linearGradient>
			<path fill="url(#SVGID_117_)" d="M364.136,458.389c-0.502-0.15-3.833-3.043-3.47-2.07l4.941,4.493
				C364.527,459.678,364.355,459.071,364.136,458.389z"/>
			<linearGradient id="SVGID_118_" gradientUnits="userSpaceOnUse" x1="500.75" y1="461.8398" x2="163.265" y2="461.8399">
				<stop  offset="0" style="stop-color:#BE1622"/>
				<stop  offset="1" style="stop-color:#E30613"/>
			</linearGradient>
			<path fill="url(#SVGID_118_)" d="M367.851,462.868l-2.243-2.057c0.252,0.266,0.542,0.553,0.894,0.879L367.851,462.868z"/>
			<linearGradient id="SVGID_119_" gradientUnits="userSpaceOnUse" x1="500.75" y1="458.2256" x2="163.265" y2="458.2256">
				<stop  offset="0" style="stop-color:#BE1622"/>
				<stop  offset="1" style="stop-color:#E30613"/>
			</linearGradient>
			<path fill="url(#SVGID_119_)" d="M364.021,458.055l0.114,0.334C364.24,458.418,364.266,458.367,364.021,458.055z"/>
			<linearGradient id="SVGID_120_" gradientUnits="userSpaceOnUse" x1="500.75" y1="377.5381" x2="163.265" y2="377.5381">
				<stop  offset="0" style="stop-color:#BE1622"/>
				<stop  offset="1" style="stop-color:#E30613"/>
			</linearGradient>
			<path fill="url(#SVGID_120_)" d="M304.057,379.102c0.409-0.272-1.898-2.171-3.054-3.126
				C301.832,376.862,302.927,378.18,304.057,379.102z"/>
			<linearGradient id="SVGID_121_" gradientUnits="userSpaceOnUse" x1="500.75" y1="418.3232" x2="163.265" y2="418.3233">
				<stop  offset="0" style="stop-color:#BE1622"/>
				<stop  offset="1" style="stop-color:#E30613"/>
			</linearGradient>
			<path fill="url(#SVGID_121_)" d="M209.62,417.532l-2.128,1.583C208.31,418.623,208.727,418.365,209.62,417.532z"/>
			<linearGradient id="SVGID_122_" gradientUnits="userSpaceOnUse" x1="500.75" y1="455.7061" x2="163.265" y2="455.7061">
				<stop  offset="0" style="stop-color:#BE1622"/>
				<stop  offset="1" style="stop-color:#E30613"/>
			</linearGradient>
			<path fill="url(#SVGID_122_)" d="M190.288,455.432c0.013,0.118-0.07,0.313-0.203,0.549
				C190.229,455.755,190.301,455.568,190.288,455.432z"/>
			<linearGradient id="SVGID_123_" gradientUnits="userSpaceOnUse" x1="500.75" y1="460.6963" x2="163.265" y2="460.6963">
				<stop  offset="0" style="stop-color:#BE1622"/>
				<stop  offset="1" style="stop-color:#E30613"/>
			</linearGradient>
			<path fill="url(#SVGID_123_)" d="M190.085,455.98c-0.987,1.551-5.344,5.028-6.322,6.866l0.049-0.309l-2.367,2.874
				C183.864,462.918,189.075,457.814,190.085,455.98z"/>
		</g>
	</g>
	<g>
		<linearGradient id="SVGID_124_" gradientUnits="userSpaceOnUse" x1="0" y1="250.0005" x2="265.4648" y2="250.0005">
			<stop  offset="0" style="stop-color:#BE1622"/>
			<stop  offset="1" style="stop-color:#E30613"/>
		</linearGradient>
		<path fill="url(#SVGID_124_)" d="M146.048,486.62c-3.791,0-4.422-1.896-4.422-6.317l0.631-30.962
			c-6.95,0.632-26.537-0.631-32.855-2.526l-1.263,34.117c0,3.793-1.263,5.688-4.423,5.688h-13.9c-3.791,0-4.422-1.896-4.422-6.317
			l1.263-37.278c-17.06-5.057-36.014-13.899-46.756-20.22c-7.582-4.422-11.373-6.316-13.9-6.316c-3.791,0-6.317,3.158-11.374,12.001
			c-1.263,2.53-5.054,3.162-8.845,3.162c-3.791,0-6.318-2.526-5.686-10.742c2.527-24.642,8.213-93.51,10.108-108.042
			c0-3.158,1.896-4.425,4.422-4.425l13.901,0.635c2.527,0,3.791,0.632,3.791,4.422c1.264,17.059,1.896,34.748,12.637,61.289
			c9.478,15.163,25.904,30.958,42.333,40.433l4.422-139.632c-25.905-6.316-42.964-15.795-58.127-29.064
			C12.101,226.938,1.36,203.561,1.36,165.019c0-47.387,19.587-70.764,41.7-88.455c13.27-10.741,34.751-19.587,53.705-22.114
			l1.263-35.382c0-4.423,1.265-5.687,4.424-5.687h13.901c3.159,0,4.422,1.896,4.422,5.687l-0.633,32.855
			c9.478-0.632,22.114,0,32.225,1.264l0.631-33.488c0-5.686,1.263-6.317,4.423-6.317h13.9c3.159,0,4.422,1.896,4.422,5.687
			l-1.263,37.278c12.636,2.527,22.746,5.686,37.278,10.108c5.054,1.264,8.213,0.632,11.373-1.895l6.95-7.582
			c2.526-2.527,4.422-2.527,7.582-2.527c3.791,0,5.686,2.527,5.686,7.582c0,34.12,1.264,89.088,1.896,101.725
			c0,2.527-1.263,4.422-3.159,4.422l-13.267,1.895c-1.896,0-3.16,0-3.791-1.895c-5.056-17.059-10.743-41.701-22.114-56.864
			c-5.055-6.318-14.533-20.218-27.801-26.537l-5.054,128.893c63.814,17.691,95.407,46.756,95.407,118.782
			c0,52.442-34.12,102.989-101.094,114.362l-0.632,33.488c0,5.054-1.895,6.317-5.054,6.317H146.048z M96.134,79.723
			c-28.433,12.005-32.855,39.804-32.855,60.655c0,28.432,10.741,43.596,30.328,52.442L96.134,79.723z M110.034,423.437
			c5.055,1.895,21.482,3.158,32.855,2.526l3.792-136.474c-16.428-4.422-25.273-6.316-32.224-8.844L110.034,423.437z M151.734,77.195
			c-8.846-3.159-24.009-5.055-32.222-3.159l-3.792,126.997c5.687,3.16,18.324,5.054,32.224,7.582L151.734,77.195z M165.003,422.805
			c21.482-8.212,38.541-29.695,38.541-68.869c0-20.852-10.741-46.121-34.749-57.495L165.003,422.805z"/>
	</g>
</g>
</svg>
