<?xml version="1.0" encoding="utf-8"?>
<!-- Generator: Adobe Illustrator 15.0.0, SVG Export Plug-In . SVG Version: 6.00 Build 0)  -->
<!DOCTYPE svg PUBLIC "-//W3C//DTD SVG 1.0//EN" "http://www.w3.org/TR/2001/REC-SVG-20010904/DTD/svg10.dtd">
<svg version="1.0" id="Layer_1" xmlns="http://www.w3.org/2000/svg" xmlns:xlink="http://www.w3.org/1999/xlink" x="0px" y="0px"
	 width="500px" height="500px" viewBox="0 0 500 500" enable-background="new 0 0 500 500" xml:space="preserve">
<g>
	<g>
		
			<linearGradient id="SVGID_1_" gradientUnits="userSpaceOnUse" x1="302.9111" y1="3498.79" x2="302.9111" y2="3926.626" gradientTransform="matrix(1 0 0 1 -52.9116 -3426.627)">
			<stop  offset="0" style="stop-color:#009EE2"/>
			<stop  offset="1" style="stop-color:#1D70B7"/>
		</linearGradient>
		<path fill="url(#SVGID_1_)" d="M424.808,486.618c0,19.827-60.524,11.756-71.393,11.756c-46.292,0-92.574,0-138.854,0
			c-37.736,0-75.5,0-113.236,0c-8.616,0-22.66,2.287-26.361-8.008c-1.954-5.489-0.633-13.243-0.633-18.869
			c0-82.332,0-164.643,0-246.958c0-38.174,0-76.322,0-114.496c0-16.878-4.537-37.879,18.378-37.879c80.382,0,160.776,0,241.176,0
			c25.993,0,51.965,0,77.94,0c20.221,0,13.042,43.058,13.042,55.138C424.808,247.065,424.808,366.822,424.808,486.618"/>
		<path fill="#EDEDED" d="M313.367,472.458c26.808-23.202,53.603-46.395,80.426-69.596c5.6-4.855,4.395-6.78,4.395-14.392
			c0-15.347,0.026-30.684,0.026-46.036c0-77.011,0.028-154.008,0.028-230.99c0-0.463,0-0.929,0-1.389c-72.196,0-144.393,0-216.593,0
			c-26.047,0-52.08,0-78.11,0c-0.088,0-0.061,59.377-0.061,62.8c0,99.87,0,199.72-0.028,299.587
			C173.407,472.442,243.396,472.458,313.367,472.458"/>
		<path fill="#FFFFFF" d="M111.638,118.152c72.972,0,145.972,0,218.961,0c16.155,0,32.291,0,48.462,0
			c4.866,0,12.178-2.61,12.178,3.063c0,39.94,0,79.871,0,119.812c0,16.094,0,32.199,0,48.309c0,5.689-7.312,3.058-12.178,3.058
			c-39.128,0-78.229,0-117.371,0c-42.46,0-84.919,0-127.395,0c-3.132,0-20.333,2.372-22.657,0c-3.562-3.6,0-28.666,0-33.521
			C111.638,211.983,111.638,165.082,111.638,118.152"/>
		<path fill="#1D71B8" d="M367.272,115.009c-10.614-29.757-41.771-25.479-67.13-29.183c-10.367-1.528-7.02-17.928-6.69-25.263
			c0.198-5.141,0.446-10.275,0.688-15.41c0.087-1.322-8.313-5.73-9.536-6.733c-11.341-9.365-11.143-25.289-23.316-34.612
			c-8.1-6.203-19.043-4.411-26.119,2.369c-10.642,10.215-10.785,25.225-22.963,34.064c-1.019,0.758-7.251,3.679-7.192,4.912
			c0.299,6.267,0.618,12.527,0.876,18.797c0.342,8.874,2.499,20.82-8.787,22.126c-13.185,1.545-26.708,1.602-39.69,4.662
			c-9.878,2.321-27.684,15.448-25.96,27.718c0.788,5.617,8.958,3.653,12.691,3.653c35.165,0,70.33,0,105.499,0
			c19.656,0,39.312,0,58.972,0c14.215,0,28.431,0,42.588,0C356.112,122.109,370.874,125.053,367.272,115.009 M250.057,35.848
			c-18.076,0-18.076-28.057,0-28.057C268.137,7.791,268.137,35.848,250.057,35.848"/>
	</g>
	<g>
		<path fill="#FFFFFF" d="M342.831,314.934c0,4.669-3.861,8.454-8.628,8.454H166.755c-4.766,0-8.631-3.785-8.631-8.454v-30.423
			c0-4.67,3.865-8.453,8.631-8.453h167.448c4.767,0,8.628,3.783,8.628,8.453V314.934z"/>
		<linearGradient id="SVGID_2_" gradientUnits="userSpaceOnUse" x1="345.0137" y1="234.3159" x2="154.0911" y2="234.3159">
			<stop  offset="0" style="stop-color:#009EE2"/>
			<stop  offset="1" style="stop-color:#1D70B7"/>
		</linearGradient>
		<path fill="url(#SVGID_2_)" d="M169.551,328.005c-15.515,0.607-14.244-17.744-14.244-28.171c0-17.228,0-34.479,0-51.705
			c0-34.729-0.023-69.405-0.023-104.121c0-1.183,0-2.361,0-3.509c42.655,0,85.358,0,128.012-0.013c0,4.319,1.492,6.474-3.011,6.474
			c-5.945,0-11.893,0-17.864,0c-14.143,0-28.265,0.022-42.409,0.022c-19.43,0-38.85,0-58.246,0c0,29.246,0,58.515,0,87.793
			c0,19.052,0.026,38.129,0.026,57.18c0,6.264-2.999,25.595,4.809,28.975c0.942,0.392,2.337,0.637,3.315,0.637l0,0
			c5.556,0,11.111,0,16.691,0c31.765,0,63.541-0.015,95.305-0.015c14.17,0,28.351-0.008,42.519-0.008
			c7.417,0,13.558-1.352,13.558-10.283c-0.023-32.77-0.023-65.559-0.023-98.329c-0.023-17.653-0.023-35.31-0.023-53.003
			c-0.015-4.039-0.015-8.087-0.015-12.14c0-1.957-7.929-0.83-9.518-0.83c-10.068,0-20.103,0-30.172,0c-3.783,0-7.575,0-11.346,0
			c-3.252,0-3.572,0.793-3.572-2.718c0-2.547-0.904-3.744,1.676-3.744c3.392,0,6.744,0,10.144,0c10.23,0,20.484,0,30.699,0
			c6.168,0,12.323,0,18.54,0c0.098,0,0.047,6.461,0.047,6.826c0.025,15.445,0.025,30.907,0.025,46.362
			c0,36.917,0.025,73.869,0.025,110.795c0,2.793,0.197,5.668-0.025,8.47c-1.442,17.523-18.403,15.075-31.238,15.075
			c-32.243,0-64.498,0.021-96.75,0.021c-9.959,0-19.893,0-29.831,0c-5.556,0-11.134,0-16.689,0c-0.074,0-0.159,0-0.233,0
			C169.648,328.027,169.575,328.005,169.551,328.005"/>
		
			<linearGradient id="SVGID_3_" gradientUnits="userSpaceOnUse" x1="83.4565" y1="3550.8457" x2="83.4565" y2="3732.0254" gradientTransform="matrix(1 -1.000000e-004 1.000000e-004 1 165.8596 -3413.6965)">
			<stop  offset="0" style="stop-color:#FFFFFF"/>
			<stop  offset="0.4068" style="stop-color:#EBE7E7"/>
			<stop  offset="1" style="stop-color:#D1D6D1"/>
		</linearGradient>
		<path fill="url(#SVGID_3_)" d="M283.32,137.253c-41.602,0.016-83.218,0.016-124.783,0.016c0,28.952,0,57.924,0,86.877
			c0,19.406,0,38.822,0,58.202c0,8.041-1.027,16.815,0.159,24.807c1.701,11.729,11.417,11.168,20.887,11.168
			c18.318,0,36.635,0,54.951-0.034c28.009,0,56.029,0,84.011-0.025c9.531,0,20.229,1.392,22.415-10.524
			c0.417-2.25,0.261-4.565,0.261-6.852c0-14.744-0.024-29.487-0.024-44.221c0-36.475,0-72.962,0-109.438c0-3.221,0-6.458,0-9.66
			c0-0.729-10.045-0.323-11.036-0.323C314.549,137.253,298.933,137.253,283.32,137.253"/>
		<path fill="#FFFFFF" fill-opacity="0.4" d="M341.222,239.646c0-31.799-0.024-63.588-0.024-95.403c0-2.081,1.294-6.998-1.286-6.998
			c-7.965,0-15.893,0-23.847,0c-12.553,0-25.143,0-37.711,0c-39.939,0.023-79.878,0.023-119.816,0.023
			c0,31.814,0,63.604,0.025,95.416c0,0.905-0.586,7.01,0.415,7.01c3.392,0,6.78,0,10.155,0c16.35,0,32.697-0.011,49.044-0.011
			C259.192,239.671,300.207,239.646,341.222,239.646"/>
		<linearGradient id="SVGID_4_" gradientUnits="userSpaceOnUse" x1="345.1348" y1="156.2554" x2="154.214" y2="156.2554">
			<stop  offset="0" style="stop-color:#009EE2"/>
			<stop  offset="1" style="stop-color:#1D70B7"/>
		</linearGradient>
		<path fill="url(#SVGID_4_)" d="M154.966,137.245c61.656,0,123.324,0,184.982,0c1.396,0,4.82-0.83,4.82,0.854
			c0,8.739,0,17.509,0,26.308c0,1.813,1.274,11.062-0.933,11.062c-3.717,0-7.437,0-11.169,0c-37.553,0-75.093,0-112.605,0
			c-20.092,0-40.184,0-60.287,0c-6.032,0-4.808-0.171-4.808-6.706C154.966,158.254,154.966,147.753,154.966,137.245"/>
		<linearGradient id="SVGID_5_" gradientUnits="userSpaceOnUse" x1="154.8647" y1="152.79" x2="344.7686" y2="152.79">
			<stop  offset="0" style="stop-color:#009EE2"/>
			<stop  offset="1" style="stop-color:#1D70B7"/>
		</linearGradient>
		<path fill="url(#SVGID_5_)" d="M344.769,171.896c-61.669,0-123.325,0-184.982,0.025c-6.044,0-4.82-0.173-4.82-6.705
			c0-10.5-0.024-21.021-0.024-31.509c61.668-0.013,123.338-0.037,185.006-0.048c1.602,0,3.203,0,4.82,0
			C344.769,146.396,344.769,159.123,344.769,171.896"/>
		<g>
			<linearGradient id="SVGID_6_" gradientUnits="userSpaceOnUse" x1="313.501" y1="247.8325" x2="189.7621" y2="247.8325">
				<stop  offset="0" style="stop-color:#009EE2"/>
				<stop  offset="1" style="stop-color:#1D70B7"/>
			</linearGradient>
			<path fill="url(#SVGID_6_)" d="M236.637,241.415c3.645,1.228,6.359,3.238,8.14,6.034c1.783,2.792,2.674,9.344,2.674,19.647
				c0,7.654-0.871,13.589-2.614,17.809c-1.744,4.223-4.754,7.431-9.034,9.633c-4.278,2.198-9.765,3.3-16.46,3.3
				c-7.605,0-13.578-1.278-17.916-3.834c-4.337-2.555-7.189-5.683-8.556-9.389c-1.368-3.704-2.05-10.133-2.05-19.284v-7.606h24.007
				v15.631c0,4.159,0.247,6.804,0.743,7.933s1.594,1.693,3.297,1.693c1.863,0,3.091-0.713,3.686-2.141
				c0.594-1.425,0.891-5.148,0.891-11.169v-6.658c0-3.683-0.417-6.378-1.249-8.081c-0.831-1.703-2.059-2.822-3.684-3.355
				c-1.625-0.536-4.774-0.844-9.448-0.923v-13.965c5.705,0,9.23-0.217,10.578-0.652c1.345-0.436,2.317-1.388,2.912-2.853
				c0.594-1.467,0.891-3.765,0.891-6.896v-5.349c0-3.366-0.348-5.583-1.041-6.653c-0.693-1.069-1.772-1.605-3.239-1.605
				c-1.663,0-2.803,0.568-3.417,1.695s-0.92,3.536-0.92,7.22v7.903h-24.007v-8.201c0-9.19,2.099-15.4,6.298-18.628
				c4.2-3.229,10.874-4.841,20.026-4.841c11.449,0,19.214,2.236,23.293,6.709c4.08,4.474,6.122,10.689,6.122,18.646
				c0,5.383-0.733,9.274-2.198,11.67C242.897,237.247,240.322,239.436,236.637,241.415z"/>
			<linearGradient id="SVGID_7_" gradientUnits="userSpaceOnUse" x1="313.5039" y1="247.8311" x2="189.7597" y2="247.8311">
				<stop  offset="0" style="stop-color:#009EE2"/>
				<stop  offset="1" style="stop-color:#1D70B7"/>
			</linearGradient>
			<path fill="url(#SVGID_7_)" d="M312.701,232.292v32.088c0,7.288-0.398,12.597-1.19,15.925c-0.793,3.328-2.437,6.437-4.932,9.329
				c-2.496,2.892-5.506,4.974-9.034,6.239c-3.524,1.269-7.465,1.901-11.824,1.901c-5.743,0-10.517-0.663-14.322-1.99
				c-3.802-1.327-6.832-3.396-9.089-6.209c-2.261-2.813-3.862-5.774-4.814-8.884c-0.951-3.11-1.427-8.054-1.427-14.826v-33.574
				c0-8.833,0.763-15.451,2.286-19.85c1.525-4.396,4.556-7.922,9.093-10.576c4.538-2.653,10.034-3.98,16.491-3.98
				c5.268,0,9.983,0.92,14.145,2.761c4.159,1.844,7.269,4.091,9.327,6.744c2.061,2.658,3.456,5.646,4.188,8.975
				C312.332,219.693,312.701,225.003,312.701,232.292z M288.692,224.21c0-5.109-0.247-8.309-0.742-9.598
				c-0.496-1.288-1.655-1.932-3.478-1.932c-1.782,0-2.962,0.685-3.534,2.052c-0.577,1.365-0.863,4.524-0.863,9.478v46.943
				c0,5.588,0.267,8.956,0.803,10.104c0.536,1.148,1.693,1.724,3.476,1.724s2.951-0.674,3.506-2.021
				c0.556-1.346,0.833-4.378,0.833-9.091V224.21z"/>
		</g>
	</g>
	<g>
		<linearGradient id="SVGID_8_" gradientUnits="userSpaceOnUse" x1="125.0254" y1="369.8496" x2="221.498" y2="369.8496">
			<stop  offset="0" style="stop-color:#009EE2"/>
			<stop  offset="1" style="stop-color:#1D70B7"/>
		</linearGradient>
		<path fill="url(#SVGID_8_)" d="M178.102,452.007c-1.379,0-1.607-0.657-1.607-2.194l0.228-10.748
			c-2.524,0.218-9.642-0.222-11.938-0.878l-0.46,11.849c0,1.314-0.459,1.972-1.607,1.972h-5.05c-1.38,0-1.608-0.657-1.608-2.194
			l0.459-12.942c-6.2-1.755-13.087-4.823-16.992-7.019c-2.754-1.534-4.134-2.192-5.052-2.192c-1.376,0-2.297,1.094-4.134,4.165
			c-0.459,0.876-1.835,1.098-3.213,1.098c-1.376,0-2.296-0.875-2.067-3.731c0.918-8.556,2.984-32.467,3.673-37.513
			c0-1.094,0.69-1.536,1.607-1.536l5.052,0.221c0.92,0,1.38,0.222,1.38,1.534c0.457,5.922,0.689,12.066,4.589,21.283
			c3.445,5.264,9.415,10.748,15.386,14.037l1.608-48.481c-9.415-2.194-15.614-5.487-21.126-10.096
			c-7.806-6.798-11.71-14.917-11.71-28.3c0-16.45,7.118-24.568,15.155-30.71c4.822-3.729,12.628-6.801,19.517-7.68l0.459-12.286
			c0-1.536,0.458-1.973,1.609-1.973h5.049c1.151,0,1.607,0.657,1.607,1.973l-0.228,11.413c3.441-0.223,8.034,0,11.71,0.436
			l0.228-11.633c0-1.971,0.459-2.188,1.608-2.188h5.052c1.148,0,1.607,0.657,1.607,1.973l-0.459,12.942
			c4.593,0.881,8.265,1.978,13.545,3.511c1.837,0.441,2.986,0.219,4.134-0.657l2.526-2.631c0.918-0.879,1.606-0.879,2.754-0.879
			c1.378,0,2.067,0.879,2.067,2.634c0,11.846,0.46,30.931,0.688,35.32c0,0.876-0.459,1.534-1.148,1.534l-4.82,0.658
			c-0.689,0-1.149,0-1.376-0.658c-1.839-5.924-3.904-14.477-8.04-19.743c-1.834-2.194-5.279-7.019-10.103-9.218l-1.835,44.756
			c23.191,6.144,34.671,16.236,34.671,41.246c0,18.208-12.398,35.755-36.74,39.707l-0.229,11.626c0,1.759-0.689,2.194-1.835,2.194
			H178.102z M159.963,310.724c-10.333,4.169-11.941,13.824-11.941,21.062c0,9.871,3.905,15.137,11.022,18.213L159.963,310.724z
			 M165.012,430.069c1.837,0.658,7.808,1.099,11.942,0.877l1.376-47.387c-5.969-1.535-9.183-2.193-11.709-3.071L165.012,430.069z
			 M180.167,309.847c-3.213-1.094-8.724-1.752-11.707-1.094l-1.38,44.094c2.067,1.099,6.66,1.755,11.71,2.635L180.167,309.847z
			 M184.989,429.852c7.806-2.854,14.007-10.312,14.007-23.915c0-7.24-3.904-16.011-12.629-19.961L184.989,429.852z"/>
	</g>
</g>
</svg>
