<?xml version="1.0" encoding="utf-8"?>
<!-- Generator: Adobe Illustrator 15.0.0, SVG Export Plug-In . SVG Version: 6.00 Build 0)  -->
<!DOCTYPE svg PUBLIC "-//W3C//DTD SVG 1.0//EN" "http://www.w3.org/TR/2001/REC-SVG-20010904/DTD/svg10.dtd">
<svg version="1.0" id="Layer_1" xmlns="http://www.w3.org/2000/svg" xmlns:xlink="http://www.w3.org/1999/xlink" x="0px" y="0px"
	 width="500px" height="500px" viewBox="0 0 500 500" enable-background="new 0 0 500 500" xml:space="preserve">
<g>
	<g>
		<polyline fill="#FFFFFF" points="147.992,494.642 309.54,494.642 309.54,333.093 471.089,333.093 471.089,171.545 309.54,171.545 
			309.54,9.995 147.992,9.995 		"/>
		<linearGradient id="SVGID_1_" gradientUnits="userSpaceOnUse" x1="147.9922" y1="15.6094" x2="178.4438" y2="15.6094">
			<stop  offset="0" style="stop-color:#009EE2"/>
			<stop  offset="1" style="stop-color:#1D70B7"/>
		</linearGradient>
		<path fill="url(#SVGID_1_)" d="M175.855,14.735c-2.559,0.106-4.792-0.483-3.829-0.748c-5.214,0.713-5.325-0.098-6,1.285
			c-3.348,0.678-6.917-0.261-3.11-0.822l-9.647,0.846l5.77,0.215c-1.574,1.15-9.221-0.342-11.047,0.996l10.443-0.111l-0.522,0.383
			c2.378-0.413,6.996-0.241,8.606-0.08c-0.255,0.189-0.093,0.496-1.933,0.529c12.606,0.089,3.396-2.011,13.857-2.392
			C177.789,14.865,176.978,14.848,175.855,14.735z"/>
		<linearGradient id="SVGID_2_" gradientUnits="userSpaceOnUse" x1="176.748" y1="16.5181" x2="204.8877" y2="16.5181">
			<stop  offset="0" style="stop-color:#009EE2"/>
			<stop  offset="1" style="stop-color:#1D70B7"/>
		</linearGradient>
		<path fill="url(#SVGID_2_)" d="M186.565,17.549l4.399-1.442l7.377,0.373c0.085-0.499,5.458-0.9,1.818-1.339
			c-0.711,0.078-2.118,0.226-3.251,0.181c0.822-1.076,9.81-0.537,7.644-1.625c-5.836,0.285-6.732,0.048-10.325,0.922
			c-5.348-0.1-9.243-0.348-11.743-0.74c-1.588,0.163-1.811,0.822-3.829,0.955l1.371-0.042l0.218,1.618
			c1.681-0.34,3.273-0.179,5.14-0.213l-8.636,1.889c2.785,1.515,11.272,0.626,14.661,1.255
			C187.206,17.979,194.756,18.662,186.565,17.549z"/>
		<linearGradient id="SVGID_3_" gradientUnits="userSpaceOnUse" x1="178.4438" y1="14.835" x2="178.6548" y2="14.835">
			<stop  offset="0" style="stop-color:#009EE2"/>
			<stop  offset="1" style="stop-color:#1D70B7"/>
		</linearGradient>
		<path fill="url(#SVGID_3_)" d="M178.655,14.833l-0.211,0.004L178.655,14.833z"/>
		<linearGradient id="SVGID_4_" gradientUnits="userSpaceOnUse" x1="431.7354" y1="337.2188" x2="460.7197" y2="337.2188">
			<stop  offset="0" style="stop-color:#009EE2"/>
			<stop  offset="1" style="stop-color:#1D70B7"/>
		</linearGradient>
		<path fill="url(#SVGID_4_)" d="M441.301,337.67c-1.837,0.029-2.378,0.411-2.645,0.604l22.063-0.029
			c-1.059-0.426-8.584-0.952-3.588-1.204c-0.548-0.118-1.437-0.182-2.304-0.203c-0.77-0.019-1.637,0.007-2.47,0.063
			c-1.674,0.115-3.222,0.359-3.61,0.645l1.496-0.648c-4.763,0.83-8.018-0.8-4.911-1.288l-0.403,0.007l-13.194,3.196
			C436.583,338.995,435.468,337.711,441.301,337.67z"/>
		<linearGradient id="SVGID_5_" gradientUnits="userSpaceOnUse" x1="178.207" y1="497.3633" x2="181.0029" y2="497.3633">
			<stop  offset="0" style="stop-color:#009EE2"/>
			<stop  offset="1" style="stop-color:#1D70B7"/>
		</linearGradient>
		<path fill="url(#SVGID_5_)" d="M178.207,497.593c2.677-0.148,3.007-0.304,2.703-0.459
			C179.951,497.252,179.04,497.39,178.207,497.593z"/>
		<linearGradient id="SVGID_6_" gradientUnits="userSpaceOnUse" x1="424.5215" y1="340.0586" x2="428.6543" y2="340.0586">
			<stop  offset="0" style="stop-color:#009EE2"/>
			<stop  offset="1" style="stop-color:#1D70B7"/>
		</linearGradient>
		<path fill="url(#SVGID_6_)" d="M428.654,339.559l-4.133,1C426.177,340.288,427.628,339.929,428.654,339.559z"/>
		<linearGradient id="SVGID_7_" gradientUnits="userSpaceOnUse" x1="455.1768" y1="324.4375" x2="456.043" y2="324.4375">
			<stop  offset="0" style="stop-color:#009EE2"/>
			<stop  offset="1" style="stop-color:#1D70B7"/>
		</linearGradient>
		<path fill="url(#SVGID_7_)" d="M456.043,324.354c-0.004-0.053,0.008-0.101-0.052-0.171c-0.252,0.171-0.522,0.341-0.814,0.511
			h0.021C455.524,324.579,455.799,324.468,456.043,324.354z"/>
		<linearGradient id="SVGID_8_" gradientUnits="userSpaceOnUse" x1="333.4775" y1="343.3486" x2="334.8369" y2="343.3486">
			<stop  offset="0" style="stop-color:#009EE2"/>
			<stop  offset="1" style="stop-color:#1D70B7"/>
		</linearGradient>
		<path fill="url(#SVGID_8_)" d="M334.837,343.313l-1.359,0.07C333.974,343.376,334.419,343.351,334.837,343.313z"/>
		<linearGradient id="SVGID_9_" gradientUnits="userSpaceOnUse" x1="456.6318" y1="301.6992" x2="460.3945" y2="301.6992">
			<stop  offset="0" style="stop-color:#009EE2"/>
			<stop  offset="1" style="stop-color:#1D70B7"/>
		</linearGradient>
		<path fill="url(#SVGID_9_)" d="M456.632,290.884l0.963,9.194c-0.456-1.226-0.318,3.207-0.848,1.271
			c0.07,0.7,0.251,3.984,0.484,3.092l-0.029-1.877c1.326,4.848,1.837,1.911,2.848,9.95c0.785-4.992,0.066-7.181-0.537-9.82
			c-0.093-0.896-0.133-1.648-0.185-2.407l-1.852-7.644L456.632,290.884z"/>
		<linearGradient id="SVGID_10_" gradientUnits="userSpaceOnUse" x1="302.6123" y1="490.0107" x2="302.6445" y2="490.0107">
			<stop  offset="0" style="stop-color:#009EE2"/>
			<stop  offset="1" style="stop-color:#1D70B7"/>
		</linearGradient>
		<path fill="url(#SVGID_10_)" d="M302.645,490.061l-0.011-0.1C302.597,489.994,302.611,490.031,302.645,490.061z"/>
		<linearGradient id="SVGID_11_" gradientUnits="userSpaceOnUse" x1="302.5635" y1="489.748" x2="303.2344" y2="489.748">
			<stop  offset="0" style="stop-color:#009EE2"/>
			<stop  offset="1" style="stop-color:#1D70B7"/>
		</linearGradient>
		<path fill="url(#SVGID_11_)" d="M302.563,489.535l0.07,0.426C302.822,489.746,303.926,489.542,302.563,489.535z"/>
		<linearGradient id="SVGID_12_" gradientUnits="userSpaceOnUse" x1="428.6543" y1="339.1289" x2="431.7354" y2="339.1289">
			<stop  offset="0" style="stop-color:#009EE2"/>
			<stop  offset="1" style="stop-color:#1D70B7"/>
		</linearGradient>
		<path fill="url(#SVGID_12_)" d="M430.173,338.699c-0.126,0.248-0.656,0.548-1.519,0.859l3.081-0.748
			C431.298,338.796,430.721,338.744,430.173,338.699z"/>
		<linearGradient id="SVGID_13_" gradientUnits="userSpaceOnUse" x1="437.1865" y1="335.3652" x2="447.7852" y2="335.3652">
			<stop  offset="0" style="stop-color:#009EE2"/>
			<stop  offset="1" style="stop-color:#1D70B7"/>
		</linearGradient>
		<path fill="url(#SVGID_13_)" d="M437.187,335.804l7.743-0.189l2.855-0.688C444.822,335.185,441.356,335.362,437.187,335.804z"/>
		<linearGradient id="SVGID_14_" gradientUnits="userSpaceOnUse" x1="321.668" y1="343.4375" x2="424.5215" y2="343.4375">
			<stop  offset="0" style="stop-color:#009EE2"/>
			<stop  offset="1" style="stop-color:#1D70B7"/>
		</linearGradient>
		<path fill="url(#SVGID_14_)" d="M347.068,344.095c-16.042,0.204,3.94-1.563-3.433-1.937c-4.451,0.182-6.025,0.922-8.799,1.155
			c12.721-0.633-1.726,2.44,11.106,2.048c-1.826,1.341-9.255,1.463-13.609,1.1c-4.926-1.292,4.307-0.947,5.425-2.214
			c-5.151,0.211-4.244,0.444-6.429,1.166c-1.011-0.037-2.029-0.041-3.048-0.022l-1.529,0.045l-0.763,0.033l-0.363,0.019
			l-0.085,0.019c-0.463,0.107-0.863,0.259-1.207,0.363c-0.715,0.211-1.152,0.236-2.618-0.659l-0.049,0.011
			c0.293,1.637,0.9,1.984,1.57,2.852c1.082,0.533,0.919-0.101,1.312,0.033c0.178,0.111,0.366,0.263,0.585,0.504
			c-0.111-0.119-0.374-0.353-0.541-0.545c0.207,0.097,0.385,0.192,0.529,0.289c-0.27-0.24-0.577-0.585-0.662-0.885
			c-0.097-0.3,0.052-0.552,0.222-0.604c0.252-0.03,0.804-0.093,0.759,0.292c-0.11,0.097-0.203,0.196-0.277,0.297
			c0.126,0.107,0.211,0.1,0.312,0.036c0.048-0.029,0.1-0.073,0.155-0.125l1.507-0.16c2.033-0.211,4.093-0.385,6.011-0.011
			c0.203,0.312-1.252,0.456-1.471,0.648c4.304-0.944,8.459-0.889,14.832-1.556l-3.696,1.37c5.1-1.519,16.643-1.085,24.646-0.285
			c-0.89-0.233-2.485-0.396-1.526-0.659c4.699-0.329,8.247,0.611,6.073,1.333c4.589-1.137,17.49,0.959,23.749-0.519l28.767-6.969
			c-1.078,0.174-2.229,0.314-3.422,0.374c-2.614-1.2-4.021-1.056,0.56-2.188c-4.5,0.637-2.778,1.604-9.54,1.651
			c2.651-0.604,3.322-1.985-3.151-2.13c-16.187,1.204-26.915,4.626-42.031,6.374c-0.56-0.926-12.428-0.667-18.194-0.886
			c2.2-0.996,6.48-1.277,10.925-1.481l-11.15-0.133L347.068,344.095z"/>
		<linearGradient id="SVGID_15_" gradientUnits="userSpaceOnUse" x1="383.4004" y1="340.8896" x2="384.6523" y2="340.8896">
			<stop  offset="0" style="stop-color:#009EE2"/>
			<stop  offset="1" style="stop-color:#1D70B7"/>
		</linearGradient>
		<path fill="url(#SVGID_15_)" d="M384.652,340.977c-0.403-0.081-0.822-0.13-1.252-0.174
			C383.627,340.881,384.001,340.939,384.652,340.977z"/>
		<linearGradient id="SVGID_16_" gradientUnits="userSpaceOnUse" x1="359.667" y1="342.252" x2="361.0781" y2="342.252">
			<stop  offset="0" style="stop-color:#009EE2"/>
			<stop  offset="1" style="stop-color:#1D70B7"/>
		</linearGradient>
		<path fill="url(#SVGID_16_)" d="M361.022,342.303c0.056-0.033,0.033-0.063,0.056-0.101l-1.411,0.07L361.022,342.303z"/>
		<linearGradient id="SVGID_17_" gradientUnits="userSpaceOnUse" x1="426.1904" y1="336.3018" x2="429.0098" y2="336.3018">
			<stop  offset="0" style="stop-color:#009EE2"/>
			<stop  offset="1" style="stop-color:#1D70B7"/>
		</linearGradient>
		<path fill="url(#SVGID_17_)" d="M426.38,336.604c0.96-0.264,1.671-0.337,2.63-0.604c-0.593,0.092-1.333,0.162-2.048,0.244
			C426.28,336.366,425.958,336.492,426.38,336.604z"/>
		<linearGradient id="SVGID_18_" gradientUnits="userSpaceOnUse" x1="429.1025" y1="338.4678" x2="430.21" y2="338.4678">
			<stop  offset="0" style="stop-color:#009EE2"/>
			<stop  offset="1" style="stop-color:#1D70B7"/>
		</linearGradient>
		<path fill="url(#SVGID_18_)" d="M429.617,338.236l-0.515,0.382l1.07,0.081C430.283,338.496,430.161,338.321,429.617,338.236z"/>
		<linearGradient id="SVGID_19_" gradientUnits="userSpaceOnUse" x1="312.1543" y1="357.6357" x2="312.3545" y2="357.6357">
			<stop  offset="0" style="stop-color:#009EE2"/>
			<stop  offset="1" style="stop-color:#1D70B7"/>
		</linearGradient>
		<path fill="url(#SVGID_19_)" d="M312.154,356.867l0.2,1.537C312.34,357.479,312.259,357.078,312.154,356.867z"/>
		<linearGradient id="SVGID_20_" gradientUnits="userSpaceOnUse" x1="322.1582" y1="340.7158" x2="384.4023" y2="340.7158">
			<stop  offset="0" style="stop-color:#009EE2"/>
			<stop  offset="1" style="stop-color:#1D70B7"/>
		</linearGradient>
		<path fill="url(#SVGID_20_)" d="M329.197,342.518c5.58-0.089,0.666-1.382,8.562-1.389l-2.318-0.086
			c5.662-0.592,15.613-0.318,22.342-0.37c-0.76,0.556,4.081,0.671,3.296,1.529c4.596-0.203,9.15-0.393,11.521-1.277
			c2.852,0.293,7.177-0.485,10.802-0.122c-1.529-0.519,5.155-1.752-3.658-1.118c0.711-0.07,0.263-0.189,0.967-0.26
			c-5.678-0.722-7.955,0.5-12.847,0.519c-2.926-0.511,4.78-0.825,2.021-1.029c-6.11,0.474-19.167-0.615-18.764,1.308
			c-4.447,0.137-5.059-0.289-6.385-0.641c-3.518,1.025-10.043,0.803-15.679,0.655l-3.748-0.078
			c-0.692-0.007-1.326,0.012-1.833,0.074c-1.029,0.126-1.533,0.434-1.229,1.089l2.333-0.134l0.692-0.063l0.359-0.045l0.715-0.052
			c0.963-0.074,1.929-0.174,2.873-0.314L329.197,342.518z"/>
		<linearGradient id="SVGID_21_" gradientUnits="userSpaceOnUse" x1="415.9258" y1="336.7275" x2="417.0107" y2="336.7275">
			<stop  offset="0" style="stop-color:#009EE2"/>
			<stop  offset="1" style="stop-color:#1D70B7"/>
		</linearGradient>
		<path fill="url(#SVGID_21_)" d="M417.011,336.74c-0.344-0.011-0.803-0.004-1.085-0.025L417.011,336.74z"/>
		<linearGradient id="SVGID_22_" gradientUnits="userSpaceOnUse" x1="419.2529" y1="331.4902" x2="484.207" y2="331.4902">
			<stop  offset="0" style="stop-color:#009EE2"/>
			<stop  offset="1" style="stop-color:#1D70B7"/>
		</linearGradient>
		<path fill="url(#SVGID_22_)" d="M482.324,316.772c0.145,0.141,0.285,0.496,0.43,0.841l0.426,1.033l0.859,2.155
			c0.182,10.658,0.189,18.397,0.145,25.389c-8.936-0.055-16.85-0.188-28.507-0.147c-1.597-0.237,0.933-0.386,2.185-0.459
			l-15.246,0.089c-4.821,0.033-9.361,0.141-12.332,0.536c-2.6-0.015-9.421-0.559-6.836-1.063c-1.267,0.152-2.711,0.3-4.166,0.244
			c-0.385-0.614,3.255-0.178,3.337-0.681c-1.152-0.041-1.601-0.159-1.867,0.033c1.94-0.53-2.011-2.089,7.033-2.048
			c3.503,1.437-6.273,0.166-4.203,1.751c2.999,0.012,2.651-0.604,2.906-0.796c3.822,0.037,3.722,0.434,3.519,0.796
			c1.467-0.492,6.273,0.193,8.299-0.555c7.433-0.123-0.407,1.192,4.451,1.174l2.796-1.607l8.077,0.304
			c1.125-0.07,3.392-0.167,4.562-0.285c1.267-0.115,2.037-0.252,2.493-0.4c0.903-0.304,0.548-0.659,0.3-1.029
			c-0.541-0.737-0.493-1.519,8.806-1.97c-1.566,0.645,3.182,1.633,10.484,2.203c0.17-1.8,0.304-3.87,0.377-6.073
			c0.019,1.785,0.126,4.096,0.252,6.703c-5.447,0.296-12.523,0.711-18.164,0.377c5.784,0.63,2.004,0.667-2.607,0.73l-3.433,0.059
			l-1.555,0.048c-0.408,0.022-0.582,0.049-0.837,0.078c-0.908,0.118-1.252,0.318-0.374,0.678l0.651-0.122
			c0.211-0.037,0.426-0.074,0.907-0.107l2.593-0.174c1.803-0.101,3.732-0.163,5.721-0.192c3.974-0.063,8.181,0.007,12.036,0.188
			l-2.333,0.151c3.251,0.067,5.973-0.166,8.688-0.426c-0.386-4.832-0.83-9.624-0.448-15.749c-0.052-5.277,0.403-4.196,0.777-3.126
			l-0.322-6.1c-0.033-0.792-0.044-1.44-0.029-1.896C482.191,316.817,482.235,316.82,482.324,316.772z M482.662,328.493l-0.16,7.191
			C482.77,334.141,482.758,331.378,482.662,328.493z"/>
		<linearGradient id="SVGID_23_" gradientUnits="userSpaceOnUse" x1="244.6426" y1="17.2754" x2="245.9312" y2="17.2754">
			<stop  offset="0" style="stop-color:#009EE2"/>
			<stop  offset="1" style="stop-color:#1D70B7"/>
		</linearGradient>
		<path fill="url(#SVGID_23_)" d="M245.931,17.34l-1.289-0.13C244.924,17.285,245.413,17.318,245.931,17.34z"/>
		<linearGradient id="SVGID_24_" gradientUnits="userSpaceOnUse" x1="456.8613" y1="179.4824" x2="458.0908" y2="179.4824">
			<stop  offset="0" style="stop-color:#009EE2"/>
			<stop  offset="1" style="stop-color:#1D70B7"/>
		</linearGradient>
		<path fill="url(#SVGID_24_)" d="M458.091,179.507l-1.229-0.054C457.336,179.509,457.728,179.517,458.091,179.507z"/>
		<linearGradient id="SVGID_25_" gradientUnits="userSpaceOnUse" x1="402.3506" y1="185.0029" x2="405.9424" y2="185.0029">
			<stop  offset="0" style="stop-color:#009EE2"/>
			<stop  offset="1" style="stop-color:#1D70B7"/>
		</linearGradient>
		<path fill="url(#SVGID_25_)" d="M405.942,184.816l-3.592,0.374C403.769,185.166,404.88,185.018,405.942,184.816z"/>
		<linearGradient id="SVGID_26_" gradientUnits="userSpaceOnUse" x1="275.2451" y1="17.4199" x2="275.9336" y2="17.4199">
			<stop  offset="0" style="stop-color:#009EE2"/>
			<stop  offset="1" style="stop-color:#1D70B7"/>
		</linearGradient>
		<polygon fill="url(#SVGID_26_)" points="275.245,17.451 275.367,17.462 275.934,17.377 		"/>
		<linearGradient id="SVGID_27_" gradientUnits="userSpaceOnUse" x1="300.0303" y1="156.8105" x2="300.3857" y2="156.8105">
			<stop  offset="0" style="stop-color:#009EE2"/>
			<stop  offset="1" style="stop-color:#1D70B7"/>
		</linearGradient>
		<path fill="url(#SVGID_27_)" d="M300.03,158.349c0.138-0.839,0.26-1.964,0.355-3.075
			C300.227,155.222,300.112,156.551,300.03,158.349z"/>
		<linearGradient id="SVGID_28_" gradientUnits="userSpaceOnUse" x1="405.9424" y1="184.7661" x2="406.6055" y2="184.7661">
			<stop  offset="0" style="stop-color:#009EE2"/>
			<stop  offset="1" style="stop-color:#1D70B7"/>
		</linearGradient>
		<polygon fill="url(#SVGID_28_)" points="406.605,184.746 406.387,184.716 405.942,184.816 		"/>
		<linearGradient id="SVGID_29_" gradientUnits="userSpaceOnUse" x1="458.4395" y1="187.4316" x2="458.5986" y2="187.4316">
			<stop  offset="0" style="stop-color:#009EE2"/>
			<stop  offset="1" style="stop-color:#1D70B7"/>
		</linearGradient>
		<path fill="url(#SVGID_29_)" d="M458.439,187.264c0.052,0.107,0.089,0.209,0.159,0.335
			C458.568,187.433,458.51,187.336,458.439,187.264z"/>
		<linearGradient id="SVGID_30_" gradientUnits="userSpaceOnUse" x1="462.9941" y1="185.4067" x2="463.1572" y2="185.4067">
			<stop  offset="0" style="stop-color:#009EE2"/>
			<stop  offset="1" style="stop-color:#1D70B7"/>
		</linearGradient>
		<path fill="url(#SVGID_30_)" d="M462.994,185.046c0.041,0.268,0.093,0.526,0.163,0.722L462.994,185.046z"/>
		<linearGradient id="SVGID_31_" gradientUnits="userSpaceOnUse" x1="459.8721" y1="269.0938" x2="460.1016" y2="269.0938">
			<stop  offset="0" style="stop-color:#009EE2"/>
			<stop  offset="1" style="stop-color:#1D70B7"/>
		</linearGradient>
		<path fill="url(#SVGID_31_)" d="M459.872,267.438l0.229,3.311C460.076,269.123,459.987,268.153,459.872,267.438z"/>
		<linearGradient id="SVGID_32_" gradientUnits="userSpaceOnUse" x1="461.9424" y1="191.4116" x2="462.1611" y2="191.4116">
			<stop  offset="0" style="stop-color:#009EE2"/>
			<stop  offset="1" style="stop-color:#1D70B7"/>
		</linearGradient>
		<path fill="url(#SVGID_32_)" d="M461.942,191.182c0.074,0.192,0.148,0.385,0.219,0.513
			C462.112,191.237,462.017,191.019,461.942,191.182z"/>
		<linearGradient id="SVGID_33_" gradientUnits="userSpaceOnUse" x1="224.897" y1="12.4541" x2="225.1821" y2="12.4541">
			<stop  offset="0" style="stop-color:#009EE2"/>
			<stop  offset="1" style="stop-color:#1D70B7"/>
		</linearGradient>
		<polygon fill="url(#SVGID_33_)" points="224.897,12.55 225.097,12.544 225.182,12.357 		"/>
		<linearGradient id="SVGID_34_" gradientUnits="userSpaceOnUse" x1="213.9429" y1="14.958" x2="216.8501" y2="14.958">
			<stop  offset="0" style="stop-color:#009EE2"/>
			<stop  offset="1" style="stop-color:#1D70B7"/>
		</linearGradient>
		<path fill="url(#SVGID_34_)" d="M216.85,14.891l-2.907,0.133C215.021,15.033,216.072,14.983,216.85,14.891z"/>
		<linearGradient id="SVGID_35_" gradientUnits="userSpaceOnUse" x1="302.5205" y1="107.6821" x2="303.3926" y2="107.6821">
			<stop  offset="0" style="stop-color:#009EE2"/>
			<stop  offset="1" style="stop-color:#1D70B7"/>
		</linearGradient>
		<path fill="url(#SVGID_35_)" d="M302.615,109.193c0.233-0.876,0.511-2.933,0.777-1.972
			C303.056,105.543,302.245,105.654,302.615,109.193z"/>
		<linearGradient id="SVGID_36_" gradientUnits="userSpaceOnUse" x1="315.7246" y1="131.9941" x2="315.9658" y2="131.9941">
			<stop  offset="0" style="stop-color:#009EE2"/>
			<stop  offset="1" style="stop-color:#1D70B7"/>
		</linearGradient>
		<path fill="url(#SVGID_36_)" d="M315.954,131.488c-0.111,0.219-0.2,0.556-0.229,1.013
			C315.943,132.368,315.991,132.001,315.954,131.488z"/>
		<linearGradient id="SVGID_37_" gradientUnits="userSpaceOnUse" x1="198.0625" y1="17.3594" x2="224.4302" y2="17.3594">
			<stop  offset="0" style="stop-color:#009EE2"/>
			<stop  offset="1" style="stop-color:#1D70B7"/>
		</linearGradient>
		<path fill="url(#SVGID_37_)" d="M211.591,14.767c-0.522,0.381-13.165,1.214-2.529,1.411c-0.411,1.193-6.825,0.552-9.662,0.846
			c2.063,0.28-1.022,0.767-0.396,1.193c1.404-0.145,3.078-0.487,5.403-0.402c1.066,0.544-2.459,0.915-5.214,0.711
			c3.392,0.629-4.307,0.944,0.497,1.427c10.269-0.42,17.523-0.854,24.741-2.596c-5.851,0.287-12.398,0.643-17.198,0.163l2.019-1.032
			c5.425,0.908,8.773,0.23,14.109,0.326l-11.987-0.548c-5.614-0.859-1.859-1.055,2.57-1.242
			C212.854,15.011,211.869,14.948,211.591,14.767z"/>
		<linearGradient id="SVGID_38_" gradientUnits="userSpaceOnUse" x1="458.4424" y1="234.605" x2="458.583" y2="234.605">
			<stop  offset="0" style="stop-color:#009EE2"/>
			<stop  offset="1" style="stop-color:#1D70B7"/>
		</linearGradient>
		<path fill="url(#SVGID_38_)" d="M458.583,234.365c-0.048,0.046-0.092,0.061-0.141,0.172
			C458.502,235.085,458.55,234.82,458.583,234.365z"/>
		<linearGradient id="SVGID_39_" gradientUnits="userSpaceOnUse" x1="416.1709" y1="165.8672" x2="417.2676" y2="165.8672">
			<stop  offset="0" style="stop-color:#009EE2"/>
			<stop  offset="1" style="stop-color:#1D70B7"/>
		</linearGradient>
		<path fill="url(#SVGID_39_)" d="M416.171,165.693c0,0,0.393,0.178,1.011,0.348C417.422,165.944,417.182,165.833,416.171,165.693z"
			/>
		<linearGradient id="SVGID_40_" gradientUnits="userSpaceOnUse" x1="440.7598" y1="167.2754" x2="441.208" y2="167.2754">
			<stop  offset="0" style="stop-color:#009EE2"/>
			<stop  offset="1" style="stop-color:#1D70B7"/>
		</linearGradient>
		<path fill="url(#SVGID_40_)" d="M440.76,167.218l0.448,0.115L440.76,167.218z"/>
		<linearGradient id="SVGID_41_" gradientUnits="userSpaceOnUse" x1="297.9678" y1="116.4585" x2="298.041" y2="116.4585">
			<stop  offset="0" style="stop-color:#009EE2"/>
			<stop  offset="1" style="stop-color:#1D70B7"/>
		</linearGradient>
		<path fill="url(#SVGID_41_)" d="M297.972,115.009c-0.015,1.216,0.011,2.129,0.056,2.899
			C298.053,117.021,298.049,116.061,297.972,115.009z"/>
		<linearGradient id="SVGID_42_" gradientUnits="userSpaceOnUse" x1="378.6797" y1="170.8208" x2="379.4346" y2="170.8208">
			<stop  offset="0" style="stop-color:#009EE2"/>
			<stop  offset="1" style="stop-color:#1D70B7"/>
		</linearGradient>
		<polygon fill="url(#SVGID_42_)" points="378.68,170.903 379.435,170.79 378.986,170.738 		"/>
		<linearGradient id="SVGID_43_" gradientUnits="userSpaceOnUse" x1="352.7422" y1="171.1309" x2="383.1973" y2="171.1309">
			<stop  offset="0" style="stop-color:#009EE2"/>
			<stop  offset="1" style="stop-color:#1D70B7"/>
		</linearGradient>
		<path fill="url(#SVGID_43_)" d="M365.848,170.144c0.44-0.117,0.641-0.239,0.885-0.344c-4.581,0.429-12.994-0.037-13.99,1.059
			c1.555-0.026,9.613,0.618,8.239,1.261c3.192-0.274,7.91,0.495,9.632,0.315c-5.243-0.6-0.566-0.926,2.971-1.294
			c3.218,0.318-0.604,0.881,2.166,1.083l7.447-0.118l-6.488-0.146l1.971-1.055l-0.659,0.1
			C367.048,171.496,377.087,169.459,365.848,170.144z"/>
		<linearGradient id="SVGID_44_" gradientUnits="userSpaceOnUse" x1="366.7324" y1="169.6699" x2="368.4922" y2="169.6699">
			<stop  offset="0" style="stop-color:#009EE2"/>
			<stop  offset="1" style="stop-color:#1D70B7"/>
		</linearGradient>
		<path fill="url(#SVGID_44_)" d="M366.732,169.8c0.686-0.067,1.289-0.148,1.76-0.259
			C367.455,169.557,367.055,169.665,366.732,169.8z"/>
		<linearGradient id="SVGID_45_" gradientUnits="userSpaceOnUse" x1="321.1318" y1="168.1426" x2="322.7129" y2="168.1426">
			<stop  offset="0" style="stop-color:#009EE2"/>
			<stop  offset="1" style="stop-color:#1D70B7"/>
		</linearGradient>
		<path fill="url(#SVGID_45_)" d="M322.713,168.059c-0.452,0.035-0.944,0.085-1.581,0.167L322.713,168.059z"/>
		<linearGradient id="SVGID_46_" gradientUnits="userSpaceOnUse" x1="453.2881" y1="335.3105" x2="460.4092" y2="335.3105">
			<stop  offset="0" style="stop-color:#009EE2"/>
			<stop  offset="1" style="stop-color:#1D70B7"/>
		</linearGradient>
		<path fill="url(#SVGID_46_)" d="M453.288,335.1c0.118,0.155,1.641,0.393,3.606,0.492c1.874,0.097,3.7,0.053,3.5-0.352
			l-6.362-0.255L453.288,335.1z"/>
		<linearGradient id="SVGID_47_" gradientUnits="userSpaceOnUse" x1="308.2852" y1="63.0654" x2="308.4629" y2="63.0654">
			<stop  offset="0" style="stop-color:#009EE2"/>
			<stop  offset="1" style="stop-color:#1D70B7"/>
		</linearGradient>
		<path fill="url(#SVGID_47_)" d="M308.311,61.788c-0.021,0.711-0.033,1.426-0.019,2.141c0.041,0.153,0.086,0.302,0.126,0.415
			C308.537,63.908,308.389,62.499,308.311,61.788z"/>
		<linearGradient id="SVGID_48_" gradientUnits="userSpaceOnUse" x1="359.0039" y1="172.3105" x2="360.9814" y2="172.3105">
			<stop  offset="0" style="stop-color:#009EE2"/>
			<stop  offset="1" style="stop-color:#1D70B7"/>
		</linearGradient>
		<path fill="url(#SVGID_48_)" d="M359.004,172.501c1.174-0.124,1.696-0.252,1.978-0.381
			C360.223,172.185,359.522,172.288,359.004,172.501z"/>
		<linearGradient id="SVGID_49_" gradientUnits="userSpaceOnUse" x1="310.2402" y1="57.645" x2="311.1367" y2="57.645">
			<stop  offset="0" style="stop-color:#009EE2"/>
			<stop  offset="1" style="stop-color:#1D70B7"/>
		</linearGradient>
		<path fill="url(#SVGID_49_)" d="M310.24,61.386c0.233-0.907,0.585-2.244,0.896-2.435c0.007-1.855-0.419-3.159-0.57-5.047
			C310.685,56.035,310.604,58.503,310.24,61.386z"/>
		<linearGradient id="SVGID_50_" gradientUnits="userSpaceOnUse" x1="310.5518" y1="53.8271" x2="310.5664" y2="53.8271">
			<stop  offset="0" style="stop-color:#009EE2"/>
			<stop  offset="1" style="stop-color:#1D70B7"/>
		</linearGradient>
		<path fill="url(#SVGID_50_)" d="M310.552,53.75l0.015,0.154L310.552,53.75z"/>
		<linearGradient id="SVGID_51_" gradientUnits="userSpaceOnUse" x1="147.9922" y1="249.0229" x2="482.8945" y2="249.0229">
			<stop  offset="0" style="stop-color:#009EE2"/>
			<stop  offset="1" style="stop-color:#1D70B7"/>
		</linearGradient>
		<path fill="url(#SVGID_51_)" d="M449.484,334.756l-1.699,0.17l0.885-0.219l-4.396-0.244c-0.533,0.052-1.107,0.1-1.814,0.13
			c0.285-0.03,0.507-0.115,0.644-0.204l-1.41-0.093c-3.504,0.837-12.217,1.452-14.731,1.948c-3.325,0.359-7.399,0.563-9.951,0.496
			c2.367,0.019,5.507-0.151,4.566-0.614c-4.807-0.485-7.144-1.878-15.435-0.682l4.862-0.019l-10.936,1.804
			c-3.833-0.748,5.458-0.9,6.977-1.548c-8.506,0.889-15.583-1.485-19.523,0.073c-0.556-0.926-1.488-2.47-7.069-2.377
			c4.021,1.056-3.348,0.678-0.045,1.807c-1.929,0.53-6.229-0.333-6.547,0.359l0.522-0.381c-9.532-1.467-12.65,0.829-16.728,1.585
			c-11.413,0.377-16.653-0.223-25.96-0.067c-0.344-0.618-2.947-2.325-6.588-2.259c-1.644,0.837-8.665,1.226-8.45,2.3
			c5.365,0.452,3.796-0.899,7.173-1.151c2.959,1.126-0.015,1.114,4.518,1.788c-0.407-0.048-0.922-0.077-1.525-0.096l-1.829-0.019
			l-3.756,0.085c-2.673,0.07-5.417,0.126-7.605-0.145c-0.074,0.448-0.171,0.812-0.297,1.063l-0.151-1.229
			c-0.318,2.148-1.145,3.104-1.688,4.988c-0.271,0.93-0.471,2.089-0.504,3.648c-0.033,1.588,0.1,3.362,0.504,6.117l0.658,5.096
			c-0.106-0.248-0.232-0.274-0.329-0.407c-0.111,8.343-1.337,6.065-0.37,15.275c-0.074-0.711-0.192-0.267-0.267-0.988
			c-0.604,5.247,0.61,10.543,0.862,14.513c-0.896,2.422-0.881-0.578-1.529-2.074c-0.348,9.232,1.192,19.198,2.285,24.935
			l-0.526,5.95c-0.37-3.528-1.314-7.843-1.858-6.766c0.182,3.273,0.604,2.641,0.433,7.27c-0.573-0.789-1.106-2.732-1.829-4.91
			c-0.959,9.576,2.033,2.141,0.274,8.843c-0.012,3.007,0.825,4.755,1.519,5.085l-0.908,5.451c0.882,0.604,0.934,7.332,1.067,11.743
			c0.377,0.536,0.94-3.552,0.596-5.222c0.696,0.329,1.022,5.018,1.008,8.035c-1.849,1.107,0.267,19.754-1.911,16.188
			c0.237,5.381,0.411,11.624,0.581,17.761c0.171,6.565,0.341,13.557,0.566,19.371c-2.811,0.118-5.325,0.252-7.38,0.411
			c-3.777-0.511-10.396-0.537-6.61-1.403c-1.471-0.004-2.848,0.025-4.17,0.077c-1.252,0.049-2.385,0.122-3.507,0.204
			c-2.229,0.17-4.296,0.393-6.358,0.596c-4.122,0.411-8.236,0.76-13.65,0.508c-0.896-0.233,4.896-0.019,4.511-0.637
			c-7.077,0.744-12.876-0.781-23.855-0.285c1.843-0.033,2.384-0.415,2.639-0.607c0.192,0.308-4.499,0.637-7.339,0.933
			c-1.596-0.159,2.126-0.222,1.233-0.459c-21.212-0.896-37.373,1.618-58.474,1.533c6.025,0.026,8.303-1.2,8.369-1.699l-5.903-0.022
			c-2.274,0.607-6.707,0.607-10.414,1.066c-0.456-0.229-2.255-0.478-0.418-0.767c-11.658-1.24-18.212,2.236-32.5,1.6l17.302-2.47
			l-4.281-0.863l7.606-1.122c-4.54-0.678-8.495,0.889-9.04-0.04c0.959-0.264,3.274-0.178,3.344-0.682
			c-4.362-0.363-4.703,0.329-7.984,0.511c8.64-1.889,25.582-1.859,34.699-2.322c1.433-0.151-1.229,0.456-1.485,0.648
			c3.722-0.063,5.955,0.526,10.636,0.196c2.911-0.796-2.218-0.585-4.525-0.67c0.318-0.692,1.478-0.652,4.051-0.756
			c0.555,0.926,14.109,0.33,17.42,1.459c13.735-0.292-2.196-2.399,11.209-1.996l4.007,1.06c7.78-0.818,17.85-1.545,26.655-1.318
			l-1.855,0.033c-1.236,0.452,0.808,0.733,1.711,0.963c6.655,0.455,12.636-0.83,16.668,0.229c3.796-0.563,8.858-1.056,14.054-1.478
			c2.471-0.207,5.681-0.403,6.848-0.581l4.229-0.481c2.26,1.396-6.095,1.181-11.139,2.055l7.214-0.004l-1.244,0.03l-1.237,0.074
			c-0.914,0.066-1.703,0.159-2.433,0.277c-1.459,0.233-2.674,0.566-4.137,0.963c1.729,0.063,3.17,0.037,4.462-0.048
			c0.645-0.041,1.252-0.097,1.837-0.163l0.867-0.104l0.67-0.115c1.771-0.318,3.337-0.711,5.644-0.889
			c-0.185,0.382,0.593,0.614,2.955,0.622c-0.011-0.308-0.033-0.614-0.074-0.926c0.101,0.078,0.396,0.148,1.126,0.207l1.304-0.096
			l-0.474-7.236c-0.396,1.556-1.204,1.145-1.215,2.988c0.519-0.285,0.641,1.304,0.633,3.196h-0.229
			c0.06-0.033,0.107-0.063,0.137-0.093c-0.155-0.504-0.259-0.522-0.34-0.341c-0.76-0.178-2.271-0.252-2.496-0.577h1.918
			c-0.022-3.17-0.145-6.6-0.355-8.492c0.285-0.215,0.57-0.447,0.855-0.707l0.033-0.87l0.019-1.089l0.004-2.174l-0.074-4.232
			c-0.06-2.733-0.118-5.236,0.008-7.191l0.451,1.232c0.263-6.921-0.289-13.735,0.545-19.879c-0.975-6.173-1.789-13.946-2.812-18.993
			c-1.1-2.696,1.386-18.112-0.162-25.075c0.114-0.466,0.825,4.781,1.244,7.159c0.17-4.633-1.2-8.314-0.041-9.762
			c-0.389,10.387,0.926-0.56,1.256,4.121c-0.022-4.866-0.23-9.995-0.645-12.38c0.007,7.873-1.604-2.796-1.1,5.174
			c-0.975-6.177-1.363-14.605-0.985-21.964c0.5,0.074,0.733-0.833,0.94-3.577l-0.726-2.215c0.133-3.443,0.858,6.658,1.118-0.271
			c-0.622-3.569-0.444-8.939-0.4-13.806l-0.007-3.521l-0.048-2.181l-0.097-2.2c-0.159-2.807-0.467-5.1-1.044-6.547
			c0.455-3.93,0.685,0.159,0.94,3.511c0.255,3.414,0.537,6.032,1.092,0.381c0.208,1.733,0.304,3.552,0.349,5.37l0.044,4.195
			c0.012,2.437,0.06,4.474,0.634,5.259c-0.326-4.674,0.97-1.707,0.981-4.722c-0.237-1.808-0.471-3.207-0.708-5.77l-0.044,1.525
			c-0.526-5.681-0.674-13.346-0.707-21.301l12.698,0.004l6.276-0.004l5.248-0.037c9.458-1.155,15.968-2.825,27.311-2.699
			c-3.348,0.678,9.421,0.651,2.281,1.893c5.248,0.6,10.433-0.107,10.536-0.611c-4.622-0.171-1.626-0.159-5.515-0.403
			c2.626-0.607,8.677-0.582,11.165-0.186c-1.155-0.045-0.714,0.074-0.97,0.263c5.514,0.407,2.644-0.604,6.629-0.855
			c1.263,0.849,8.799,0.227,12.438,0.667l5.277-1.211c-2.899,0.796,5.055,0.289,5.889,1.021c3.784-0.563,6.954-1.548,12.72-1.333
			c-2.381,0.415,5.255,0.601,5.355,1.407c9.869,0.774,16.346-2.203,25.688-1.048c-0.288,0.192-2.177,0.723,0.556,0.926
			c1.078-0.114,2.556-0.148,4.056-0.163l2.214-0.019l1.026-0.011l0.478-0.011l0.252-0.016l-0.033,0.022l0.055-0.022
			c0.541-0.044,0.859-0.145,0.845-0.34c1.618-0.789,2.17-1.601,4.011-2.271c-1.126-0.926-2.448-0.566-3.244-0.271
			c-0.13,0.308-0.304,0.611-0.525,0.915c-0.289-0.349-0.545-0.508-0.804-0.56c-0.13-0.025-0.26-0.022-0.396-0.004l-0.122,0.019
			l-0.318,0.022l-0.63,0.06c-1.678,0.178-3.288,0.47-4.181,0.233c0.951-0.334,2.27-0.582,3.833-0.778l1.214-0.133
			c0.285-0.045,0.285-0.082,0.444-0.119c0.241-0.07,0.485-0.133,0.727-0.188c0.963-0.226,1.978-0.341,2.633-0.589
			c-0.111-0.507-0.248-0.985-0.43-1.411c-0.333,0.026-0.597,0.093-0.796,0.186c-0.708-0.289-1.223-0.452-1.667-0.529
			c-0.226-0.041-0.434-0.056-0.641-0.056l-4.092,0.044l2.048,0.278l1.025,0.137l0.512,0.07c0.147,0.022,0.418,0.048,0.377,0.07
			l-4.732,0.019l4.707,0.985c-4.604-0.174-8.592,0.077-12.758,0.022c4.877-0.019,6.78,1.259,4.019,1.055
			c-5.437-0.907-5.663,0.593-9.821,0.537c2.314,0.085,5.325,0.101,3.385,0.63c-8.195-1.111-10.406-0.386-17.857-1.574
			c0.923,1.544-9.31,0.155-10.428,1.419l3.459,0.129l-7.336,0.93c-6.767-1.255,5.991-1.281-4.304-2.17
			c-9.502-0.152-9.258,1.467-16.728,1.585c2.459-0.911,8.385-1.696,14.413-1.67l-3.651-0.441c1.934-0.529,10.27-0.418,14.432-0.362
			c-6.877,1.048,3.218,0.322,6.348,1.141c0.573-0.882-3.841-0.744,1.37-1.452c-4.881,0.015-5.596,0.089-11.81-0.244
			c13.432,0.403,12.076-3.07,23.797-2.325c-5.403,0.399,1.885,1.277,2.532,1.703c2.545-0.104,7.703-0.314,9.821-0.537l-1.918-1.277
			c3.414-0.274,5.714,0.263,8.146,0.703c1.215,0.223,2.463,0.419,3.899,0.481l1.004,0.015c0.045-0.003,0.085-0.019,0.13-0.044
			c0.085-0.052,0.166-0.155,0.211-0.318c-0.063-0.382-0.188-0.448-0.285-0.434c-0.06,0,0.022,0.011-0.148,0.019l-0.984,0.026
			c-0.53,0.015-0.76,0.019-0.408-0.019l1.441-0.093c0.081-0.026,0.066-0.045,0.1-0.06c0.044-0.029,0.085-0.037,0.13-0.025
			c0.085,0.021,0.192,0.114,0.355,0.252c0.322,0.281,0.885,0.751,1.74,1.214c0.337,0.056,0.674-0.048,0.93-0.411
			c-0.386-0.296-1.192-0.858-1.87-1.41c0.767,0.437,1.159,0.126,1.722,1.048c0.159-0.227,0.1-0.626-0.037-0.971
			c-0.066-0.174-0.155-0.337-0.244-0.478c-0.045,0.07-0.093-0.448-0.134-0.818l-0.122-1.1c-0.059,0.833-0.118,1.414-0.178,1.792
			c-0.063,0.141-0.126,0.104-0.192,0.122c-0.066,0-0.133-0.021-0.2-0.052c-0.033,0.037-0.07-0.126-0.104-0.308l-0.104-0.573
			c-0.277-1.667-0.556-4.322-0.785-4.937c0.13-3.451,0.767,1.052,0.988,3.177c0.204-2.773,1.334-6.065,0.186-7.64
			c0.403-0.052,0.938,1.886,1.393,4.478c0.226,1.296,0.437,2.755,0.604,4.211l0.115,1.092l0.052,0.496l0.044,0.145
			c0.06,0.192,0.101,0.389,0.126,0.57l0.066-0.478l0.034-0.244l0.029-0.849l0.133,0.815l0.086,0.226
			c0.048,0.13,0.066,0.252,0.07,0.378c0.007,0.259-0.056,0.548-0.119,1.037c0.626-0.815,1.318-0.764,1.893-0.297
			c-0.118,0.159-0.192-0.137-0.308,0.012c-0.203,1.021,0.015,1.929,0.444,1.892c1.085,1.655,0.678-1.418,1.219-2.277l-0.052-0.533
			l-0.026-0.263c-0.011-0.074-0.019-0.167-0.029-0.378l-0.107-2.104l-3.484-14.383c-0.404-6.144,0.43-8.906,0.955-13.524
			l-0.934-1.267c0.097-5.348,0.393-10.391,1.57-6.966c-0.311,0.192-0.236,0.9-0.281,2.06c0.126,0.155,0.219,0.422,0.293,0.759
			c0.052,0.111,0.107,0.174,0.159,0.267l-0.53-9.632c1.352,9.725,1.689,0.485,3.341,2.114l-0.537-9.821
			c-0.522,5.951-0.808,0.107-1.033-2.003c0.93-0.585-0.008-7.91,0.122-11.356l0.192,0.253c0.322-3.19,0.229-8.78-0.021-12.755
			c-0.312,0.181-1.83-4.92-2.744-7.371c-0.349,6.823-0.719,2.773-1.297,3.322c0.052-0.706,0.063-1.976-0.055-2.124
			c-0.264-0.978-0.353,1.326-0.659,1.519c0.433,7.252,0.555,14.714,1.852,17.674c0.589-2.228-0.56-3.796-0.167-6.289
			c0.87,3.594,0.7,8.23,0.674,14.253l-0.777,1.978l0.422,6.063c-0.411-2.529-1.226-1.008-1.381-7.369
			c-0.733,0.814,0.166,6.31-0.078,10.206l1.033,1.992c-0.578-0.767-0.688,7.573-1.474,1.647l-0.845-9.64l-0.703,2.678l-0.2-8.146
			l0.533,1.922c-0.711-13.091,2.056-3.859,0.837-17.037c-1.252-4.125-1.385-8.56-1.081-16.635c0.281,5.844,0.881,0.6,1.606,2.798
			c0.522-5.96-0.507-7.973-0.996-11.065c0.659-1.519,1.2-2.598,1.104,2.727c1.382,0.667-0.24-7.004,1.186-7.49
			c-0.022-8.821-1.17-12.354-2.093-16.261c-0.463-1.953-0.866-4-1.044-6.845c-0.045-0.713-0.074-1.474-0.089-2.298l-0.008-1.007
			c0.004-0.031,0.012-0.067,0.022-0.104c0.045-0.15,0.167-0.335,0.389-0.704c0.192-0.074,0.386-0.139,0.574-0.195
			c-0.17-0.335-0.259-0.581-0.304-0.84c-0.556,0.074-0.93,0.031-1.374,0.015l-0.337-0.007l-1.825,0.017
			c-2.052,0.021-4.2,0.065-6.515,0.152l-9.547-1.461c2.137-0.224,7.877-1.316,5.196-2.02c2.321,0.739,4.718,0.979,7.154,1.135
			l3.688,0.218l0.93,0.07l0.467,0.042c0.151,0.013,0.352,0.03,0.337,0.044c0.141,0.065,0.273,0.145,0.393,0.243
			c0.081-0.192,0.021-0.357-0.101-0.503c-0.063-0.074-0.141-0.143-0.219-0.208l-0.11-0.096l-0.374-0.091
			c0.492,0.002,0.437,0.013,0.555,0.033c0.09,0.019,0.175,0.044,0.252,0.074c0.159,0.061,0.301,0.137,0.441,0.204
			c0.288,0.135,0.555,0.237,1.096,0.107c0.155-0.304-0.951-0.67,0.06-0.85c0.403,0.304,0.703,0.605,0.903,0.909
			c0.519-0.109,0.985-0.304,1.426-0.524c0.651-0.002,1.548-0.792,1.233,1.657c-0.812-0.231-1.985-0.243-2.178-0.672
			c-0.078,0.437-0.182,0.354-0.314,0.272c-0.463,0.17-0.956,0.391-0.882,0.663c0.174-0.107,0.341-0.198,0.492-0.274
			c0.39,0.024,0.396,0.434,0.4,0.837c0,0.434-0.011,0.833,0.33,1.503c-0.167-0.167-0.404-0.174-0.479-0.49l-0.126,0.515
			l-0.063,0.241c-0.011,0.056-0.022,0.042-0.033,0.152l-0.03,0.678l-0.255,5.412c0.703-2.677,0.773,8.945,1.818,7.938
			c0.215-5.77,0.166-7.807,0.137-10.045c-0.015-1.12-0.026-2.29,0.008-4.001c0.029-0.507,0.104-1.098,0.251-2.122
			c0.115,0.483,0.441,1.015,0.859,1.655c0.104,0.194,0.215,0.241,0.33,0.57l0.352,1.307c0.24,0.824,0.489,1.546,0.733,2.109
			c-0.041,0.115-0.074,0.303-0.093,0.709c1.033,2.009,1.311-0.039,3.118,0c-0.322-1.501-0.496-2.877-0.589-4.208
			c-0.093-0.811-0.104-1.519-0.1-2.291c0.015-1.502,0.092-3.228-0.278-4.942c-0.496,0.037-0.811,0.859-0.97,1.77
			c-0.159,0.926-0.163,1.99-0.037,2.826c-0.219-0.963-0.438-1.841-0.655-2.635c0.151,0.08,0.304,0.17,0.455,0.272l0.122-2.966
			l-4.825-0.209c1.522-0.054,2.381-0.627,3.592-1.059c-1.133-0.039-2.137-0.302-3.351-0.587c-0.06,0.944-0.485,1.611-1.471,1.592
			l-5.029-0.279c-2.021-0.128-3.803-0.287-5.38-0.476c-3.159-0.374-5.515-0.855-7.396-1.396l-1.186,0.067
			c1.707,0.968-7.232,1.74-10.391,2.731c0.155-1.003-5.248-0.602-8.185-1.113c-1.563,1.148,0.522,2.733,4.096,3.672
			c6.888-1.05,3.859-1.06,7.114-2.55l11.05-0.993l-2.47,0.917c5.514,0.404,10.81-0.805,10.406,0.385
			c-2.915,0.794-7.725,0.313-10.617,1.111l3.647,0.436c-6.437,1.17-3.3-1.128-11.091-0.312c2.866,1.013-0.704,0.074-4.044,0.754
			c2.681,0.704,13.721-0.291,11.38,1.429c-4.055,0.754-13.635-2.016-18.994-0.305l0.264-0.193c-7.91-0.224-10.691,0.759-13.65,1.378
			c-3.366-0.558-8.014,0.226-11.661,0.289l0.089-0.5l-5.145,0.209c2.448-0.913,6.029,0.024,10.451-0.109l-0.549-0.93
			c5.096,1.104,8.492-0.574,12.447-1.375c-5.755,0.805-16.242-0.228-17.594,1.592l-3.56-0.942l-1.703,0.341
			c-2.647-0.706,0.06-1.811,5.199-2.022c0.893,0.235,1.337,0.352,1.066,0.546c2.389-0.417,4.577-1.139,10.351-0.924l-3.081,0.493
			c7.191,0.066,13.724-0.292,16.187-1.208c-10.376-0.389-20.582-0.47-30.329-0.428c-2.874,2.102-6.284,3.283-7.751,5.236
			c-6.536,0.361-15.412,0.63-21.094-0.085l0.522-0.385c-2.77-0.2-5.325-0.094-7.454,0.128c-2.926-0.513,2.003-1.033-0.037-1.311
			l-9.365,0.655c0.577-0.885,8.458-0.889,12.202-0.952c-0.708,0.074-2.134,0.222-1.675,0.341c4.352,0.363,12.462-1.143,14.365,0.137
			c2.122-0.222-4.307,0.944,2.874,1.011c4.807,0.481,6.373-0.667,6.877-1.05c0.077-0.502-7.548-0.687-4.903-1.291
			c-3.74,0.065-5.232,0.709-10.018,0.226c3.707-0.062,8.747-1.078,10.721-0.3c7.336-0.933,6.285-3.285,2.826-3.414
			c0.822,0.737-13.38,0.907-3.763,1.868c-4.321,0.948-12.213,0.956-17.864,1.546l0.259-0.188l-7.018,0.237
			c0.989-0.263,3.111-0.487,3.178-0.983l-9.717,1.343c5.469-0.904-3.389-0.628-5.878-1.026c-1.04,0.767-4.836,1.328-1.195,1.766
			c4.096,0.556,2.385-0.415,6.106-0.472l-5.273,1.208l-0.452-0.117l-3.17,0.987c-7.181-0.068,3.137-2.298-6.065-1.331l1.196,1.348
			l-6.54-0.133l-7.885-0.218l-15.482-0.522c0.314-10.2,0.521-19.14,0.218-25.587c0.767,3.62,2,4.573,2.729-0.069
			c-0.229,5.135-0.185,15.5-0.059,22.77l0.24-0.006c0.2,0.041,0.033,0.111-0.437,0.2c-0.223-0.7-0.56-3.024-0.812-6.177
			c-0.248-3.138-0.415-7.11-0.292-10.686c-0.778,1.704-0.841,4.974-0.696,8.394c0.147,3.437,0.503,6.947,0.559,9.709
			c2.411-0.048,3.963,0.111,3.722,0.769c10.929,0.389,15.479-0.15,19.153-0.622l2.781-0.326l2.478-0.208
			c1.433-0.08,3.28-0.017,6.014,0.311c0.152-0.998,3.107-0.487,3.685-1.368c-1.622-0.815-5.277-0.802-9.413-0.656l-4.207,0.124
			l-5.036,0.109c-3.333,0.052-6.563,0.05-9.24-0.093c1.141-0.072,3.403-0.222,3.918-0.411c-5.069-0.195-8.18-0.161-11.476-0.009
			l-0.308-4.731l-0.118,0.792c-0.978-9.062,0.744-6.536,1.185-12.113c-0.148-2.07,0.137-9.65-0.593-8.429l0.948-6.682l-1.114,0.316
			c-0.067-3.722,0.67-4.536-0.008-7.91l-1-0.157l-0.348,9.245c-0.326-4.685-0.956-1.305-1.163-6.455
			c1.093,5.753,0.552-4.068,1.481-4.635l-0.563-3.787l0.267,0.969c0.511-2.974-0.374-3.539-0.241-7.008
			c-0.559,4.092-1.259,6.771-0.552,11.983c-0.56-3.796-1.182-11.323-1.215-13.168c-0.418-3.987,0.341-6.768,0.456-10.497
			c0.399,7.155,3.025-2.505,2.311,11.832c-0.192-0.265-0.148-1.426-0.033-1.874c-1.274,1.911,0.081,8.595,0.57,11.704
			c0.733-0.802,0.914,2.45,1.322-3.063c-0.471,1.809-1.638-4.644-1.037-9.888l1.573,0.924l0.186-7.634l0.074,0.714
			c1.011-2.872-0.196-8.147,0.399-13.404c-0.563-3.795-0.114-18.358-1.759-12.093c0.981-4.72-0.271-8.86-0.481-14.009l-0.641,6.418
			c-1.126-7.588-0.399-5.401-2.188-11.475c0.43-0.615,0.781-1.968,1.233-0.733c0.085-10.195,0.529-24.754-0.76-30.734
			c0.07-7.186,1.923-8.314,1.196-18.396c-0.222-0.952-1.47,0.57-1.019-1.796c0.06-0.102,0.349,0.376,0.611,0.62
			c0.26,0.241,0.492,0.163,0.43-1.35c-0.67-0.917-0.393-2.242-0.188-3.962c-0.996-0.163-2.308-0.274-3.707,0.19
			c-0.611-0.216-1.597-0.285-2.355-0.417l-0.274-0.054l-0.533-0.063c-0.37-0.044-0.681-0.096-0.911-0.159
			c-0.466-0.126-0.614-0.294-0.285-0.533l3.026,0.087c0.722,0.004,1.451-0.015,2.14-0.056c1.367-0.08,2.593-0.244,3.097-0.474
			c-0.812,0.578,1.34,0.559-0.904,1.003c0.39,0.093,0.711,0.15,0.996,0.185c-0.236,2.354,0.715,1.105,0.282,4.333
			c0.385,0.187,1.059-2.324,0.718-2.952c0.652-0.491,0.812,1.415,1,2.983c0.192,1.515,0.415,2.863,1.2,0.687
			c0.04-1.959-0.322-3.257-0.715-4.163c-0.393-0.926-0.818-1.49-0.896-2.476c-0.752,0.052-1.393-0.041-2.092-0.375
			c0.944-0.352,1.918-0.417,2.962-0.499c0.104,1.133,0.233,2.281,0.996,3.104l0.526-4.248l-0.122-0.252
			c-1.093,0.272-2.118,0.546-3.077,0.82l0.304-0.194c-2.837-0.598-4.771-0.261-6.178,0.307c-0.366,0.141-0.711,0.298-1.059,0.458
			l-0.533,0.241l-1.008,0.239c-1.414,0.313-3.125,0.595-5.473,0.757c5.439,0.907-1.26,2.267,2.836,2.822
			c-6.284,0.167-10.895-0.007-10.939-1.314c11.755-1.066,0.667-1.383,11.532-2.687c-1.781-0.469,2.589-1.913-3.889-2.057
			c-7.291,0.931,2.186,1.088-5.092,1.52c-0.43-0.117-0.878-0.233-0.622-0.426c-3.348,0.679-3.903-0.247-7.954,0.505l0.963-0.263
			c-4.996-0.792-5.463,0.899-9.762,0.035c1.718,0.97-2.885,0.796-5.552,1.401c4.359,0.367,6.718,1.759,15.313,1.681
			c1.036-0.767,0.407-1.192,3.939-1.564l-5.588,0.095c1.204-0.126,2.122-0.324,3.229-0.478l5.366,0.398
			c-6.803,0.548-3.685,1.369-6.573,2.167c-6.229-0.335-5.141,0.211-9.055-0.039c0.393-1.126-12.006-1.924-19.174-2.648l3.326,0.044
			c5.206-0.711-3.581-0.939-3.774-1.248l-3.795,0.563c0.714-0.078,1.7-0.341,0.081-0.5c-5.136,0.209-4.836,1.326-9.965,1.537
			c-0.385-0.62,3.951-1.561,0.759-1.887c-1.1-0.541-4.599-1.979-11.417-1.431c-0.481,0.237-2.248,0.37-4.295,0.472
			c0.285-0.033,0.641-0.058,0.77-0.102l-4.525-0.676c3.855-1.057,7.799,0.498,11.676-0.563l0.326-1.005
			c3.018-0.003,7.114-0.438,8.999-0.959c-4.599-0.17-5.566,0.093-10.709,0.302c-0.722-0.635,2.899-1.107,3.421-1.176l-0.766,0.572
			c6.136,0.833,9.169-0.963,16.805-0.776c1.155,0.041,0.452,0.115,0.192,0.306c6.181-0.974,12.245,0.361,18.252-0.924l-1.959,0.529
			c4.092-0.428,12.091-1.417,20.083-2.374l0.066-0.391c-0.889-0.237,2.11-0.222,3.722-0.064l-0.008,0.007l5.825-0.68l2.696-0.302
			c0.896-0.094,1.607-0.183,2.659-0.265l-0.978-0.172l-0.904-0.148c-0.633-0.089-1.325-0.154-2.066-0.182
			c-1.251,0.459-8.599,0.082-7.591,1.126c-3.393-0.63-8.858,0.274-11.351-0.123c4.54,0.67-3.163,0.985-3.959,1.561
			c-1.525-0.659-6.729,0.05-6.133-0.837c-0.896-0.229,2.229,0.589,4.159,0.058c4.755-0.826-8.706-0.726-2.781-1.511
			c-7.536,0.623-17.463,0.354-25.236,1.168l4.351,0.363c-3.455-0.131-11.632,0.067-12.243-0.361
			c2.566-0.104,5.566-0.093,8.851-0.271c0.159-1-7.892,0.008-8.254-0.611l-9.54,1.653l4.177,0.058
			c-2.633,0.607-11.365-0.126-17.842-0.267c3.714-1.369,9.769-0.035,16.579-0.585c4.947-0.518-3.055-1.32,1.629-1.647
			c-1.215-0.319-4.27-0.282-5.777,0.064l-1.848-0.25c4.177-1.244,13.542-0.966,19.779-2.037c-0.548,0.133-1.026,0.274-1.2,0.418
			c4.799,0.481,9.676,0.463,14.357,0.133c-2.478-0.393-3.455-0.126-4.87,0.019c-0.178-0.307,4.24-0.441,5.914-0.781
			c-4.354-0.363-0.814-0.735-3.57-0.939c2.837-0.296,5.132-0.209,8.587-0.08c1.792,0.47-1.481,0.648-1.115,1.263
			c3.559-0.37,5.185,1.104,10.392,0.393c-6.925-0.259,1.825-1.34,4.21-1.755l-1.159-0.042c2.196-0.722,4.06-0.751,5.577-0.091
			c-2.833,0.296-5.577,0.091-4.77,0.826c1.87-0.032,3.736-0.063,5.858-0.285l-1.93,0.529l9.311-0.152
			c1.474-0.648,3.933-1.563,5.222-2.518c1.118,0.294,2.451,0.318,3.773,0.241l5.04-0.369l-1.604,0.269
			c3.248,0.278,8.384,0.3,13.027,0.184c4.63-0.119,8.811-0.378,9.718-0.663c2.085,0.255-7.106,1.167-11.857,1.948
			c-2.43,0.393-3.882,0.75-2.907,0.978c0.984,0.228,4.311,0.324,11.813,0.191l1.211-0.007c0.066,4.79,0.525,5.973,1.048,6.742
			c0.521,0.772,1.1,1.063,1.407,4.34c0-0.002-0.189-0.312-0.308,0.444c-0.134,5.417,0.563,5.74,0.855,10.315
			c0.277-3.353,0.293-8.308,0.025-9.749c0.386,0.676,0.367,3.647,0.33,6.919l-0.022,4.553c0.019,0.964,0.078,1.844,0.229,2.503
			c-1.181-3.429-0.451,6.667-1.055,4.005c-0.76,6.86,0.174,14.194,1.044,17.796c-1.481,4.655,0.196,8.164-0.489,15.718
			c0.041-1.161-0.178-3.268-0.019-4.892c-0.94-4.307-0.492,7.827-1.352,1.2c0.148,1.418,0.497,0.1,0.353-1.354
			c-0.107-2.542-0.519-4.936-0.948-4.297l-0.83,6.157l-0.226-2.15l-1.151,9.343c0.188,0.253,0.422-0.622,0.54-1.072
			c-0.503,10.837,0.138,23.229-0.019,32.722c2.652,1.783,1.134,23.373,2.763,31.044c-0.759-2.057-2.1-3.181-2.651-1.909
			c-0.111-1.71-1.181-5.212-0.959-9.091c0.426-0.62,0.907-5.412,1.393-2.327c-0.3-10.723-1.159,1.45-2.148-1.715
			c0.26,11.88,1.812,18.85,2.434,26.347l-0.312,0.19l0.593,5.663c0.174-4.627,1.678-4.398,1.151,1.566l-0.073-0.726
			c-0.63,4.827,0.11,6.847,0.015,9.591c0.289,0.355,0.577,0.646,0.866,0.872l-0.025,0.343c1.655,0.231,0.759,1.737,1.155,2.657
			c1.203,0.028,2.333-0.033,3.348-0.153c0.507-0.061,0.988-0.135,1.444-0.221l0.659-0.137c0.151-0.048,0.695-0.098,1.018-0.15
			c2.989-0.417,5.674-0.944,8.637-1.339c2.677,0.706,15.172,0.872,8.554,1.728c7.521-0.622,6.003-4.399,18.909-2.307l-3.348,0.682
			c12.335-0.143,29.933-1.496,35.617-0.78c-4.552,2.444,15.409,2.487,17.602,4.883c-0.611-0.548,4.025-0.729,4.699-1.022
			c1.019,0.281,2.707,0.553,4.503,0.059c-4.811-0.481,3.381-2.489-5.813-1.52c4.654-1.643,10.65-2.926,20.849-2.844l-0.155,1
			l-8.066-0.304c0.815,0.737-3.34,0.681-5.04,1.02c15.006,0.563-1.966,2.34,13.376,2.211c1.481-0.648,0.522-0.381,4.511-0.637
			c-1.874,0.033-2.214,0.722,0.812,0.735l2.899-0.798c5.358,1.666-8.869,1.085-4.296,2.255c-5.925,0.785-16.187,1.206-14.275,2.481
			c9.676,0.463,8.706-2.391,18.819-1.811l1.077,0.542c3.56-0.368,4.133-1.248,6.081-1.779c0.089,0.156,0.359,0.291,0.893,0.398
			c0.267,0.054,0.6,0.1,1.007,0.139l0.686,0.052l1.004,0.041c3.78-0.631,7.198-1.013,10.646-1.403
			c3.47-0.393,6.97-0.792,11.521-1.463l0.074,0.333l-0.022-0.385c-10.854,0.503-14.92,0.255-19.557-0.002l-3.581-0.183
			c-0.959-0.054-1.844-0.096-2.944-0.117c-2.166-0.041-4.877,0.009-8.657,0.243c1.192-0.208,4.47-0.387,7.528-0.687
			c1.581-0.15,2.899-0.332,4.251-0.559c1.733-0.23,3.007-0.507,3.318-0.854l-0.359,1.002c6.644-0.458,13.847-0.911,21.949-0.789
			l-0.085,3.489l-0.322-3.081l-2.707,0.239l2.569-0.102c0.159,5.52-0.218,10.641-0.444,15.167c-0.11,2.281-0.182,4.446-0.129,6.612
			l0.063,1.631l0.052,0.822c0.022,0.296,0.045,0.55,0.066,0.7c0.101,0.737,0.241,1.479,0.438,2.238l0.044-1.64v-1.815
			c-0.019-1.431-0.063-2.688-0.137-3.759l0.141,2.493l0.097,2.5c0.052,1.167,0.077,2.374,0.081,3.592
			c0.008,2.437-0.059,4.919-0.145,7.225l1.652,9.54c-0.497-0.083-0.526,5.96-1.318,3.044c-0.76,6.868,0.729,10.106,0.978,14.074
			c-1.06,7.032-0.475-6.092-1.855-6.782c-0.463,9.689-0.045,19.96,0.855,25.426c0.203-1.976,0.374-2.935,0.618-2.834
			c-0.314,0.292-0.233,4.197-0.244,6.373l0.651,1.496c-0.44,3.625-0.822,3.115-1.314,0.032c-0.126,3.466,1.126,7.597,0.188,11.163
			c-0.785-5.914-0.1-13.456-0.588-16.539c0.641,12.365-1.978,12.443-1.156,28.119c-0.311,0.192-0.914-2.463-0.922,0.56
			c0.237,6.995,1.337,1.825,2.06,4.01c-0.404-5.384-0.008-7.892,0.814-11.017l0.525,1.437c-0.273,0.219-0.288,3.604-0.552,4.6
			l1.074,0.87c-1.188-0.403-2.096,5.007-1.651,9.262c0.862-4.299,0.818-3.137,2.174-4.307c1.284,5.98-1.263,6.747,0.096,13.45
			c-0.381-0.5-0.666-6.354-0.959-1.296c-0.052,4.185,0.878,3.629,1.17,6.436c-0.988-3.162-1.726-2.352-2.899-5.776
			c-0.126-7.44,0.012-3-0.422-10.27l-0.837,6.151c-0.163-6.3-1.134-4.581-1.515-5.1c-1.008,10.762,1.507,8.11,1.248,15.031
			c0.678,3.341,0.141-6.484,0.852-1.263c-0.145,6.474,0.648,1.478,1.078,8.743l-0.456-1.218c-0.589,2.222,0.137,4.418,0.237,6.987
			c0.151,1.415,1.011,0.615,1.844,0.915c0.415,0.148,0.826,0.574,1.134,1.685c0.155,0.56,0.285,1.289,0.377,2.24
			c0.045,0.479,0.086,1.012,0.111,1.604l0.03,0.941l0.018,1.444c-0.141-0.481-0.251-0.871-0.344-1.008
			c-0.097-0.126-0.167-0.178-0.227-0.178L474,305.438l-0.078,13.687c-0.063,5.447-0.159,11.018-0.3,16.505l-13.228-0.393
			c-2.004-0.814,0.61-1.147,3.321-1.373c2.748-0.223,5.744-0.334,5.003-0.7l2.566,0.13l0.204-3.686
			c0.252,0.319,0.348,2.223,0.43,4.314c-3.348,0.141-7.518,0.229-3.033,1.008l3.91-0.13c-0.107-4.848-0.044-8.528-0.11-12.372
			c-0.03-1.9-0.097-3.893-0.233-5.87c-0.134-1.896-0.341-3.929-0.655-6.229c-0.815,1.622-0.745,5.036-0.626,8.932
			c0.122,3.87,0.285,8.518-0.345,11.344c0.107-2.719-0.074-5.244-0.308-7.577l-0.322,9.173l-10.113-0.359l-1.403,0.396
			c4.666,0.182,8.062,0.322,8.528,0.381c-3.188-0.073-5.929,0.119-8.073,0.475c-2.125,0.355-3.658,0.881-3.896,1.478l1.259,0.044
			l-2.466,0.371L449.484,334.756z M191.501,496.022c0.393-0.114,0.704-0.248,0.933-0.414
			C192.198,495.782,192.46,495.894,191.501,496.022z M468.749,227.955l-0.645,25.63c2.358-14.971,4.144-25.493,4.096-0.512
			l0.17,1.638c0.289-3.267,0.326-8.899,0.156-14.195c-0.837-4.287-3.907-18.118-4.182-17.968c-0.659,1.519,0.063,3.733-0.141,6.492
			L468.749,227.955z M472.696,221.818c0.263-4.894-0.259-3.779-0.729-4.538l0.178,5.14
			C472.263,221.771,472.43,221.45,472.696,221.818z M471.496,217.573c-0.011,0.55-0.033,1.019-0.096,1.265L471.496,217.573z
			 M470.9,312.722l-0.029-0.5l-0.107,3.521C470.837,315.272,470.896,314.38,470.9,312.722z M472.052,302.793l-0.859-1.163
			l-0.1,3.304C471.481,304.563,471.822,304.174,472.052,302.793z M474.885,270.879c-1.033-2.011-1.081-8.751-2.273-9.166
			c-0.304-0.43-0.422,0.989-0.522,2.578l-0.096,5.681c0.17,0.07,0.333,0.47,0.488,1.137c0.148-1.985,0.444-3.311,1.178-2.507
			c-1.596,5.099,1.137,4.569,0.729,10.084C475.229,280.44,475.222,272.549,474.885,270.879z M308.711,9.306
			c-0.07-0.104-0.385-0.372-0.938-0.704l3.604-0.442l0.148,0.948c-0.13,4.041-0.622,7.805-0.9,11.112
			c-0.277,3.323-0.337,6.397,0.4,9.469c-0.37,2.92-1.155,4.483-1.8,5.975c0.048-1.429,0.111-2.766,0.211-3.879
			c-0.259-2.105-0.426-3.836-0.515-5.277c-0.093-1.418-0.107-2.481-0.074-3.399c0.07-1.816,0.349-2.935,0.659-3.986
			c0.622-2.042,1.378-3.988,0.863-9.954L308.711,9.306z M308.129,88.207c-0.073-0.714-0.27-0.97-0.27-0.97
			c2.192,15.483,2.825,28.23,2.74,36.577c0.866-1.618,1.54-9.106,1.899-12.661l0.989,3.151l-0.778,1.966l0.9,5.47
			c0.663-1.529,0.521-5.945,1.037-8.899c-0.189-0.257-1.345-9.711-1.952-12.354l-0.685,7.554c0.277-2.041,0.048-12.061-0.204-16.037
			c-0.496-0.078-1.259,6.771-0.186,7.634c-0.732,0.814-0.744-7.081-1.532-2.089c-0.782-5.916-0.126-15.329,0.236-19.695l1.237-0.741
			c0.481-4.792-1.489-3.237-0.774-8.93c0.241,6.999,1.355-1.183,1.448,4.384c0.467-1.777,1.308-0.037,1.215-5.614
			c-1.637-4.644,1.025-5.881-0.419-10.271c0.512-2.933,0.985,3.157,1.204-2.614c-0.859-6.62-1.478-6.238-2.667-6.647
			c-0.333,6.19,1.548,6.955,1.26,12.017l-2.041-10.069c-0.289,1.855-0.322,3.229-0.236,4.381c-0.119-2.023-0.423-3.742-0.837-5.212
			c-0.233-0.837-0.434-1.611-0.607-2.326c-0.012,5.707-0.037,10.774-0.545,11.67l-0.577-0.787c-0.533,2.02-0.115,5.314,0.307,6.833
			c0.063,5.108,0.867,10.213,0.119,11.33l-0.53-1.94C308.048,79.604,308.122,80.304,308.129,88.207z M432.153,174.273
			c-3.803-2.118-8.002-3.988-25.767-3.618l1.396-0.146c-8.951-1.33-17.454,1.757-28.349,0.281c5.288-0.798,5.003-0.724,10.84-2.551
			l-5.674,0.598c1.574-1.152-4.085-0.556-8.247-0.611l3.674-1.37c2.5,0.395,8.973,0.537,8.784,0.224
			c-1.419,0.152,8.547,1.731,13.961,1.331c-0.56-0.929-11.987-0.552-6.885-2.07c-4.499,0.637-5.059-0.289-9.758,0.035
			c4.507-0.635,1.115-1.265,4.474-1.942l-7.714,0.316c-0.2-0.309,11.232-0.687,4.914-1.829c-3.092,0.487-11.339-0.124-11.487,0.876
			l-0.188-0.308c-5.781-0.217-2.544,1.415-9.64,0.844c-0.085,0.504,1.271,0.852,3.811,0.748c2.147-0.222,2.478-0.911,6.906-1.052
			c1.981,0.783-5.34-0.096-2.266,1.226c1.525,0.659,11.684-0.568,8.446,0.918l-5.77-0.215c-0.147,1.001-4.325,0.944-4.207,1.751
			c-3.528,0.369-6.858-0.757-10.461,0.111c-1.496,0.648,1.118,1.852-4.844,1.327c-4.659-1.481-18.383-1.194-23.523-0.979
			l-4.499,0.637c0.382,0.615,8.595-0.083,5.707,0.715l-7.015,0.241l0.541-0.385c-1.163-0.042-2.337,0.039-3.488,0.159l-3.019,0.389
			c0.526-0.179,1.182-0.296,1.859-0.387l1.022-0.121l1.118-0.109c1.411-0.148,2.422-0.335,1.922-0.857
			c-1.607-0.104-2.685-0.252-3.422-0.348c-0.722-0.098-1.389-0.145-2.596-0.044c0.537-0.074,0.992-0.176,0.948-0.322
			c-4.841-0.452-5.492,1.167-7.192,1.507c-3.377,0.678-2.263,0.992-0.133,1.272c2.077,0.28,5.059,0.522,4.495,1.059l-11.65,0.332
			l-0.244-8.34c0.341,1.582,0.678,3.009,1.104,2.104c0.485-4.879,0.812-0.589,0.76-6.81c-1.426,0.883-0.89-8.221-1.711-12.958
			c0.585-2.226,0.699-2.683,0.718,2.181c0.926-0.558,0.57-7.088,0.656-9.41c-0.233-1.346-0.367-3.639-0.57-5.094
			c-0.463,1.948-1.045,1.117-1.438-3.099l-0.196-0.247c-0.252,6.914-1.263,17.657-0.314,21.992L307.485,151
			c-0.097,0.954-0.145,1.928-0.159,2.909v1.478l0.04,1.67c0.082,2.233,0.245,4.394,0.39,6.372c0.292,3.983,0.515,7.156-0.142,10.043
			c0.159,0.065,0.297,0.137,0.411,0.217c-1.055,0.692,1.689,0.159,0.652,1.159l7.499-0.782l-1.686,0.454l11.762-0.226l-0.267,0.187
			l11.477-2.248c0.011-0.437-0.301-0.57,1.288-0.892c1.593-0.215,2.8-0.249,3.878-0.191c0.011-0.002,0.011-0.002,0.011-0.005v0.005
			c2.459,0.126,4.096,0.753,7.125,1.009l-9.321,0.107c-0.759,0.74,0.033,1.509,4.6,2.027c-1.866,0.028-2.647,0.605-0.337,0.69
			c0.256-0.192,6.106-0.474,3.877-1.063c8.851-0.271,23.183,1.674,36.621,0.267c-9.654,0.846,7.74,0.992-2.98,1.298
			c7.483,1.183,6.439-1.168,14.064-0.983c0.651,0.426-4.151-0.055-5.903,0.785c12.68,0.474,21.397-1.915,33.662-1.555l0.526,0.924
			L432.153,174.273z M456.284,173.122l6.654-0.319l-0.637-0.028l7.247-0.744c-3.777-0.361-6.48-1.376,0.496-1.85
			c-0.855,0.381,0.57,0.852-1.792,1.074c0.781,0.117,1.759,0.233,2.796,0.33c-0.367,4.609-0.471,9.66,0.633,7.299
			c-1.292-7.005,1.655-3.37,0.852-8.784l-0.437,0.054l0.478-0.093c0.789,2.781,0.422,6.69,0.814,9.893
			c-0.381-1.7-0.811-1.2-1.192,0.252c-0.381,1.465-0.715,3.864-0.896,6.346c0.227,2.159,0.012,7.9,0.378,11.444
			c0.855-1.261,1.345,1.82,1.56-3.946c0.222,2.117,0.399,5.39-0.037,9.057c-0.148-1.454-0.252-3.996-0.56-3.82
			c-0.789,2.367-0.752,5.137-1.089,6.666l0.138,3.647c0.073-0.357,0.17-0.667,0.292-0.887l0.756,4.051
			c-0.404-5.397,0.393-2.494,0.893-2.424c-1-0.146-0.13,3.474-0.097,5.322l1.056-4.015c0.529,1.941-0.763,6.849,0.285,5.836
			c0.418-8.514,0.237-11.787-0.078-19.488l-0.818,3.125c-0.292-4.344,0.06-5.682,0.481-7.154c0.207-0.737,0.438-1.505,0.607-2.7
			c0.085-0.598,0.159-1.302,0.207-2.159l0.056-1.411l0.015-2.111c-0.333-2.257-0.381-6.101-0.463-9.667
			c-0.081-3.559-0.203-6.803-0.685-7.48c-0.396,0.113-0.682,0.247-0.859,0.404c0.944-0.229-0.507-0.563-2.903-0.753
			c-2.377-0.193-5.681-0.243-7.832,0.098c-1.252,0.342-2.97,0.611-4.755,0.831l-4.951,0.541c-2.829,0.294-4.773,0.498-3.085,0.811
			c1.511,0.008,3.277-0.176,4.974-0.25c1.804-0.076,3.64-0.041,4.803,0.405l-6.125,0.285l3.84,0.748
			C455.313,171.29,455.536,172.021,456.284,173.122z M461.094,287.876l-0.018,0.227l0.003-0.252L461.094,287.876z"/>
		<linearGradient id="SVGID_52_" gradientUnits="userSpaceOnUse" x1="216.3271" y1="12.9277" x2="221.9341" y2="12.9277">
			<stop  offset="0" style="stop-color:#009EE2"/>
			<stop  offset="1" style="stop-color:#1D70B7"/>
		</linearGradient>
		<path fill="url(#SVGID_52_)" d="M221.46,12.418c-1.685,0.341-5.844,0.285-5.029,1.019C216.332,12.63,223.864,13.315,221.46,12.418
			z"/>
		<linearGradient id="SVGID_53_" gradientUnits="userSpaceOnUse" x1="214.5278" y1="11.8926" x2="219.668" y2="11.8926">
			<stop  offset="0" style="stop-color:#009EE2"/>
			<stop  offset="1" style="stop-color:#1D70B7"/>
		</linearGradient>
		<path fill="url(#SVGID_53_)" d="M216.483,11.628c-0.292,0.193-0.089,0.502-1.956,0.53l5.14-0.206L216.483,11.628z"/>
		<linearGradient id="SVGID_54_" gradientUnits="userSpaceOnUse" x1="297.7285" y1="20.8052" x2="299.001" y2="20.8052">
			<stop  offset="0" style="stop-color:#009EE2"/>
			<stop  offset="1" style="stop-color:#1D70B7"/>
		</linearGradient>
		<path fill="url(#SVGID_54_)" d="M297.794,20.738c-0.263,0.443,0.314,0.256,0.944,0.06c0.077,0.094,0.159,0.188,0.2,0.287
			l0.063-0.546C298.716,20.508,298.327,20.521,297.794,20.738z"/>
		<linearGradient id="SVGID_55_" gradientUnits="userSpaceOnUse" x1="254.5146" y1="483.5557" x2="286.8691" y2="483.5557">
			<stop  offset="0" style="stop-color:#009EE2"/>
			<stop  offset="1" style="stop-color:#1D70B7"/>
		</linearGradient>
		<path fill="url(#SVGID_55_)" d="M286.869,483.258l-32.354,0.596C263.824,483.698,272.419,483.621,286.869,483.258z"/>
		<linearGradient id="SVGID_56_" gradientUnits="userSpaceOnUse" x1="300.6182" y1="105.5166" x2="302.8223" y2="105.5166">
			<stop  offset="0" style="stop-color:#009EE2"/>
			<stop  offset="1" style="stop-color:#1D70B7"/>
		</linearGradient>
		<path fill="url(#SVGID_56_)" d="M302.822,114.342c-0.577-8.688-1.64-12.546-1.91-21.399c-1.241,11.639,1.937,15.374,0.666,25.146
			L302.822,114.342z"/>
		<linearGradient id="SVGID_57_" gradientUnits="userSpaceOnUse" x1="297.9121" y1="112.7666" x2="300.1191" y2="112.7666">
			<stop  offset="0" style="stop-color:#009EE2"/>
			<stop  offset="1" style="stop-color:#1D70B7"/>
		</linearGradient>
		<path fill="url(#SVGID_57_)" d="M297.912,111.278c1.159-1.44,1.359,6.703,2.207,5.442c-0.281-5.855-1.104-2.728-1.003-8.04
			L297.912,111.278z"/>
		<linearGradient id="SVGID_58_" gradientUnits="userSpaceOnUse" x1="317.0879" y1="73.2266" x2="317.6914" y2="73.2266">
			<stop  offset="0" style="stop-color:#009EE2"/>
			<stop  offset="1" style="stop-color:#1D70B7"/>
		</linearGradient>
		<polygon fill="url(#SVGID_58_)" points="317.088,71.909 317.691,74.544 317.469,72.424 		"/>
		<linearGradient id="SVGID_59_" gradientUnits="userSpaceOnUse" x1="298.3125" y1="152.0898" x2="298.9414" y2="152.0898">
			<stop  offset="0" style="stop-color:#009EE2"/>
			<stop  offset="1" style="stop-color:#1D70B7"/>
		</linearGradient>
		<polygon fill="url(#SVGID_59_)" points="298.941,150.873 298.679,149.912 298.313,154.269 		"/>
		<linearGradient id="SVGID_60_" gradientUnits="userSpaceOnUse" x1="298.4121" y1="149.4316" x2="298.6787" y2="149.4316">
			<stop  offset="0" style="stop-color:#009EE2"/>
			<stop  offset="1" style="stop-color:#1D70B7"/>
		</linearGradient>
		<path fill="url(#SVGID_60_)" d="M298.412,148.952l0.267,0.959L298.412,148.952z"/>
		<linearGradient id="SVGID_61_" gradientUnits="userSpaceOnUse" x1="319.291" y1="72.3682" x2="319.8203" y2="72.3682">
			<stop  offset="0" style="stop-color:#009EE2"/>
			<stop  offset="1" style="stop-color:#1D70B7"/>
		</linearGradient>
		<polygon fill="url(#SVGID_61_)" points="319.576,75.293 319.82,71.379 319.291,69.442 		"/>
		<linearGradient id="SVGID_62_" gradientUnits="userSpaceOnUse" x1="312.8994" y1="108.3389" x2="313.3506" y2="108.3389">
			<stop  offset="0" style="stop-color:#009EE2"/>
			<stop  offset="1" style="stop-color:#1D70B7"/>
		</linearGradient>
		<path fill="url(#SVGID_62_)" d="M313.351,109.852l-0.37-3.503C313.051,107.045,312.573,111.835,313.351,109.852z"/>
		<linearGradient id="SVGID_63_" gradientUnits="userSpaceOnUse" x1="307.8291" y1="182.3594" x2="315.8281" y2="182.3594">
			<stop  offset="0" style="stop-color:#009EE2"/>
			<stop  offset="1" style="stop-color:#1D70B7"/>
		</linearGradient>
		<polygon fill="url(#SVGID_63_)" points="308.467,182.639 315.828,182.194 315.15,182.08 307.829,182.524 		"/>
		<linearGradient id="SVGID_64_" gradientUnits="userSpaceOnUse" x1="316.5508" y1="138.5654" x2="317.5801" y2="138.5654">
			<stop  offset="0" style="stop-color:#009EE2"/>
			<stop  offset="1" style="stop-color:#1D70B7"/>
		</linearGradient>
		<path fill="url(#SVGID_64_)" d="M316.551,137.267c0.893-2.418,0.24,6.988,1.029,2.011
			C317.443,134.849,316.977,136.645,316.551,137.267z"/>
		<linearGradient id="SVGID_65_" gradientUnits="userSpaceOnUse" x1="326.6826" y1="170.5186" x2="328.4453" y2="170.5186">
			<stop  offset="0" style="stop-color:#009EE2"/>
			<stop  offset="1" style="stop-color:#1D70B7"/>
		</linearGradient>
		<path fill="url(#SVGID_65_)" d="M326.683,170.584c0.574,0,1.178-0.031,1.763-0.131
			C327.749,170.492,327.168,170.539,326.683,170.584z"/>
		<linearGradient id="SVGID_66_" gradientUnits="userSpaceOnUse" x1="321.9531" y1="170.582" x2="326.6826" y2="170.582">
			<stop  offset="0" style="stop-color:#009EE2"/>
			<stop  offset="1" style="stop-color:#1D70B7"/>
		</linearGradient>
		<path fill="url(#SVGID_66_)" d="M326.683,170.584c-1.893,0-3.467-0.34-4.729-0.083
			C324.064,170.905,324.86,170.753,326.683,170.584z"/>
		<linearGradient id="SVGID_67_" gradientUnits="userSpaceOnUse" x1="342.6396" y1="170.5742" x2="348.0664" y2="170.5742">
			<stop  offset="0" style="stop-color:#009EE2"/>
			<stop  offset="1" style="stop-color:#1D70B7"/>
		</linearGradient>
		<path fill="url(#SVGID_67_)" d="M347.942,170.377l-1.681-0.065c1.718-0.439,0.903-0.374-0.634-0.021
			c-1.781,0.03-1.681,0.313-1.893,0.505l-1.096,0.347l1.463-0.322C346.865,170.829,348.55,170.785,347.942,170.377z"/>
		<linearGradient id="SVGID_68_" gradientUnits="userSpaceOnUse" x1="410.9004" y1="184.8477" x2="426.9287" y2="184.8477">
			<stop  offset="0" style="stop-color:#009EE2"/>
			<stop  offset="1" style="stop-color:#1D70B7"/>
		</linearGradient>
		<path fill="url(#SVGID_68_)" d="M426.929,185.405c-6.214-0.333-7.821-0.492-7.484-1.185c-5.899-0.22-4.984,0.97-8.544,1.248
			C417.578,185.334,418.94,185.653,426.929,185.405z"/>
		<linearGradient id="SVGID_69_" gradientUnits="userSpaceOnUse" x1="408.5713" y1="185.499" x2="410.9004" y2="185.499">
			<stop  offset="0" style="stop-color:#009EE2"/>
			<stop  offset="1" style="stop-color:#1D70B7"/>
		</linearGradient>
		<path fill="url(#SVGID_69_)" d="M410.9,185.468l-2.329,0.056C409.542,185.544,410.264,185.516,410.9,185.468z"/>
		<linearGradient id="SVGID_70_" gradientUnits="userSpaceOnUse" x1="324.4717" y1="162.2783" x2="326.9531" y2="162.2783">
			<stop  offset="0" style="stop-color:#009EE2"/>
			<stop  offset="1" style="stop-color:#1D70B7"/>
		</linearGradient>
		<path fill="url(#SVGID_70_)" d="M324.472,162.808c0.722-0.352,0.866-0.706,2.481-1.059l-1.359,0.148
			C325.268,162.201,324.894,162.504,324.472,162.808z"/>
		<linearGradient id="SVGID_71_" gradientUnits="userSpaceOnUse" x1="432.2314" y1="185.7051" x2="436.3135" y2="185.7051">
			<stop  offset="0" style="stop-color:#009EE2"/>
			<stop  offset="1" style="stop-color:#1D70B7"/>
		</linearGradient>
		<path fill="url(#SVGID_71_)" d="M436.153,185.753c-1.155-0.044-3.004-0.013-3.907-0.25
			C431.913,186.199,437.301,185.795,436.153,185.753z"/>
		<linearGradient id="SVGID_72_" gradientUnits="userSpaceOnUse" x1="405.957" y1="172.2144" x2="412.1826" y2="172.2144">
			<stop  offset="0" style="stop-color:#009EE2"/>
			<stop  offset="1" style="stop-color:#1D70B7"/>
		</linearGradient>
		<path fill="url(#SVGID_72_)" d="M412.183,172.181c-0.63-0.424-4.607-0.17-6.226-0.333
			C408.279,171.937,410.171,173.212,412.183,172.181z"/>
		<linearGradient id="SVGID_73_" gradientUnits="userSpaceOnUse" x1="449.9893" y1="182.4111" x2="453.9805" y2="182.4111">
			<stop  offset="0" style="stop-color:#009EE2"/>
			<stop  offset="1" style="stop-color:#1D70B7"/>
		</linearGradient>
		<path fill="url(#SVGID_73_)" d="M453.98,182.898c-1.151-0.044-2.922-0.511-2.155-1.083
			C450.151,182.153,447.885,183.375,453.98,182.898z"/>
		<linearGradient id="SVGID_74_" gradientUnits="userSpaceOnUse" x1="418.3994" y1="172.293" x2="423.54" y2="172.293">
			<stop  offset="0" style="stop-color:#009EE2"/>
			<stop  offset="1" style="stop-color:#1D70B7"/>
		</linearGradient>
		<polygon fill="url(#SVGID_74_)" points="423.54,172.305 422.651,172.07 418.399,172.516 		"/>
		<linearGradient id="SVGID_75_" gradientUnits="userSpaceOnUse" x1="407.2334" y1="163.5356" x2="414.7451" y2="163.5356">
			<stop  offset="0" style="stop-color:#009EE2"/>
			<stop  offset="1" style="stop-color:#1D70B7"/>
		</linearGradient>
		<path fill="url(#SVGID_75_)" d="M408.371,162.082c-4.784,0.826,7.588,1.992-0.651,2.692c10.628,0.865-0.814-1.17,7.025-1.037
			C410.152,163.459,407.905,162.414,408.371,162.082z"/>
		<linearGradient id="SVGID_76_" gradientUnits="userSpaceOnUse" x1="414.7451" y1="163.7734" x2="416.9189" y2="163.7734">
			<stop  offset="0" style="stop-color:#009EE2"/>
			<stop  offset="1" style="stop-color:#1D70B7"/>
		</linearGradient>
		<path fill="url(#SVGID_76_)" d="M414.745,163.737c0.666,0.044,1.389,0.069,2.174,0.072L414.745,163.737z"/>
		<linearGradient id="SVGID_77_" gradientUnits="userSpaceOnUse" x1="473.3887" y1="180.8276" x2="473.667" y2="180.8276">
			<stop  offset="0" style="stop-color:#009EE2"/>
			<stop  offset="1" style="stop-color:#1D70B7"/>
		</linearGradient>
		<path fill="url(#SVGID_77_)" d="M473.667,181.702c-0.086-0.778-0.182-1.289-0.278-1.748
			C473.455,180.55,473.541,181.117,473.667,181.702z"/>
		<linearGradient id="SVGID_78_" gradientUnits="userSpaceOnUse" x1="432.6094" y1="163.248" x2="448.7295" y2="163.248">
			<stop  offset="0" style="stop-color:#009EE2"/>
			<stop  offset="1" style="stop-color:#1D70B7"/>
		</linearGradient>
		<path fill="url(#SVGID_78_)" d="M439.778,163.056l-7.169,1.24c4.788-0.826,16.838-0.775,16.087-2.011
			c-3.903-0.25-8.596,0.078-10.525,0.611L439.778,163.056z"/>
		<linearGradient id="SVGID_79_" gradientUnits="userSpaceOnUse" x1="456.5508" y1="221.3657" x2="457.3115" y2="221.3657">
			<stop  offset="0" style="stop-color:#009EE2"/>
			<stop  offset="1" style="stop-color:#1D70B7"/>
		</linearGradient>
		<path fill="url(#SVGID_79_)" d="M457.184,222.53l-0.489-3.098l-0.144,3.868C456.735,222.192,457.643,224.196,457.184,222.53z"/>
		<linearGradient id="SVGID_80_" gradientUnits="userSpaceOnUse" x1="456.5176" y1="223.6738" x2="456.5508" y2="223.6738">
			<stop  offset="0" style="stop-color:#009EE2"/>
			<stop  offset="1" style="stop-color:#1D70B7"/>
		</linearGradient>
		<path fill="url(#SVGID_80_)" d="M456.524,224.048l0.026-0.748C456.521,223.465,456.51,223.702,456.524,224.048z"/>
		<linearGradient id="SVGID_81_" gradientUnits="userSpaceOnUse" x1="463.0381" y1="169.7437" x2="470.167" y2="169.7437">
			<stop  offset="0" style="stop-color:#009EE2"/>
			<stop  offset="1" style="stop-color:#1D70B7"/>
		</linearGradient>
		<path fill="url(#SVGID_81_)" d="M470.167,169.564c-2.529-0.087-4.677-0.052-7.129,0.167
			C463.942,169.964,470.034,170.181,470.167,169.564z"/>
		<linearGradient id="SVGID_82_" gradientUnits="userSpaceOnUse" x1="458.7686" y1="242.0186" x2="458.9795" y2="242.0186">
			<stop  offset="0" style="stop-color:#009EE2"/>
			<stop  offset="1" style="stop-color:#1D70B7"/>
		</linearGradient>
		<polygon fill="url(#SVGID_82_)" points="458.979,244.341 458.769,239.229 458.861,244.808 		"/>
		<linearGradient id="SVGID_83_" gradientUnits="userSpaceOnUse" x1="456.6465" y1="270.7578" x2="457.3242" y2="270.7578">
			<stop  offset="0" style="stop-color:#009EE2"/>
			<stop  offset="1" style="stop-color:#1D70B7"/>
		</linearGradient>
		<polygon fill="url(#SVGID_83_)" points="456.88,268.197 456.646,269.083 457.091,273.319 457.324,272.423 		"/>
		<linearGradient id="SVGID_84_" gradientUnits="userSpaceOnUse" x1="295.5127" y1="347.3066" x2="391.126" y2="347.3066">
			<stop  offset="0" style="stop-color:#009EE2"/>
			<stop  offset="1" style="stop-color:#1D70B7"/>
		</linearGradient>
		<path fill="url(#SVGID_84_)" d="M358.908,320.702c1.499-0.648,8.851-0.274,9.235,0.344c-0.985,0.267-4.97,0.522-2.47,0.915
			l5.817-1.593c7.736,0.993-5.881,2.093-9.702,2.655c7.884,0.207,10.217-0.841,18.602-0.833c-2.475-0.145-4.037-0.541-5.341-0.882
			c-0.285-1.122,7.525-0.625,13.109-0.714c-3.555-0.485-1.499-0.896,1.093-1.337c0.467-0.034,0.773-0.101,0.996-0.175l0.878-0.155
			h-0.671c0.049-0.126-0.1-0.277-0.581-0.485c-4.685,0.326-8.27-0.61-11.287-0.626c2.98,1.822-10.272,0.423-14.065,0.985
			l-4.377,0.178l-1.637,0.004c-0.329-0.2,0.134-0.452,2.633-0.811c-2.085,0.358-9.035,0.232-8.395,0.818l-15.865,0.025
			c-0.492-0.074-0.988-0.167-1.355-0.3c-0.548,0.118-0.641,0.211-0.566,0.304l-39.446,0.044l0.07,57.733
			c0.145-3.407,0.563-6.358,0.763-9.873c1.211,5.277,0.219-5.766,1.363-4.218c0.414,2.37,0.285,5.844,0.007,7.91
			c0.578,0.771,1.089-2.178,1.777-1.837c0.727-8.717-2.036-10.051-1.618-18.571c0.349,0.166,0.674,0.911,0.9,0.914
			c0.11,0,0.199-0.181,0.255-0.714c0.026-0.267,0.045-0.619,0.056-1.082l-0.004-2.759l0.148,2.341
			c-0.389-7.392,0.004-10.239,0.256-12.235c0.252-2.07,0.359-3.308-0.589-8.673l1,1.029c-0.182-1.7-0.318-3.755-0.426-6.007
			c6.436-0.337,15.316-0.366,20.863-0.47l-0.399,0.192l6.136-0.341l2.663-0.189c1.459-0.081,2.381-0.092,3.352-0.081
			c1.94,0.022,4.073,0.13,11.072-0.111l-6.44,1.167c4.825,0.481,5.914-0.785,9.381-0.655c-0.248,0.192,0.556,0.922-2.719,1.106
			l16.983-1.781C364.414,321.109,359.537,321.128,358.908,320.702z"/>
		<linearGradient id="SVGID_85_" gradientUnits="userSpaceOnUse" x1="380.3906" y1="322.2188" x2="383.5156" y2="322.2188">
			<stop  offset="0" style="stop-color:#009EE2"/>
			<stop  offset="1" style="stop-color:#1D70B7"/>
		</linearGradient>
		<path fill="url(#SVGID_85_)" d="M380.391,322.19c0.899,0.052,1.922,0.074,3.125,0.037L380.391,322.19z"/>
		<linearGradient id="SVGID_86_" gradientUnits="userSpaceOnUse" x1="295.5322" y1="379.2266" x2="295.5938" y2="379.2266">
			<stop  offset="0" style="stop-color:#009EE2"/>
			<stop  offset="1" style="stop-color:#1D70B7"/>
		</linearGradient>
		<path fill="url(#SVGID_86_)" d="M295.594,381.656l-0.011-4.858C295.523,378.305,295.505,379.871,295.594,381.656z"/>
		<linearGradient id="SVGID_87_" gradientUnits="userSpaceOnUse" x1="396.0889" y1="319.4922" x2="407.4492" y2="319.4922">
			<stop  offset="0" style="stop-color:#009EE2"/>
			<stop  offset="1" style="stop-color:#1D70B7"/>
		</linearGradient>
		<path fill="url(#SVGID_87_)" d="M404.731,320.006c-2.944-0.516,2.203-0.723,2.718-1.107l-10.547,0.019
			c0.049,0.385-0.996,0.818-0.785,1.17L404.731,320.006z"/>
		<linearGradient id="SVGID_88_" gradientUnits="userSpaceOnUse" x1="391.126" y1="318.5586" x2="396.9023" y2="318.5586">
			<stop  offset="0" style="stop-color:#009EE2"/>
			<stop  offset="1" style="stop-color:#1D70B7"/>
		</linearGradient>
		<path fill="url(#SVGID_88_)" d="M393.852,318.19c-0.359,0.267-1.475,0.508-2.726,0.737l5.776-0.011
			C396.865,318.628,396.222,318.365,393.852,318.19z"/>
		<linearGradient id="SVGID_89_" gradientUnits="userSpaceOnUse" x1="390.2744" y1="338.9102" x2="394.9658" y2="338.9102">
			<stop  offset="0" style="stop-color:#009EE2"/>
			<stop  offset="1" style="stop-color:#1D70B7"/>
		</linearGradient>
		<polygon fill="url(#SVGID_89_)" points="394.966,338.744 393.1,338.781 390.274,339.077 		"/>
		<linearGradient id="SVGID_90_" gradientUnits="userSpaceOnUse" x1="365.7666" y1="337.1523" x2="373.6426" y2="337.1523">
			<stop  offset="0" style="stop-color:#009EE2"/>
			<stop  offset="1" style="stop-color:#1D70B7"/>
		</linearGradient>
		<path fill="url(#SVGID_90_)" d="M365.767,337.052c2.229,0.585,6.462,0.141,7.876-0.008
			C368.766,337.063,370.88,336.84,365.767,337.052z"/>
		<linearGradient id="SVGID_91_" gradientUnits="userSpaceOnUse" x1="367.0918" y1="343.5313" x2="371.791" y2="343.5313">
			<stop  offset="0" style="stop-color:#009EE2"/>
			<stop  offset="1" style="stop-color:#1D70B7"/>
		</linearGradient>
		<polygon fill="url(#SVGID_91_)" points="371.791,343.31 367.092,343.64 367.532,343.754 		"/>
		<linearGradient id="SVGID_92_" gradientUnits="userSpaceOnUse" x1="299.5273" y1="418.6953" x2="299.5938" y2="418.6953">
			<stop  offset="0" style="stop-color:#009EE2"/>
			<stop  offset="1" style="stop-color:#1D70B7"/>
		</linearGradient>
		<path fill="url(#SVGID_92_)" d="M299.527,417.548l0.066,2.296C299.598,418.792,299.567,418.104,299.527,417.548z"/>
		<linearGradient id="SVGID_93_" gradientUnits="userSpaceOnUse" x1="296.0381" y1="409.5449" x2="299.5273" y2="409.5449">
			<stop  offset="0" style="stop-color:#009EE2"/>
			<stop  offset="1" style="stop-color:#1D70B7"/>
		</linearGradient>
		<path fill="url(#SVGID_93_)" d="M298.575,377.22c-1.122,11.21-0.934-7.343-2.37-3.821l0.474,6.099l-0.385-0.518l0.126,7.439
			c0.663-1.525,0.703-2.674,1.396-2.341c-0.271,9.933-0.822,3.13-1.696,10.417l0.126,11.103l-0.208-0.899
			c0.015,0.937,0.101,1.348,0.215,1.67l0.43,37.41c0.552,6.806,1.248-3.763,2.267,1.255c-0.004-7.888,0.733-19.612-0.648-20.282
			c0.193,0.267,0.574,0.788,0.737-0.812l-1.137-4.563l-0.363,4.352c-1.133-4.588-0.881-19.404-0.178-22.082
			c0.386,8.425,1.752,4.195,1.011,15.935c0.349-0.529,0.967-2.677,1.156-0.033C299.127,403.794,299.757,391.467,298.575,377.22z"/>
		<linearGradient id="SVGID_94_" gradientUnits="userSpaceOnUse" x1="288.8818" y1="484.2793" x2="289.1211" y2="484.2793">
			<stop  offset="0" style="stop-color:#009EE2"/>
			<stop  offset="1" style="stop-color:#1D70B7"/>
		</linearGradient>
		<path fill="url(#SVGID_94_)" d="M289.01,484.343l0.111-0.126C288.869,484.283,288.791,484.332,289.01,484.343z"/>
		<linearGradient id="SVGID_95_" gradientUnits="userSpaceOnUse" x1="289.1211" y1="483.8359" x2="295.4199" y2="483.8359">
			<stop  offset="0" style="stop-color:#009EE2"/>
			<stop  offset="1" style="stop-color:#1D70B7"/>
		</linearGradient>
		<path fill="url(#SVGID_95_)" d="M293.517,484.514c0.822-0.452,1.455-0.904,1.903-1.355l-1.492,0.055l-1.437,0.026l-2.615,0.026
			l-0.755,0.951c0.459-0.122,1.607-0.304,2.814-0.407l0.911-0.06l0.688-0.021c0.182,0.003,0.341,0.044,0.471,0.137
			C293.861,484.08,293.698,484.295,293.517,484.514z"/>
		<linearGradient id="SVGID_96_" gradientUnits="userSpaceOnUse" x1="295.7832" y1="483.5742" x2="298.6934" y2="483.5742">
			<stop  offset="0" style="stop-color:#009EE2"/>
			<stop  offset="1" style="stop-color:#1D70B7"/>
		</linearGradient>
		<path fill="url(#SVGID_96_)" d="M296.901,482.34c-0.874,0.403-0.43,1.521,1.07,2.032c-1.526,0.515-1.574-1.203-2.188-0.021
			c0.362,0.807,2.585,0.333,2.91,0.185C298.123,483.802,297.523,483.069,296.901,482.34z"/>
		<linearGradient id="SVGID_97_" gradientUnits="userSpaceOnUse" x1="297.8271" y1="455.8945" x2="298.4121" y2="455.8945">
			<stop  offset="0" style="stop-color:#009EE2"/>
			<stop  offset="1" style="stop-color:#1D70B7"/>
		</linearGradient>
		<polygon fill="url(#SVGID_97_)" points="297.827,456.246 298.29,457.765 298.412,454.024 		"/>
		<linearGradient id="SVGID_98_" gradientUnits="userSpaceOnUse" x1="298.1641" y1="459.6221" x2="299.082" y2="459.6221">
			<stop  offset="0" style="stop-color:#009EE2"/>
			<stop  offset="1" style="stop-color:#1D70B7"/>
		</linearGradient>
		<path fill="url(#SVGID_98_)" d="M298.29,457.765l-0.126,3.715c0.345-0.26,0.682-0.512,0.918-1.118L298.29,457.765z"/>
		<linearGradient id="SVGID_99_" gradientUnits="userSpaceOnUse" x1="297.668" y1="473.9316" x2="297.8418" y2="473.9316">
			<stop  offset="0" style="stop-color:#009EE2"/>
			<stop  offset="1" style="stop-color:#1D70B7"/>
		</linearGradient>
		<path fill="url(#SVGID_99_)" d="M297.842,471.219c-0.081,1.57-0.145,3.307-0.174,5.425L297.842,471.219z"/>
		<linearGradient id="SVGID_100_" gradientUnits="userSpaceOnUse" x1="297.8418" y1="469.0947" x2="298.127" y2="469.0947">
			<stop  offset="0" style="stop-color:#009EE2"/>
			<stop  offset="1" style="stop-color:#1D70B7"/>
		</linearGradient>
		<polygon fill="url(#SVGID_100_)" points="298.127,466.971 297.982,467.097 297.842,471.219 		"/>
		<linearGradient id="SVGID_101_" gradientUnits="userSpaceOnUse" x1="296.7432" y1="464.8164" x2="298.1641" y2="464.8164">
			<stop  offset="0" style="stop-color:#009EE2"/>
			<stop  offset="1" style="stop-color:#1D70B7"/>
		</linearGradient>
		<path fill="url(#SVGID_101_)" d="M298.164,461.479c-0.781,0.6-1.604,1.307-1.385,6.673l1.203-1.056L298.164,461.479z"/>
		<linearGradient id="SVGID_102_" gradientUnits="userSpaceOnUse" x1="333.3672" y1="342.4121" x2="338.0586" y2="342.4121">
			<stop  offset="0" style="stop-color:#009EE2"/>
			<stop  offset="1" style="stop-color:#1D70B7"/>
		</linearGradient>
		<polygon fill="url(#SVGID_102_)" points="337.61,342.129 333.367,342.573 333.818,342.695 338.059,342.251 		"/>
		<linearGradient id="SVGID_103_" gradientUnits="userSpaceOnUse" x1="318.7539" y1="341.6289" x2="319.5908" y2="341.6289">
			<stop  offset="0" style="stop-color:#009EE2"/>
			<stop  offset="1" style="stop-color:#1D70B7"/>
		</linearGradient>
		<path fill="url(#SVGID_103_)" d="M319.591,341.414c-0.4,0.137-0.648,0.281-0.837,0.43
			C319.176,341.758,319.473,341.629,319.591,341.414z"/>
		<linearGradient id="SVGID_104_" gradientUnits="userSpaceOnUse" x1="318.3174" y1="350.9922" x2="324.1133" y2="350.9922">
			<stop  offset="0" style="stop-color:#009EE2"/>
			<stop  offset="1" style="stop-color:#1D70B7"/>
		</linearGradient>
		<path fill="url(#SVGID_104_)" d="M323.213,348.965c-0.396,0.37-0.656,0.126-0.859-0.163c-0.104-0.134-0.192-0.252-0.277-0.207
			c-0.045,0.021-0.086,0.085-0.126,0.211l-0.063,0.24c-0.011,0.078-0.022,0.037-0.033,0.226l-0.033,0.808
			c-0.182,0.204-0.378,0.085-0.566-0.273c-0.093-0.152-0.182-0.485-0.267-0.645c-0.086-0.085-0.167-0.189-0.237-0.312
			c-0.281-0.47-0.426-1.267-0.244-1.889c0.688,0.438,0.44,1.37,1.147,0.885c-0.8-1.044-0.255-1.195-1.296-1.414
			c-0.578-1.752-1.226-2.696-1.837-4.358c0.06-0.078,0.134-0.156,0.233-0.229c-0.122,0.025-0.256,0.044-0.4,0.063
			c0.142,1.525-0.007,3.358-0.036,5.425l0.011,1.541l0.093,2.933c0.1,2.163,0.281,4.199,0.596,5.966
			c1.252,4.114,2.959,1.618,4.767,1.634c0.211-0.308,0.366-3.13,0.322-5.922c-0.022-1.399-0.097-2.788-0.241-3.855l-0.056-0.381
			c-0.022-0.118-0.041-0.056-0.063-0.093l-0.148-0.077C323.49,349.027,323.36,348.986,323.213,348.965z"/>
		<linearGradient id="SVGID_105_" gradientUnits="userSpaceOnUse" x1="324.6338" y1="348.6016" x2="325.0537" y2="348.6016">
			<stop  offset="0" style="stop-color:#009EE2"/>
			<stop  offset="1" style="stop-color:#1D70B7"/>
		</linearGradient>
		<path fill="url(#SVGID_105_)" d="M325.016,348.827c0.089-0.033,0.016-0.089-0.133-0.285
			C324.265,348.054,324.986,348.787,325.016,348.827z"/>
		<linearGradient id="SVGID_106_" gradientUnits="userSpaceOnUse" x1="311.4102" y1="393.583" x2="312.4287" y2="393.583">
			<stop  offset="0" style="stop-color:#009EE2"/>
			<stop  offset="1" style="stop-color:#1D70B7"/>
		</linearGradient>
		<path fill="url(#SVGID_106_)" d="M311.41,392.966c0.256,0.441,0.574,4.622,1.019,3.722l-0.326-6.336
			C312.063,391.84,311.747,392.362,311.41,392.966z"/>
		<linearGradient id="SVGID_107_" gradientUnits="userSpaceOnUse" x1="311.9658" y1="388.9609" x2="312.1094" y2="388.9609">
			<stop  offset="0" style="stop-color:#009EE2"/>
			<stop  offset="1" style="stop-color:#1D70B7"/>
		</linearGradient>
		<path fill="url(#SVGID_107_)" d="M311.966,387.57l0.137,2.781C312.125,389.655,312.092,388.796,311.966,387.57z"/>
		<linearGradient id="SVGID_108_" gradientUnits="userSpaceOnUse" x1="311.2471" y1="393.0938" x2="311.4102" y2="393.0938">
			<stop  offset="0" style="stop-color:#009EE2"/>
			<stop  offset="1" style="stop-color:#1D70B7"/>
		</linearGradient>
		<path fill="url(#SVGID_108_)" d="M311.247,393.266l0.163-0.3C311.354,392.877,311.3,392.892,311.247,393.266z"/>
		<linearGradient id="SVGID_109_" gradientUnits="userSpaceOnUse" x1="297.1182" y1="480.9834" x2="297.457" y2="480.9834">
			<stop  offset="0" style="stop-color:#009EE2"/>
			<stop  offset="1" style="stop-color:#1D70B7"/>
		</linearGradient>
		<path fill="url(#SVGID_109_)" d="M297.394,480.521c-0.496-0.264-0.2,0.507-0.052,0.978
			C297.383,481.262,297.546,480.947,297.394,480.521z"/>
		<linearGradient id="SVGID_110_" gradientUnits="userSpaceOnUse" x1="208.7769" y1="484.248" x2="211.269" y2="484.248">
			<stop  offset="0" style="stop-color:#009EE2"/>
			<stop  offset="1" style="stop-color:#1D70B7"/>
		</linearGradient>
		<path fill="url(#SVGID_110_)" d="M211.269,484.446l-2.492-0.396C209.658,484.287,210.11,484.402,211.269,484.446z"/>
		<linearGradient id="SVGID_111_" gradientUnits="userSpaceOnUse" x1="172.3149" y1="498.1191" x2="172.8223" y2="498.1191">
			<stop  offset="0" style="stop-color:#009EE2"/>
			<stop  offset="1" style="stop-color:#1D70B7"/>
		</linearGradient>
		<path fill="url(#SVGID_111_)" d="M172.822,497.993c-0.074,0.096-0.259,0.178-0.507,0.252
			C172.563,498.186,172.737,498.101,172.822,497.993z"/>
		<linearGradient id="SVGID_112_" gradientUnits="userSpaceOnUse" x1="160.1724" y1="498.5332" x2="172.3149" y2="498.5332">
			<stop  offset="0" style="stop-color:#009EE2"/>
			<stop  offset="1" style="stop-color:#1D70B7"/>
		</linearGradient>
		<path fill="url(#SVGID_112_)" d="M172.315,498.245c-1.703,0.414-6.969-0.23-8.862,0.399l0.241-0.192l-3.521,0.37
			C163.476,498.771,170.404,498.849,172.315,498.245z"/>
	</g>
	<g>
		<linearGradient id="SVGID_113_" gradientUnits="userSpaceOnUse" x1="15.7935" y1="255.8486" x2="289.708" y2="255.8486">
			<stop  offset="0" style="stop-color:#009EE2"/>
			<stop  offset="1" style="stop-color:#1D70B7"/>
		</linearGradient>
		<path fill="url(#SVGID_113_)" d="M166.491,500c-3.911,0-4.563-1.955-4.563-6.518l0.652-31.947
			c-7.171,0.651-27.382-0.652-33.901-2.607l-1.303,35.204c0,3.913-1.304,5.868-4.564,5.868h-14.342
			c-3.912,0-4.563-1.955-4.563-6.518l1.303-38.465c-17.603-5.217-37.161-14.343-48.244-20.864
			c-7.823-4.563-11.735-6.518-14.343-6.518c-3.912,0-6.519,3.259-11.735,12.385c-1.304,2.609-5.215,3.261-9.126,3.261
			s-6.52-2.606-5.867-11.083c2.607-25.427,8.475-96.487,10.43-111.481c0-3.259,1.957-4.564,4.563-4.564l14.343,0.653
			c2.607,0,3.912,0.652,3.912,4.563c1.305,17.602,1.957,35.856,13.039,63.24c9.779,15.646,26.729,31.943,43.68,41.722l4.563-144.079
			c-26.73-6.518-44.332-16.298-59.978-29.988c-22.167-20.21-33.25-44.333-33.25-84.102c0-48.896,20.21-73.017,43.028-91.271
			c13.691-11.082,35.857-20.21,55.415-22.817l1.304-36.508c0-4.564,1.304-5.868,4.564-5.868h14.344c3.26,0,4.563,1.955,4.563,5.868
			l-0.652,33.901c9.779-0.654,22.818,0,33.25,1.304l0.651-34.555c0-5.866,1.304-6.518,4.564-6.518h14.342
			c3.26,0,4.563,1.955,4.563,5.868l-1.304,38.463c13.038,2.609,23.47,5.868,38.464,10.43c5.215,1.305,8.475,0.653,11.735-1.956
			l7.17-7.823c2.606-2.607,4.563-2.607,7.824-2.607c3.911,0,5.866,2.607,5.866,7.823c0,35.205,1.304,91.923,1.955,104.962
			c0,2.609-1.304,4.564-3.259,4.564l-13.689,1.956c-1.956,0-3.26,0-3.911-1.956c-5.217-17.603-11.085-43.029-22.818-58.675
			c-5.216-6.52-14.995-20.862-28.686-27.381l-5.215,132.997c65.845,18.255,98.443,48.244,98.443,122.565
			c0,54.109-35.207,106.266-104.311,118.001l-0.652,34.555c0,5.214-1.956,6.518-5.215,6.518H166.491z M114.988,80.15
			c-29.337,12.387-33.901,41.07-33.901,62.586c0,29.337,11.083,44.983,31.293,54.111L114.988,80.15z M129.33,434.805
			c5.216,1.957,22.167,3.261,33.901,2.609l3.913-140.82c-16.951-4.563-26.078-6.518-33.249-9.125L129.33,434.805z M172.358,77.542
			c-9.127-3.259-24.773-5.216-33.248-3.259l-3.913,131.04c5.868,3.261,18.907,5.214,33.25,7.823L172.358,77.542z M186.049,434.153
			c22.167-8.473,39.768-30.641,39.768-71.061c0-21.515-11.083-47.591-35.855-59.326L186.049,434.153z"/>
	</g>
</g>
</svg>
