<?xml version="1.0" encoding="utf-8"?>
<!-- Generator: Adobe Illustrator 15.0.0, SVG Export Plug-In . SVG Version: 6.00 Build 0)  -->
<!DOCTYPE svg PUBLIC "-//W3C//DTD SVG 1.0//EN" "http://www.w3.org/TR/2001/REC-SVG-20010904/DTD/svg10.dtd">
<svg version="1.0" id="Layer_1" xmlns="http://www.w3.org/2000/svg" xmlns:xlink="http://www.w3.org/1999/xlink" x="0px" y="0px"
	 width="500px" height="500px" viewBox="0 0 500 500" enable-background="new 0 0 500 500" xml:space="preserve">
<g>
	<linearGradient id="SVGID_1_" gradientUnits="userSpaceOnUse" x1="494.2705" y1="258.7764" x2="3.4296" y2="258.7764">
		<stop  offset="0" style="stop-color:#009EE2"/>
		<stop  offset="1" style="stop-color:#1D70B7"/>
	</linearGradient>
	<path fill="url(#SVGID_1_)" d="M43.173,499.643C3.284,501.21,6.555,454.029,6.555,427.225c0-44.29,0-88.646,0-132.936
		c0-89.282-0.062-178.431-0.062-267.678c0-3.049,0-6.073,0-9.027c109.661,0,219.448,0,329.109-0.03c0,11.104,3.837,16.64-7.74,16.64
		c-15.285,0-30.577,0-45.929,0c-36.362,0-72.667,0.061-109.029,0.061c-49.955,0-99.879,0-149.741,0c0,75.188,0,150.433,0,225.709
		c0,48.984,0.064,98.029,0.064,147.007c0,16.104-7.707,65.807,12.364,74.489c2.42,1.008,6.009,1.634,8.526,1.634l0,0
		c14.28,0,28.561,0,42.908,0c81.665,0,163.359-0.035,245.021-0.035c36.433,0,72.889-0.026,109.312-0.026
		c19.067,0,34.857-3.466,34.857-26.427c-0.061-84.243-0.061-168.552-0.061-252.794c-0.064-45.392-0.064-90.784-0.064-136.272
		c-0.035-10.381-0.035-20.793-0.035-31.206c0-5.034-20.381-2.14-24.469-2.14c-25.887,0-51.686,0-77.575,0
		c-9.716,0-19.472,0-29.163,0c-8.363,0-9.183,2.044-9.183-6.981c0-6.546-2.327-9.628,4.309-9.628c8.717,0,17.337,0,26.079,0
		c26.296,0,52.658,0,78.921,0c15.856,0,31.685,0,47.665,0c0.252,0,0.124,16.609,0.124,17.554
		c0.063,39.701,0.063,79.462,0.063,119.191c0,94.907,0.064,189.909,0.064,284.847c0,7.178,0.504,14.568-0.064,21.775
		c-3.712,45.049-47.313,38.748-80.31,38.748c-82.895,0-165.815,0.06-248.737,0.06c-25.606,0-51.146,0-76.694,0
		c-14.283,0-28.625,0-42.905,0c-0.19,0-0.41,0-0.598,0C43.425,499.699,43.237,499.643,43.173,499.643"/>
	
		<linearGradient id="SVGID_2_" gradientUnits="userSpaceOnUse" x1="82.9546" y1="3422.6553" x2="82.9546" y2="3888.4541" gradientTransform="matrix(1 -1.000000e-004 1.000000e-004 1 165.8595 -3413.6965)">
		<stop  offset="0" style="stop-color:#FFFFFF"/>
		<stop  offset="0.4068" style="stop-color:#EBE7E7"/>
		<stop  offset="1" style="stop-color:#D1D6D1"/>
	</linearGradient>
	<path fill="url(#SVGID_2_)" d="M335.666,9.246C228.711,9.277,121.72,9.277,14.862,9.277c0,74.431,0,148.923,0,223.352
		c0,49.892,0,99.816,0,149.639c0,20.671-2.645,43.227,0.407,63.775c4.373,30.159,29.35,28.714,53.699,28.714
		c47.092,0,94.184,0,141.276-0.092c72.008,0,144.044,0,215.987-0.066c24.502,0,52.001,3.584,57.626-27.055
		c1.071-5.787,0.667-11.733,0.667-17.611c0-37.912-0.064-75.814-0.064-113.685c0-93.781,0-187.586,0-281.362
		c0-8.274,0-16.607,0-24.835c0-1.874-25.825-0.835-28.37-0.835C415.945,9.246,375.804,9.246,335.666,9.246"/>
	<path fill="#FFFFFF" fill-opacity="0.4" d="M484.523,272.487c0-81.761-0.064-163.486-0.064-245.275c0-5.35,3.329-17.997-3.3-17.997
		c-20.484,0-40.865,0-61.313,0c-32.274,0-64.645,0-96.955,0C220.215,9.277,117.539,9.277,14.862,9.277
		c0,81.792,0,163.52,0.064,245.309c0,2.326-1.509,18.029,1.066,18.029c8.717,0,17.429,0,26.11,0
		c42.027,0,84.057-0.035,126.083-0.035C273.634,272.549,379.077,272.487,484.523,272.487"/>
	<path fill="#878787" d="M484.459,360.538c-17.492,1.573-34.985,3.11-52.405,4.622c-12.082,1.073-24.1,2.107-36.115,3.176
		c-2.645,0.255-14.313-0.564-16.357,1.45c-2.016,2.041-1.195,13.739-1.479,16.452c-1.04,12.013-2.11,23.995-3.146,36.018
		c-1.541,17.484-3.115,35.017-4.624,52.501c16.928-0.22,18.055,0.346,29.223-10.919c13.088-13.021,26.209-26.169,39.355-39.26
		c12.517-12.543,25.008-25.095,37.561-37.562C485.847,377.651,484.459,374.693,484.459,360.538"/>
	
		<linearGradient id="SVGID_3_" gradientUnits="userSpaceOnUse" x1="260.7373" y1="3773.7012" x2="260.7373" y2="3888.6338" gradientTransform="matrix(1 -1.000000e-004 1.000000e-004 1 165.8595 -3413.6965)">
		<stop  offset="0" style="stop-color:#FFFFFF"/>
		<stop  offset="0.2892" style="stop-color:#FBFAFB"/>
		<stop  offset="0.6339" style="stop-color:#F1EBEF"/>
		<stop  offset="1" style="stop-color:#E0D4DB"/>
	</linearGradient>
	<path fill="url(#SVGID_3_)" d="M370.394,474.665c38.064-38.064,76.029-76.063,114.065-114.127c-19.003,0-38.036,0.061-57.03,0.061
		c-13.084,0-26.141,0-39.229,0c-2.516,0-15.951-1.949-17.867,0c-1.891,1.889,0,15.316,0,17.837c0,13.056,0,26.143,0.062,39.224
		C370.394,436.662,370.394,455.658,370.394,474.665"/>
	<linearGradient id="SVGID_4_" gradientUnits="userSpaceOnUse" x1="494.585" y1="58.0918" x2="3.7416" y2="58.0918">
		<stop  offset="0" style="stop-color:#009EE2"/>
		<stop  offset="1" style="stop-color:#1D70B7"/>
	</linearGradient>
	<path fill="url(#SVGID_4_)" d="M5.676,9.216c158.514,0,317.06,0,475.571,0c3.591,0,12.399-2.125,12.399,2.201
		c0,22.46,0,45.018,0,67.636c0,4.655,3.269,28.437-2.394,28.437c-9.565,0-19.13,0-28.723,0c-96.539,0-193.056,0-289.499,0
		c-51.655,0-103.308,0-154.994,0c-15.507,0-12.361-0.44-12.361-17.238C5.676,63.23,5.676,36.237,5.676,9.216"/>
	<linearGradient id="SVGID_5_" gradientUnits="userSpaceOnUse" x1="5.415" y1="49.1836" x2="493.6465" y2="49.1836">
		<stop  offset="0" style="stop-color:#009EE2"/>
		<stop  offset="1" style="stop-color:#1D70B7"/>
	</linearGradient>
	<path fill="url(#SVGID_5_)" d="M493.646,98.304c-158.549,0-317.062,0-475.578,0.064c-15.538,0-12.392-0.44-12.392-17.24
		c0-26.988-0.063-54.042-0.063-81.003C164.159,0.094,322.704,0.031,481.247,0c4.123,0,8.244,0,12.399,0
		C493.646,32.745,493.646,65.462,493.646,98.304"/>
	<g>
		<linearGradient id="SVGID_6_" gradientUnits="userSpaceOnUse" x1="240.2847" y1="160.8433" x2="240.2847" y2="404.1251">
			<stop  offset="0" style="stop-color:#009EE2"/>
			<stop  offset="1" style="stop-color:#1D70B7"/>
		</linearGradient>
		<path fill="url(#SVGID_6_)" d="M291.735,161.262v243.926h-60.869V274.412c0-18.882-0.448-30.233-1.354-34.048
			c-0.901-3.818-3.39-6.704-7.457-8.666c-4.07-1.958-13.132-2.937-27.192-2.937h-6.029v-28.437
			c29.428-6.333,51.777-19.353,67.045-39.062H291.735z"/>
	</g>
</g>
</svg>
